<svg width="1440" height="850" viewBox="0 0 1440 850" fill="none" xmlns="http://www.w3.org/2000/svg">
<g opacity="0.96">
<path opacity="0.96" d="M1323.6 850.001L1322.4 790.707L1339.2 850.001H1340.4L1322.4 787.53H1321.2L1322.4 850.001H1323.6Z" fill="#4277A9" fill-opacity="0.5"/>
<path opacity="0.96" d="M1303.2 850.001L1321.2 789.648L1322.4 850.001H1323.6L1322.4 787.53H1321.2L1303.2 850.001Z" fill="#4277A9" fill-opacity="0.5"/>
<path opacity="0.96" d="M1076.4 850L1120.8 835.176L1116 850H1117.2L1120.8 835.176V834.118L1074 850H1076.4Z" fill="#4277A9" fill-opacity="0.5"/>
<path opacity="0.96" d="M1131.6 850L1122 835.176L1156.8 850H1158L1119.6 834.118L1131.6 850Z" fill="#4277A9" fill-opacity="0.5"/>
<path opacity="0.96" d="M584.396 850.002L587.996 843.649L586.796 850.002H587.996L589.195 841.531H587.996L583.195 850.002H584.396Z" fill="#4277A9" fill-opacity="0.5"/>
<path opacity="0.96" d="M587.993 850.002L589.193 842.59L601.193 850.002H602.393L589.193 841.531H587.993L586.793 850.002H587.993Z" fill="#4277A9" fill-opacity="0.5"/>
<path opacity="0.96" d="M1120.79 835.178L874.793 749.414L1040.39 640.355L1120.79 835.178ZM877.193 749.414L1120.79 834.12L1041.59 641.414L877.193 749.414Z" fill="#4277A9" fill-opacity="0.5"/>
<path opacity="0.96" d="M1120.8 835.178L1040.4 640.355L1237.2 635.061L1120.8 835.178ZM1041.6 641.414L1120.8 834.12L1236 635.061L1041.6 641.414Z" fill="#4277A9" fill-opacity="0.5"/>
<path opacity="0.96" d="M541.198 850.002L587.998 842.59L583.198 850.002H584.398L589.198 841.531L537.598 850.002H541.198Z" fill="#4277A9" fill-opacity="0.5"/>
<path opacity="0.96" d="M918 850.002L877.2 749.413L1119.6 835.178L1074 850.002H1076.4L1122 835.178L876 748.354L916.8 850.002H918Z" fill="#4277A9" fill-opacity="0.5"/>
<path opacity="0.96" d="M602.4 850.002L590.4 842.59L619.2 850.002H621.6L588 841.531L601.2 850.002H602.4Z" fill="#4277A9" fill-opacity="0.5"/>
<path opacity="0.96" d="M776.402 850.001L799.202 709.177L876.002 749.413L799.202 850.001H800.402L876.002 749.413L799.202 708.119L776.402 850.001Z" fill="#4277A9" fill-opacity="0.5"/>
<path opacity="0.96" d="M1040.4 641.412L1201.2 527.059L1237.2 635.059L1040.4 641.412ZM1200 527.059L1041.6 640.353L1236 635.059L1200 527.059Z" fill="#4277A9" fill-opacity="0.5"/>
<path opacity="0.96" d="M346.798 850.002L380.398 706.002L476.398 850.002H477.598L380.398 703.884L345.598 850.002H346.798Z" fill="#4277A9" fill-opacity="0.5"/>
<path opacity="0.96" d="M589.195 841.531L610.796 634.001L694.796 689.06L589.195 841.531ZM610.796 635.06L589.195 840.472L693.596 689.06L610.796 635.06Z" fill="#4277A9" fill-opacity="0.5"/>
<path opacity="0.96" d="M589.196 842.589L379.196 704.942L610.796 634.001L589.196 842.589ZM380.396 704.942L587.996 841.53L609.596 635.06L380.396 704.942Z" fill="#4277A9" fill-opacity="0.5"/>
<path opacity="0.96" d="M877.196 749.414L799.196 708.12L811.196 587.414H812.396L877.196 749.414ZM799.196 708.12L874.796 748.355L811.196 589.531L799.196 708.12Z" fill="#4277A9" fill-opacity="0.5"/>
<path opacity="0.96" d="M379.196 706.001L430.796 605.413L610.796 635.06L379.196 706.001ZM431.996 605.413L380.396 703.884L609.596 634.002L431.996 605.413Z" fill="#4277A9" fill-opacity="0.5"/>
<path opacity="0.96" d="M988.796 603.296L811.196 445.531L932.396 402.12L988.796 603.296ZM812.396 445.531L987.596 601.178L932.396 403.178L812.396 445.531Z" fill="#4277A9" fill-opacity="0.5"/>
<path opacity="0.96" d="M987.596 603.295L931.196 402.119L1155.6 379.883V380.942L987.596 603.295ZM932.396 402.119L987.596 601.177L1154.4 379.883L932.396 402.119Z" fill="#4277A9" fill-opacity="0.5"/>
<path opacity="0.96" d="M255.598 816.119L183.598 596.942L381.598 703.883L255.598 816.119ZM183.598 599.06L255.598 815.06L379.198 704.942L183.598 599.06Z" fill="#4277A9" fill-opacity="0.5"/>
<path opacity="0.96" d="M610.798 636.12L561.598 535.531L631.198 513.296L610.798 636.12ZM561.598 535.531L609.598 632.943L628.798 513.296L561.598 535.531Z" fill="#4277A9" fill-opacity="0.5"/>
<path opacity="0.96" d="M183.6 599.06L162 516.472L277.2 425.413L183.6 599.06ZM163.2 517.531L183.6 598.001L277.2 427.531L163.2 517.531Z" fill="#4277A9" fill-opacity="0.5"/>
<path opacity="0.96" d="M931.196 403.176L1041.6 225.294L1155.6 379.882L931.196 403.176ZM1041.6 226.353L932.396 401.059L1154.4 378.824L1041.6 226.353Z" fill="#4277A9" fill-opacity="0.5"/>
<path opacity="0.96" d="M432.002 605.413L182.402 598.001L277.202 425.413L432.002 605.413ZM183.602 598.001L430.802 604.354L278.402 426.472L183.602 598.001Z" fill="#4277A9" fill-opacity="0.5"/>
<path opacity="0.96" d="M932.395 403.177L769.195 322.706L959.995 233.765V234.824L932.395 403.177ZM771.596 322.706L932.395 402.118L958.796 234.824L771.596 322.706Z" fill="#4277A9" fill-opacity="0.5"/>
<g opacity="0.96">
<path opacity="0.96" d="M1440 847.883L1322.4 663.647L1440 691.177V690.118L1321.2 662.589L1440 848.942V847.883Z" fill="#4277A9" fill-opacity="0.5"/>
</g>
<g opacity="0.96">
<path opacity="0.96" d="M1440 629.767L1322.4 662.59L1440 498.473V497.414L1321.2 663.649L1440 629.767Z" fill="#4277A9" fill-opacity="0.5"/>
</g>
<g opacity="0.96">
<path opacity="0.96" d="M954 790.706L1010.4 521.765L1323.6 663.647L954 790.706ZM1010.4 522.823L955.2 789.647L1321.2 663.647L1010.4 522.823Z" fill="#4277A9" fill-opacity="0.5"/>
</g>
<g opacity="0.96">
<path opacity="0.96" d="M1322.4 663.648L1009.2 522.824L1218 339.648L1322.4 663.648ZM1010.4 522.824L1321.2 663.648L1218 340.706L1010.4 522.824Z" fill="#4277A9" fill-opacity="0.5"/>
</g>
<g opacity="0.96">
<path opacity="0.96" d="M1089.6 850L956.4 789.647L1321.2 663.647L1216.8 850L1322.4 663.647V662.589L955.2 789.647H954L1087.2 850H1089.6Z" fill="#4277A9" fill-opacity="0.5"/>
</g>
<g opacity="0.96">
<path opacity="0.96" d="M851.996 850L824.396 815.059L955.196 789.648L965.996 850L955.196 789.648L824.396 814H823.196L851.996 850Z" fill="#4277A9" fill-opacity="0.5"/>
</g>
<g opacity="0.96">
<path opacity="0.96" d="M955.196 789.648L907.196 528.119L1010.4 522.824L955.196 789.648ZM908.396 528.119L955.196 787.53L1010.4 522.824L908.396 528.119Z" fill="#4277A9" fill-opacity="0.5"/>
</g>
<g opacity="0.96">
<path opacity="0.96" d="M697.193 672.118L532.793 514.353H533.993L909.593 527.059L697.193 672.118ZM533.993 515.412L697.193 671.059L907.193 528.118L533.993 515.412Z" fill="#4277A9" fill-opacity="0.5"/>
</g>
<g opacity="0.96">
<path opacity="0.96" d="M909.593 528.12L532.793 515.414L615.593 359.767L909.593 528.12ZM533.993 514.355L907.193 527.061L615.593 359.767L533.993 514.355Z" fill="#4277A9" fill-opacity="0.5"/>
</g>
<g opacity="0.96">
<path opacity="0.96" d="M908.398 529.178L615.598 359.766L835.198 134.237L908.398 529.178ZM615.598 359.766L907.198 528.119L833.998 135.296L615.598 359.766Z" fill="#4277A9" fill-opacity="0.5"/>
</g>
<g opacity="0.96">
<path opacity="0.96" d="M412.793 753.648L533.993 514.353L698.393 671.059L412.793 753.648ZM533.993 515.412L413.993 751.53L695.993 671.059L533.993 515.412Z" fill="#4277A9" fill-opacity="0.5"/>
</g>
<g opacity="0.96">
<path opacity="0.96" d="M393.602 850L363.602 838.353L412.802 753.648L489.602 850H490.802L412.802 752.589L363.602 838.353L362.402 839.412L392.402 850H393.602Z" fill="#4277A9" fill-opacity="0.5"/>
</g>
<g opacity="0.96">
<path opacity="0.96" d="M413.994 753.648L190.794 656.237H191.994L535.194 515.413V516.472L413.994 753.648ZM191.994 656.237L413.994 752.59L533.994 516.472L191.994 656.237Z" fill="#4277A9" fill-opacity="0.5"/>
</g>
<g opacity="0.96">
<path opacity="0.96" d="M615.6 359.766L450 151.177L531.6 67.5304V68.5892L615.6 359.766ZM451.2 151.177L614.4 357.648L531.6 68.5892L451.2 151.177Z" fill="#4277A9" fill-opacity="0.5"/>
</g>
<g opacity="0.96">
<path opacity="0.96" d="M345.598 418.001L449.998 150.119L615.598 358.707L345.598 418.001ZM451.198 152.237L346.798 418.001L615.598 359.766L451.198 152.237Z" fill="#4277A9" fill-opacity="0.5"/>
</g>
<path opacity="0.96" d="M1325.99 791.766C1323.59 793.884 1319.99 793.884 1317.59 791.766C1315.19 789.649 1315.19 786.472 1317.59 784.354C1319.99 782.237 1323.59 782.237 1325.99 784.354C1328.39 786.472 1328.39 789.649 1325.99 791.766Z" fill="#4277A9" fill-opacity="0.5"/>
<path opacity="0.96" d="M1324.8 790.708C1323.6 791.767 1320 791.767 1318.8 790.708C1317.6 789.649 1317.6 786.473 1318.8 785.414C1320 784.355 1323.6 784.355 1324.8 785.414C1326 786.473 1326 788.59 1324.8 790.708Z" fill="#4277A9" fill-opacity="0.5"/>
<path opacity="0.96" d="M1128 841.53C1123.2 844.706 1117.2 844.706 1112.4 840.471C1108.8 836.235 1108.8 830.941 1113.6 826.706C1118.4 823.53 1124.4 823.53 1129.2 827.765C1132.8 832 1132.8 838.353 1128 841.53Z" fill="#4277A9" fill-opacity="0.5"/>
<path opacity="0.96" d="M1124.4 838.354C1122 840.471 1118.4 840.471 1116 838.354C1113.6 836.236 1113.6 833.059 1116 830.942C1118.4 828.824 1122 828.824 1124.4 830.942C1128 833.059 1128 837.295 1124.4 838.354Z" fill="#4277A9" fill-opacity="0.5"/>
<path opacity="0.96" d="M1124.4 838.353C1122 840.471 1119.6 839.412 1117.2 838.353C1114.8 836.236 1116 834.118 1117.2 832C1119.6 829.883 1122 830.942 1124.4 832C1126.8 834.118 1126.8 836.236 1124.4 838.353Z" fill="#4277A9" fill-opacity="0.5"/>
<path opacity="0.96" d="M591.596 844.706C590.396 845.765 587.996 845.765 585.596 844.706C584.396 843.648 584.396 841.53 585.596 839.412C586.796 838.354 589.196 838.354 591.596 839.412C592.796 840.471 592.796 842.589 591.596 844.706Z" fill="#4277A9" fill-opacity="0.5"/>
<path opacity="0.96" d="M1123.19 837.295C1121.99 838.354 1118.39 838.354 1117.19 837.295C1115.99 836.236 1115.99 833.06 1117.19 832.001C1118.39 830.942 1121.99 830.942 1123.19 832.001C1125.59 834.119 1125.59 836.236 1123.19 837.295Z" fill="#4277A9" fill-opacity="0.5"/>
<path opacity="0.96" d="M879.6 752.59C877.2 754.708 874.8 753.649 872.4 752.59C871.2 750.472 871.2 748.355 872.4 746.237C874.8 744.12 877.2 745.178 879.6 746.237C882 748.355 880.8 750.472 879.6 752.59Z" fill="#4277A9" fill-opacity="0.5"/>
<path opacity="0.96" d="M1123.2 837.296C1122 838.355 1119.6 838.355 1118.4 837.296C1117.2 836.237 1117.2 834.12 1118.4 833.061C1119.6 832.002 1122 832.002 1123.2 833.061C1124.4 834.12 1124.4 836.237 1123.2 837.296Z" fill="#4277A9" fill-opacity="0.5"/>
<path opacity="0.96" d="M1044 643.53C1042.8 644.589 1039.2 644.589 1038 643.53C1036.8 642.471 1036.8 639.295 1038 638.236C1039.2 637.177 1042.8 637.177 1044 638.236C1045.2 639.295 1045.2 642.471 1044 643.53Z" fill="#4277A9" fill-opacity="0.5"/>
<path opacity="0.96" d="M592.798 845.765C590.398 847.882 586.798 847.882 584.398 845.765C581.998 843.647 581.998 840.471 584.398 838.353C586.798 836.235 590.398 836.235 592.798 838.353C595.198 840.471 595.198 843.647 592.798 845.765Z" fill="#4277A9" fill-opacity="0.5"/>
<path opacity="0.96" d="M1123.2 837.296C1122 838.355 1119.6 838.355 1118.4 837.296C1117.2 836.237 1117.2 834.12 1118.4 833.061C1119.6 832.002 1122 832.002 1123.2 833.061C1124.4 834.12 1124.4 836.237 1123.2 837.296Z" fill="#4277A9" fill-opacity="0.5"/>
<path opacity="0.96" d="M589.199 842.589C587.999 843.648 586.799 842.589 586.799 842.589C585.599 841.53 586.799 840.472 586.799 840.472C587.999 839.413 589.199 840.472 589.199 840.472C590.399 841.53 590.399 842.589 589.199 842.589Z" fill="#4277A9" fill-opacity="0.5"/>
<path opacity="0.96" d="M697.2 691.178C696 692.237 693.6 692.237 692.4 691.178C691.2 690.119 691.2 688.001 692.4 686.943C693.6 685.884 696 685.884 697.2 686.943C698.4 688.001 698.4 690.119 697.2 691.178Z" fill="#4277A9" fill-opacity="0.5"/>
<path opacity="0.96" d="M800.402 710.236C799.202 711.295 798.002 711.295 796.802 710.236C795.602 709.177 795.602 708.118 796.802 707.059C798.002 706.001 799.202 706.001 800.402 707.059C801.602 708.118 801.602 709.177 800.402 710.236Z" fill="#4277A9" fill-opacity="0.5"/>
<path opacity="0.96" d="M1042.79 642.472C1041.59 643.531 1040.39 643.531 1039.19 642.472C1037.99 641.413 1037.99 640.354 1039.19 639.296C1040.39 638.237 1041.59 638.237 1042.79 639.296C1043.99 640.354 1043.99 641.413 1042.79 642.472Z" fill="#4277A9" fill-opacity="0.5"/>
<path opacity="0.96" d="M260.4 820.353C258 822.471 253.2 822.471 250.8 820.353C248.4 818.235 248.4 814 250.8 811.882C253.2 809.765 258 809.765 260.4 811.882C262.8 814 262.8 818.235 260.4 820.353Z" fill="#4277A9" fill-opacity="0.5"/>
<path opacity="0.96" d="M812.398 589.529C811.198 590.588 809.998 590.588 809.998 589.529C808.798 588.471 808.798 587.412 809.998 587.412C811.198 586.353 812.398 586.353 812.398 587.412C813.598 587.412 813.598 588.471 812.398 589.529Z" fill="#4277A9" fill-opacity="0.5"/>
<path opacity="0.96" d="M1045.2 644.588C1042.8 646.706 1039.2 646.706 1036.8 644.588C1034.4 642.471 1034.4 639.294 1036.8 637.176C1039.2 635.059 1042.8 635.059 1045.2 637.176C1047.6 639.294 1047.6 642.471 1045.2 644.588Z" fill="#4277A9" fill-opacity="0.5"/>
<path opacity="0.96" d="M584.393 850.001H592.793C593.993 850.001 593.993 848.942 595.193 848.942C599.993 845.765 599.993 839.412 596.393 836.236C592.793 832.001 585.593 832.001 581.993 835.177C577.193 838.354 577.193 844.707 580.793 847.883C581.993 848.942 583.193 850.001 584.393 850.001Z" fill="#4277A9" fill-opacity="0.5"/>
<path opacity="0.96" d="M619.199 642.472C614.399 646.707 607.199 645.649 602.399 641.413C597.599 637.178 598.799 630.825 603.599 626.59C608.399 622.354 615.599 623.413 620.399 627.649C623.999 631.884 623.999 638.237 619.199 642.472Z" fill="#4277A9" fill-opacity="0.5"/>
<path opacity="0.96" d="M697.194 692.237C695.994 693.296 692.394 693.296 691.194 692.237C689.994 691.178 689.994 688.001 691.194 686.943C692.394 685.884 695.994 685.884 697.194 686.943C698.394 688.001 698.394 690.119 697.194 692.237Z" fill="#4277A9" fill-opacity="0.5"/>
<path opacity="0.96" d="M383.998 709.176C381.598 711.294 376.798 711.294 374.398 709.176C371.998 707.059 371.998 702.824 374.398 700.706C376.798 698.588 381.598 698.588 383.998 700.706C387.598 703.882 386.398 707.059 383.998 709.176Z" fill="#4277A9" fill-opacity="0.5"/>
<path opacity="0.96" d="M387.595 712.355C382.795 715.531 376.795 715.531 373.195 711.296C369.595 707.061 369.595 701.766 374.395 698.59C379.195 695.414 385.195 695.414 388.795 699.649C391.195 702.825 391.195 708.119 387.595 712.355Z" fill="#4277A9" fill-opacity="0.5"/>
<path opacity="0.96" d="M803.998 713.413C801.598 715.531 796.798 715.531 794.398 713.413C791.998 711.296 791.998 707.06 794.398 704.943C796.798 702.825 801.598 702.825 803.998 704.943C806.398 707.06 806.398 711.296 803.998 713.413Z" fill="#4277A9" fill-opacity="0.5"/>
<path opacity="0.96" d="M434.4 607.531C433.2 608.59 429.6 608.59 428.4 607.531C427.2 606.472 427.2 603.296 428.4 602.237C429.6 601.178 433.2 601.178 434.4 602.237C436.8 604.354 436.8 606.472 434.4 607.531Z" fill="#4277A9" fill-opacity="0.5"/>
<path opacity="0.96" d="M615.596 639.296C613.196 641.413 608.396 641.413 605.996 639.296C603.596 637.178 603.596 632.943 605.996 630.825C608.396 628.708 613.196 628.708 615.596 630.825C617.996 632.943 617.996 637.178 615.596 639.296Z" fill="#4277A9" fill-opacity="0.5"/>
<path opacity="0.96" d="M168 820.355C166.8 821.414 164.4 821.414 164.4 820.355C163.2 819.296 163.2 817.178 164.4 817.178C165.6 816.12 168 816.12 168 817.178C169.2 818.237 169.2 819.296 168 820.355Z" fill="#4277A9" fill-opacity="0.5"/>
<path opacity="0.96" d="M812.402 589.531C811.202 590.59 810.002 590.59 808.802 589.531C807.602 588.472 807.602 587.413 808.802 586.354C810.002 585.296 811.202 585.296 812.402 586.354C813.602 587.413 813.602 588.472 812.402 589.531Z" fill="#4277A9" fill-opacity="0.5"/>
<path opacity="0.96" d="M991.203 605.412C988.803 607.53 986.403 606.471 984.003 605.412C981.603 603.295 982.803 601.177 984.003 599.059C986.403 596.942 988.803 598 991.203 599.059C993.603 601.177 993.603 604.353 991.203 605.412Z" fill="#4277A9" fill-opacity="0.5"/>
<path opacity="0.96" d="M613.2 637.177C612 638.236 609.6 638.236 608.4 637.177C607.2 636.118 607.2 634 608.4 632.942C609.6 631.883 612 631.883 613.2 632.942C614.4 634 614.4 636.118 613.2 637.177Z" fill="#4277A9" fill-opacity="0.5"/>
<path opacity="0.96" d="M814.798 591.647C812.398 593.765 808.798 593.765 806.398 591.647C803.998 589.529 803.998 586.353 806.398 584.235C808.798 582.118 812.398 582.118 814.798 584.235C818.398 586.353 818.398 589.529 814.798 591.647Z" fill="#4277A9" fill-opacity="0.5"/>
<path opacity="0.96" d="M259.2 820.354C256.8 822.471 253.2 822.471 250.8 820.354C248.4 818.236 248.4 815.06 250.8 812.942C253.2 810.825 256.8 810.825 259.2 812.942C262.8 815.06 262.8 818.236 259.2 820.354Z" fill="#4277A9" fill-opacity="0.5"/>
<path opacity="0.96" d="M189.597 603.295C185.997 606.471 181.197 605.413 177.597 603.295C173.997 600.118 175.197 595.883 177.597 592.707C181.197 589.53 185.997 590.589 189.597 592.707C193.197 595.883 191.997 601.177 189.597 603.295Z" fill="#4277A9" fill-opacity="0.5"/>
<path opacity="0.96" d="M170.4 822.473C168 824.59 163.2 824.59 160.8 822.473C158.4 820.355 158.4 816.12 160.8 814.002C163.2 811.884 168 811.884 170.4 814.002C174 817.178 172.8 820.355 170.4 822.473Z" fill="#4277A9" fill-opacity="0.5"/>
<path opacity="0.96" d="M434.4 607.531C433.2 608.59 430.8 608.59 428.4 607.531C427.2 606.472 427.2 604.354 428.4 602.237C429.6 601.178 432 601.178 434.4 602.237C435.6 604.354 435.6 606.472 434.4 607.531Z" fill="#4277A9" fill-opacity="0.5"/>
<path opacity="0.96" d="M187.203 601.178C184.803 603.296 182.403 602.237 180.003 601.178C177.603 599.06 178.803 596.943 180.003 594.825C182.403 592.707 184.803 593.766 187.203 594.825C189.603 596.943 189.603 600.119 187.203 601.178Z" fill="#4277A9" fill-opacity="0.5"/>
<path opacity="0.96" d="M437.993 611.765C434.393 614.942 428.393 614.942 424.793 610.706C421.193 607.53 421.193 602.236 425.993 599.059C429.593 595.883 435.593 595.883 439.193 600.118C442.793 604.353 441.593 608.589 437.993 611.765Z" fill="#4277A9" fill-opacity="0.5"/>
<path opacity="0.96" d="M814.798 591.647C812.398 593.765 808.798 593.765 806.398 591.647C803.998 589.529 803.998 586.353 806.398 584.235C808.798 582.118 812.398 582.118 814.798 584.235C818.398 586.353 817.198 589.529 814.798 591.647Z" fill="#4277A9" fill-opacity="0.5"/>
<path opacity="0.96" d="M614.398 638.237C611.998 640.354 609.598 639.296 607.198 638.237C604.798 636.119 605.998 634.001 607.198 631.884C609.598 629.766 611.998 630.825 614.398 631.884C616.798 632.943 616.798 636.119 614.398 638.237Z" fill="#4277A9" fill-opacity="0.5"/>
<path opacity="0.96" d="M633.594 516.472C631.194 518.59 627.594 517.531 626.394 516.472C623.994 514.354 625.194 511.178 626.394 510.119C628.794 508.001 632.394 509.06 633.594 510.119C635.994 512.237 635.994 515.413 633.594 516.472Z" fill="#4277A9" fill-opacity="0.5"/>
<path opacity="0.96" d="M281.993 429.649C279.593 431.767 275.993 431.767 273.593 429.649C271.193 427.531 271.193 424.355 273.593 422.237C275.993 420.12 279.593 420.12 281.993 422.237C284.393 424.355 284.393 427.531 281.993 429.649Z" fill="#4277A9" fill-opacity="0.5"/>
<path opacity="0.96" d="M1159.2 384.119C1156.8 386.237 1153.2 386.237 1150.8 384.119C1148.4 382.001 1148.4 378.825 1150.8 376.707C1153.2 374.59 1156.8 374.59 1159.2 376.707C1161.6 378.825 1161.6 382.001 1159.2 384.119Z" fill="#4277A9" fill-opacity="0.5"/>
<path opacity="0.96" d="M934.795 405.296C932.395 406.355 929.995 406.355 927.595 405.296C926.395 403.178 926.395 401.061 927.595 398.943C929.995 397.884 932.395 397.884 934.795 398.943C937.195 401.061 937.195 404.237 934.795 405.296Z" fill="#4277A9" fill-opacity="0.5"/>
<path opacity="0.96" d="M280.796 428.59C278.396 429.649 275.996 429.649 273.596 428.59C272.396 426.472 272.396 424.354 273.596 422.237C275.996 421.178 278.396 421.178 280.796 422.237C283.196 424.354 283.196 427.531 280.796 428.59Z" fill="#4277A9" fill-opacity="0.5"/>
<path opacity="0.96" d="M963.602 238.001C961.202 240.119 957.602 240.119 955.202 238.001C952.802 235.883 952.802 232.707 955.202 230.589C957.602 228.472 961.202 228.472 963.602 230.589C966.002 232.707 966.002 235.883 963.602 238.001Z" fill="#4277A9" fill-opacity="0.5"/>
<path opacity="0.96" d="M1045.19 229.531C1043.99 230.59 1040.39 230.59 1039.19 229.531C1037.99 228.473 1037.99 225.296 1039.19 224.237C1040.39 223.178 1043.99 223.178 1045.19 224.237C1046.39 225.296 1046.39 227.414 1045.19 229.531Z" fill="#4277A9" fill-opacity="0.5"/>
<path opacity="0.96" d="M573.598 377.766C572.398 378.825 571.198 378.825 569.998 377.766C568.798 376.707 568.798 375.648 569.998 374.59C571.198 373.531 572.398 373.531 573.598 374.59C574.797 375.648 574.797 377.766 573.598 377.766Z" fill="#4277A9" fill-opacity="0.5"/>
<path opacity="0.96" d="M815.998 449.765C813.598 451.882 808.798 451.882 806.398 449.765C803.998 447.647 803.998 443.412 806.398 441.294C808.798 439.176 813.598 439.176 815.998 441.294C819.598 443.412 819.598 447.647 815.998 449.765Z" fill="#4277A9" fill-opacity="0.5"/>
<path opacity="0.96" d="M633.596 516.471C632.396 517.53 628.796 517.53 627.596 516.471C626.396 515.412 626.396 512.236 627.596 511.177C628.796 510.118 632.396 510.118 633.596 511.177C634.796 512.236 634.796 514.353 633.596 516.471Z" fill="#4277A9" fill-opacity="0.5"/>
<path opacity="0.96" d="M187.2 602.235C184.8 604.353 181.2 604.353 178.8 602.235C176.4 600.118 176.4 596.941 178.8 594.823C181.2 592.706 184.8 592.706 187.2 594.823C190.8 596.941 190.8 600.118 187.2 602.235Z" fill="#4277A9" fill-opacity="0.5"/>
<path opacity="0.96" d="M57.5978 624.472C55.1978 626.589 51.5978 626.589 50.3978 624.472C47.9978 621.295 47.9978 619.177 50.3978 617.06C52.7978 614.942 56.3978 614.942 57.5978 617.06C59.9978 619.177 59.9978 622.354 57.5978 624.472Z" fill="#4277A9" fill-opacity="0.5"/>
<path opacity="0.96" d="M166.798 520.706C164.398 522.824 160.798 522.824 158.398 520.706C155.998 518.589 155.998 515.412 158.398 513.295C160.798 511.177 164.398 511.177 166.798 513.295C169.198 515.412 169.198 518.589 166.798 520.706Z" fill="#4277A9" fill-opacity="0.5"/>
<path opacity="0.96" d="M776.396 328.001C772.796 331.177 766.797 330.119 764.397 326.942C760.797 323.766 761.997 318.471 765.597 316.354C769.197 313.177 775.197 314.236 777.597 317.413C779.997 320.589 779.996 325.883 776.396 328.001Z" fill="#4277A9" fill-opacity="0.5"/>
<path opacity="0.96" d="M1328.4 668.943C1324.8 672.12 1318.8 672.12 1315.2 667.884C1311.6 664.708 1311.6 659.414 1316.4 656.237C1320 653.061 1326 653.061 1329.6 657.296C1332 661.531 1332 665.767 1328.4 668.943Z" fill="#4277A9" fill-opacity="0.5"/>
<path opacity="0.96" d="M1324.8 666.825C1322.4 667.884 1320 667.884 1317.6 666.825C1316.4 664.707 1316.4 662.59 1317.6 660.472C1320 659.413 1322.4 659.413 1324.8 660.472C1327.2 662.59 1327.2 664.707 1324.8 666.825Z" fill="#4277A9" fill-opacity="0.5"/>
<path opacity="0.96" d="M1327.2 667.882C1323.6 670 1318.8 670 1316.4 667.882C1314 664.706 1314 660.471 1316.4 658.353C1320 656.235 1324.8 656.235 1327.2 658.353C1330.8 661.529 1330.8 665.765 1327.2 667.882Z" fill="#4277A9" fill-opacity="0.5"/>
<path opacity="0.96" d="M958.798 793.883C956.398 796.001 952.798 796.001 950.398 793.883C947.998 791.766 947.998 788.589 950.398 786.472C952.798 784.354 956.398 784.354 958.798 786.472C961.198 788.589 961.198 791.766 958.798 793.883Z" fill="#4277A9" fill-opacity="0.5"/>
<path opacity="0.96" d="M1327.2 668.942C1323.6 671.06 1318.8 671.06 1316.4 668.942C1314 665.766 1314 661.53 1316.4 659.413C1320 657.295 1324.8 657.295 1327.2 659.413C1330.8 661.53 1330.8 665.766 1327.2 668.942Z" fill="#4277A9" fill-opacity="0.5"/>
<path opacity="0.96" d="M1011.6 523.884C1010.4 524.943 1009.2 524.943 1008 523.884C1006.8 522.826 1006.8 521.767 1008 520.708C1009.2 519.649 1010.4 519.649 1011.6 520.708C1012.8 521.767 1012.8 522.826 1011.6 523.884Z" fill="#4277A9" fill-opacity="0.5"/>
<path opacity="0.96" d="M960.002 794.941C956.402 797.059 951.602 797.059 949.202 794.941C946.802 791.765 946.802 787.53 949.202 785.412C952.802 783.294 957.602 783.294 960.002 785.412C963.602 787.53 963.602 792.824 960.002 794.941Z" fill="#4277A9" fill-opacity="0.5"/>
<path opacity="0.96" d="M825.602 816.12C824.402 817.178 822.002 817.178 820.802 816.12C819.602 815.061 819.602 812.943 820.802 811.884C822.002 810.825 824.402 810.825 825.602 811.884C828.002 814.002 826.802 816.12 825.602 816.12Z" fill="#4277A9" fill-opacity="0.5"/>
<path opacity="0.96" d="M826.801 818.237C824.401 820.355 822.001 819.296 819.601 818.237C817.201 816.119 818.401 814.001 819.601 811.884C822.001 809.766 824.401 810.825 826.801 811.884C829.201 814.001 829.201 816.119 826.801 818.237Z" fill="#4277A9" fill-opacity="0.5"/>
<path opacity="0.96" d="M957.602 791.766C956.402 792.825 954.002 792.825 952.802 791.766C951.602 790.707 951.602 788.59 952.802 787.531C954.002 786.472 956.402 786.472 957.602 787.531C958.802 788.59 958.802 790.707 957.602 791.766Z" fill="#4277A9" fill-opacity="0.5"/>
<path opacity="0.96" d="M1011.6 523.884C1010.4 524.943 1009.2 524.943 1008 523.884C1006.8 522.826 1006.8 521.767 1008 520.708C1009.2 519.649 1010.4 519.649 1011.6 520.708C1012.8 521.767 1012.8 522.826 1011.6 523.884Z" fill="#4277A9" fill-opacity="0.5"/>
<path opacity="0.96" d="M1055.99 257.06C1054.79 258.119 1052.39 258.119 1051.19 257.06C1049.99 256.001 1049.99 253.884 1051.19 252.825C1052.39 251.766 1054.79 251.766 1055.99 252.825C1057.19 253.884 1057.19 254.943 1055.99 257.06Z" fill="#4277A9" fill-opacity="0.5"/>
<path opacity="0.96" d="M959.998 793.882C957.598 796 952.798 796 950.398 793.882C947.998 791.765 947.998 787.529 950.398 785.412C952.798 783.294 957.598 783.294 959.998 785.412C962.398 788.588 962.398 791.765 959.998 793.882Z" fill="#4277A9" fill-opacity="0.5"/>
<path opacity="0.96" d="M1016.4 528.119C1012.8 531.295 1006.8 531.295 1003.2 527.06C999.595 523.884 999.595 518.589 1004.4 515.413C1008 512.237 1014 512.236 1017.6 516.472C1020 520.707 1020 524.942 1016.4 528.119Z" fill="#4277A9" fill-opacity="0.5"/>
<path opacity="0.96" d="M959.999 794.943C956.399 798.119 951.599 797.061 947.999 794.943C944.399 791.767 945.599 787.531 947.999 784.355C951.599 781.178 956.399 782.237 959.999 784.355C964.799 787.531 963.599 792.825 959.999 794.943Z" fill="#4277A9" fill-opacity="0.5"/>
<path opacity="0.96" d="M825.598 816.118C824.398 817.177 823.198 817.177 821.998 816.118C820.798 815.059 820.798 814 821.998 812.942C823.198 811.883 824.398 811.883 825.598 812.942C826.798 814 826.798 815.059 825.598 816.118Z" fill="#4277A9" fill-opacity="0.5"/>
<path opacity="0.96" d="M1058.4 258.118C1056 260.235 1052.4 260.235 1050 258.118C1047.6 256 1047.6 252.824 1050 250.706C1052.4 248.588 1056 248.588 1058.4 250.706C1060.8 252.824 1060.8 256 1058.4 258.118Z" fill="#4277A9" fill-opacity="0.5"/>
<path opacity="0.96" d="M826.802 817.178C825.602 818.237 822.002 818.237 820.802 817.178C819.602 816.119 819.602 812.943 820.802 811.884C822.002 810.825 825.602 810.825 826.802 811.884C829.202 814.002 829.202 816.119 826.802 817.178Z" fill="#4277A9" fill-opacity="0.5"/>
<path opacity="0.96" d="M910.798 530.237C909.598 531.296 907.198 531.296 905.998 530.237C904.798 529.178 904.798 527.061 905.998 526.002C907.198 524.943 909.598 524.943 910.798 526.002C911.998 527.061 911.998 529.178 910.798 530.237Z" fill="#4277A9" fill-opacity="0.5"/>
<path opacity="0.96" d="M699.602 674.236C698.402 675.295 696.002 675.295 694.802 674.236C693.602 673.177 693.602 671.059 694.802 670.001C696.002 668.942 698.402 668.942 699.602 670.001C700.802 671.059 700.802 672.118 699.602 674.236Z" fill="#4277A9" fill-opacity="0.5"/>
<path opacity="0.96" d="M537.602 518.589C535.202 520.707 531.602 520.707 529.202 518.589C526.802 516.471 526.802 513.295 529.202 511.177C531.602 509.06 535.202 509.06 537.602 511.177C540.002 513.295 540.002 516.471 537.602 518.589Z" fill="#4277A9" fill-opacity="0.5"/>
<path opacity="0.96" d="M910.798 530.237C909.598 531.296 907.198 531.296 905.998 530.237C904.798 529.178 904.798 527.061 905.998 526.002C907.198 524.943 909.598 524.943 910.798 526.002C911.998 527.061 911.998 529.178 910.798 530.237Z" fill="#4277A9" fill-opacity="0.5"/>
<path opacity="0.96" d="M617.998 361.884C615.598 362.943 613.198 362.943 611.998 361.884C610.798 359.767 610.798 357.649 611.998 356.59C614.398 355.531 616.798 355.531 617.998 356.59C620.398 358.708 620.398 360.826 617.998 361.884Z" fill="#4277A9" fill-opacity="0.5"/>
<path opacity="0.96" d="M617.998 361.884C616.798 362.943 614.398 362.943 611.998 361.884C610.798 360.826 610.798 358.708 611.998 356.59C613.198 355.531 615.598 355.531 617.998 356.59C620.398 358.708 620.398 360.826 617.998 361.884Z" fill="#4277A9" fill-opacity="0.5"/>
<path opacity="0.96" d="M837.595 137.412C835.195 138.471 832.795 138.471 831.595 137.412C830.395 135.294 830.395 133.176 831.595 132.118C833.995 131.059 836.395 131.059 837.595 132.118C839.995 133.176 839.995 135.294 837.595 137.412Z" fill="#4277A9" fill-opacity="0.5"/>
<path opacity="0.96" d="M415.196 754.706C413.996 755.765 412.796 755.765 411.596 754.706C410.396 753.647 410.396 752.588 411.596 751.529C412.796 750.471 413.996 750.471 415.196 751.529C416.396 752.588 416.396 753.647 415.196 754.706Z" fill="#4277A9" fill-opacity="0.5"/>
<path opacity="0.96" d="M368.4 843.649C366 845.767 361.2 845.767 358.8 843.649C356.4 841.531 356.4 837.296 358.8 835.178C361.2 833.061 366 833.061 368.4 835.178C370.8 837.296 370.8 840.473 368.4 843.649Z" fill="#4277A9" fill-opacity="0.5"/>
<path opacity="0.96" d="M418.796 757.882C415.196 760 410.396 760 407.996 757.882C405.596 754.706 405.596 750.471 407.996 748.353C411.596 746.235 416.396 746.235 418.796 748.353C421.196 750.471 421.196 754.706 418.796 757.882Z" fill="#4277A9" fill-opacity="0.5"/>
<path opacity="0.96" d="M365.998 841.529C364.798 842.588 361.198 842.588 359.998 841.529C358.798 840.471 358.798 837.294 359.998 836.235C361.198 835.176 364.798 835.176 365.998 836.235C368.398 837.294 368.398 840.471 365.998 841.529Z" fill="#4277A9" fill-opacity="0.5"/>
<path opacity="0.96" d="M415.2 754.707C414 755.766 411.6 755.766 410.4 754.707C409.2 753.649 409.2 751.531 410.4 750.472C411.6 749.413 414 749.413 415.2 750.472C417.6 751.531 417.6 753.649 415.2 754.707Z" fill="#4277A9" fill-opacity="0.5"/>
<path opacity="0.96" d="M840.002 138.471C837.602 140.588 832.802 140.588 829.202 138.471C826.802 135.294 826.802 132.118 829.202 128.941C832.802 126.824 836.402 126.824 840.002 128.941C843.602 132.118 842.402 136.353 840.002 138.471Z" fill="#4277A9" fill-opacity="0.5"/>
<path opacity="0.96" d="M617.998 361.884C616.798 362.943 613.198 362.943 611.998 361.884C610.798 360.826 610.798 357.649 611.998 356.59C613.198 355.531 616.798 355.531 617.998 356.59C620.398 358.708 620.398 360.826 617.998 361.884Z" fill="#4277A9" fill-opacity="0.5"/>
<path opacity="0.96" d="M454.793 154.353C452.393 156.471 448.793 156.471 447.593 154.353C445.193 152.236 445.193 149.059 447.593 148.001C449.993 145.883 453.593 145.883 454.793 148.001C455.993 150.118 455.993 153.295 454.793 154.353Z" fill="#4277A9" fill-opacity="0.5"/>
<path opacity="0.96" d="M351.603 423.295C348.003 426.472 343.203 425.413 339.603 422.236C336.003 419.06 337.203 414.824 340.803 411.648C344.403 408.471 349.203 409.53 352.803 412.707C355.203 415.883 355.203 420.119 351.603 423.295Z" fill="#4277A9" fill-opacity="0.5"/>
<path opacity="0.96" d="M536.4 517.531C534 518.59 531.6 518.59 530.4 517.531C529.2 515.413 529.2 513.296 530.4 512.237C532.8 511.178 535.2 511.178 536.4 512.237C538.8 514.354 538.8 516.472 536.4 517.531Z" fill="#4277A9" fill-opacity="0.5"/>
<path opacity="0.96" d="M367.203 842.59C364.803 844.708 361.203 843.649 360.003 842.59C357.603 840.472 358.803 837.296 360.003 836.237C362.403 834.12 366.003 835.178 367.203 836.237C369.603 837.296 368.403 840.472 367.203 842.59Z" fill="#4277A9" fill-opacity="0.5"/>
<path opacity="0.96" d="M616.794 360.824C615.594 361.883 614.394 361.883 613.194 360.824C611.994 359.765 611.994 358.706 613.194 357.648C614.394 356.589 615.594 356.589 616.794 357.648C617.994 358.706 617.994 359.765 616.794 360.824Z" fill="#4277A9" fill-opacity="0.5"/>
</g>
<path d="M1440 809.766L1287.6 792.825L1039.2 602.237L1440 787.531L1036.8 600.119L1035.6 601.178L1287.6 792.825L1440 809.766Z" fill="#4277A9" fill-opacity="0.5"/>
<path d="M1440 809.765L1287.6 792.823L1286.4 791.765L1287.6 850H1288.8L1287.6 792.823L1440 809.765Z" fill="#4277A9" fill-opacity="0.5"/>
<path d="M1287.6 792.825L1131.6 728.237L1036.8 600.119H1038L1287.6 792.825ZM1131.6 727.178L1284 790.707L1038 602.237L1131.6 727.178Z" fill="#4277A9" fill-opacity="0.5"/>
<path d="M1108.8 850L1090.8 835.176L1287.6 792.823V850H1288.8L1287.6 792.823V791.765L1088.4 835.176L1106.4 850H1108.8Z" fill="#4277A9" fill-opacity="0.5"/>
<path d="M1086 850L1089.6 836.235L1106.4 850H1108.8L1089.6 834.118L1084.8 850H1086Z" fill="#4277A9" fill-opacity="0.5"/>
<path d="M1088.4 835.178L1130.4 727.178L1287.6 792.825H1286.4L1088.4 835.178ZM1131.6 728.237L1089.6 834.119L1285.2 792.825L1131.6 728.237Z" fill="#4277A9" fill-opacity="0.5"/>
<path d="M948.002 850L915.602 808.706L1089.6 835.176L1084.8 850H1086L1089.6 835.176V834.118L914.402 808.706V807.647L946.802 850H948.002Z" fill="#4277A9" fill-opacity="0.5"/>
<path d="M896.402 850L914.402 809.765L946.802 850L915.602 808.706L914.402 807.647L896.402 850Z" fill="#4277A9" fill-opacity="0.5"/>
<path d="M1089.6 835.178L913.196 808.707L1132.8 727.178L1089.6 835.178ZM916.796 808.707L1089.6 835.178L1131.6 729.296L916.796 808.707Z" fill="#4277A9" fill-opacity="0.5"/>
<path d="M914.402 809.766L1036.8 600.119V601.178L1132.8 729.296L914.402 809.766ZM1036.8 601.178L915.602 807.648L1130.4 727.178L1036.8 601.178Z" fill="#4277A9" fill-opacity="0.5"/>
<path d="M624.004 850.001L638.404 709.177L913.204 808.707L818.404 850.001H820.804L915.604 808.707L638.404 709.177L637.204 708.118L622.804 850.001H624.004Z" fill="#4277A9" fill-opacity="0.5"/>
<path d="M915.596 809.764L637.196 709.176L799.196 539.764L915.596 809.764ZM638.396 709.176L914.396 807.647L800.396 540.823L638.396 709.176Z" fill="#4277A9" fill-opacity="0.5"/>
<path d="M820.802 850L914.402 809.765L896.402 850L915.602 808.706V807.647L818.402 850H820.802Z" fill="#4277A9" fill-opacity="0.5"/>
<path d="M637.196 710.237V709.178L651.596 478.354H652.796L800.396 540.825L637.196 710.237ZM652.796 479.413L638.396 708.119L799.196 540.825L652.796 479.413Z" fill="#4277A9" fill-opacity="0.5"/>
<path d="M392.395 849.999L550.795 720.823L587.995 849.999L551.995 719.764L391.195 849.999H392.395Z" fill="#4277A9" fill-opacity="0.5"/>
<path d="M588.004 850.001L552.004 720.824L637.204 709.177L622.804 850.001H624.004L638.404 708.118L552.004 719.766H550.804L588.004 850.001Z" fill="#4277A9" fill-opacity="0.5"/>
<path d="M550.804 720.825L652.804 478.354H654.004L639.604 709.178L550.804 720.825ZM651.604 480.472L552.004 719.766L637.204 708.119L651.604 480.472Z" fill="#4277A9" fill-opacity="0.5"/>
<path d="M377.998 849.999L233.998 733.529L550.798 720.823L391.198 849.999H392.398L551.998 720.823L553.198 719.764L232.798 733.529H231.598L376.798 849.999H377.998Z" fill="#4277A9" fill-opacity="0.5"/>
<path d="M231.598 733.53L289.198 595.882L553.198 720.824H551.998L231.598 733.53ZM289.198 596.941L232.798 733.53L549.598 720.824L289.198 596.941Z" fill="#4277A9" fill-opacity="0.5"/>
<path d="M552 720.824L288 595.882L456 389.412L552 720.824ZM289.2 595.882L550.8 719.765L456 391.529L289.2 595.882Z" fill="#4277A9" fill-opacity="0.5"/>
<path d="M187.2 850.001L232.8 734.59L376.8 850.001H378L232.8 733.531L231.6 732.472L186 850.001H187.2Z" fill="#4277A9" fill-opacity="0.5"/>
<path d="M3.60216 850.001L231.602 734.59L186.002 850.001H187.202L232.802 732.472L2.40216 850.001H3.60216Z" fill="#4277A9" fill-opacity="0.5"/>
<path d="M289.196 596.942L193.196 353.413L457.196 390.472L289.196 596.942ZM194.396 354.472L289.196 595.883L455.996 390.472L194.396 354.472Z" fill="#4277A9" fill-opacity="0.5"/>
<path d="M289.204 595.882L130.804 429.647L194.404 352.353V353.412L289.204 595.882ZM132.004 429.647L288.004 593.765L194.404 354.471L132.004 429.647Z" fill="#4277A9" fill-opacity="0.5"/>
<path d="M64.8 662.589L0 785.412V786.471L64.8 663.648L231.6 733.53L2.4 850H3.6L232.8 733.53L64.8 662.589Z" fill="#4277A9" fill-opacity="0.5"/>
<path d="M232.798 734.588L63.5977 662.588L290.398 595.882V596.941L232.798 734.588ZM65.9977 662.588L231.598 733.529L287.998 596.941L65.9977 662.588Z" fill="#4277A9" fill-opacity="0.5"/>
<path d="M64.8043 663.647L132.004 428.588V429.646L290.404 595.882H289.204L64.8043 663.647ZM132.004 430.705L66.0043 662.588L288.004 595.882L132.004 430.705Z" fill="#4277A9" fill-opacity="0.5"/>
<path d="M1440 46.3534L1292.4 140.589L799.198 155.412L1440 0.824036L795.598 155.412V156.471L1292.4 140.589H1293.6L1440 47.4123V46.3534Z" fill="#4277A9" fill-opacity="0.5"/>
<path d="M1440 274.001L1293.6 140.589L1440 47.4127V46.3539L1292.4 140.589L1440 275.06V274.001Z" fill="#4277A9" fill-opacity="0.5"/>
<path d="M1047.6 210.472L795.598 156.472V155.413L1293.6 139.531V140.59L1047.6 210.472ZM799.198 156.472L1047.6 209.413L1290 140.59L799.198 156.472Z" fill="#4277A9" fill-opacity="0.5"/>
<path d="M1440 663.647L1244.4 560.941L1440 433.882L1243.2 560.941L1440 664.705V663.647Z" fill="#4277A9" fill-opacity="0.5"/>
<path d="M1440 367.178L1125.6 365.06L1292.4 141.649L1440 275.06V274.001L1293.6 140.59L1292.4 139.531L1124.4 365.06L1440 367.178Z" fill="#4277A9" fill-opacity="0.5"/>
<path d="M1440 433.882L1243.2 560.941L1125.6 365.058L1440 367.176L1125.6 365.058H1124.4L1243.2 560.941V562L1440 433.882Z" fill="#4277A9" fill-opacity="0.5"/>
<path d="M1440 708.118L1314 850.001H1315.2L1440 710.236V708.118Z" fill="#4277A9" fill-opacity="0.5"/>
<path d="M1124.4 366.118L1046.4 210.471L1293.6 140.588L1292.4 141.647L1124.4 366.118ZM1047.6 210.471L1124.4 364L1291.2 141.647L1047.6 210.471Z" fill="#4277A9" fill-opacity="0.5"/>
<path d="M1440 664.705V663.647L1244.4 560.941H1243.2L1309.2 849.999H1310.4L1244.4 561.999L1440 664.705Z" fill="#4277A9" fill-opacity="0.5"/>
<path d="M1440 708.116L1314 849.999H1315.2L1440 710.234V708.116Z" fill="#4277A9" fill-opacity="0.5"/>
<path d="M1290 850.001L1041.6 802.354L1243.2 562.001L1309.2 850.001H1310.4L1244.4 560.942V559.883L1040.4 802.354V803.413L1285.2 850.001H1290Z" fill="#4277A9" fill-opacity="0.5"/>
<path d="M1244.4 562L901.196 494.235H902.396L1124.4 365.058L1244.4 562ZM903.596 493.176L1242 560.941L1124.4 366.117L903.596 493.176Z" fill="#4277A9" fill-opacity="0.5"/>
<path d="M1040.4 803.412L902.402 493.177H903.602L1244.4 560.942L1040.4 803.412ZM903.602 494.236L1041.6 802.354L1243.2 562.001L903.602 494.236Z" fill="#4277A9" fill-opacity="0.5"/>
<path d="M1040.4 850L1041.6 803.412L1285.2 850H1290L1041.6 802.353H1040.4L1039.2 850H1040.4Z" fill="#4277A9" fill-opacity="0.5"/>
<path d="M902.402 494.235L903.602 493.176L1048.8 209.412L1126.8 365.059L902.402 494.235ZM1047.6 211.529L903.602 492.118L1124.4 365.059L1047.6 211.529Z" fill="#4277A9" fill-opacity="0.5"/>
<path d="M902.402 494.237V493.178L794.402 155.413L1047.6 209.413L902.402 494.237ZM795.602 156.472L902.402 492.119L1046.4 210.472L795.602 156.472Z" fill="#4277A9" fill-opacity="0.5"/>
<path d="M674.398 850L485.998 634L902.398 494.236L748.798 850H749.998L903.598 493.177L484.798 632.942H483.598L673.198 850H674.398Z" fill="#4277A9" fill-opacity="0.5"/>
<path d="M484.804 634L466.804 302.589H468.004L906.004 493.177L484.804 634ZM466.804 303.648L484.804 632.942L901.204 493.177L466.804 303.648Z" fill="#4277A9" fill-opacity="0.5"/>
<path d="M750.004 849.999L903.604 494.235L1040.4 802.352L898.804 849.999H901.204L1041.6 803.411L902.404 492.117L748.804 849.999H750.004Z" fill="#4277A9" fill-opacity="0.5"/>
<path d="M901.204 850L1040.4 803.412L1039.2 850H1040.4L1041.6 802.353L898.804 850H901.204Z" fill="#4277A9" fill-opacity="0.5"/>
<path d="M484.805 635.059L232.805 367.177H234.005L466.805 302.589L484.805 635.059ZM235.205 368.236L484.805 632.942L466.805 303.648L235.205 368.236Z" fill="#4277A9" fill-opacity="0.5"/>
<path d="M392.395 850L403.195 725.059L621.595 850H623.995L403.195 724V722.941L391.195 850H392.395Z" fill="#4277A9" fill-opacity="0.5"/>
<path d="M623.996 850L404.395 724L484.796 634L673.196 850H674.396L484.796 632.941L403.195 724L621.596 850H623.996Z" fill="#4277A9" fill-opacity="0.5"/>
<path d="M403.2 725.059L234 368.235H235.2L486 635.059L403.2 725.059ZM235.2 370.353L403.2 724L483.6 634L235.2 370.353Z" fill="#4277A9" fill-opacity="0.5"/>
<path d="M264.004 850L403.204 725.059L391.204 850H392.404L403.204 724L404.404 722.941L262.804 850H264.004Z" fill="#4277A9" fill-opacity="0.5"/>
<path d="M0 817.176V818.235L402 725.059L262.8 850H264L403.2 724L404.4 722.941L0 817.176Z" fill="#4277A9" fill-opacity="0.5"/>
<path d="M0 494.237V495.296L402 724.002L0 817.178V818.237L403.2 724.002H404.4L0 494.237Z" fill="#4277A9" fill-opacity="0.5"/>
<path d="M1291.2 792.823C1291.2 794.941 1288.8 797.058 1286.4 797.058C1284 797.058 1281.6 794.941 1281.6 792.823C1281.6 790.705 1284 788.588 1286.4 788.588C1290 788.588 1291.2 790.705 1291.2 792.823Z" fill="#4277A9" fill-opacity="0.5"/>
<path d="M1036.8 606.471C1040.77 606.471 1044 603.627 1044 600.118C1044 596.61 1040.77 593.765 1036.8 593.765C1032.82 593.765 1029.6 596.61 1029.6 600.118C1029.6 603.627 1032.82 606.471 1036.8 606.471Z" fill="#4277A9" fill-opacity="0.5"/>
<path d="M1297.2 792.824C1297.2 797.059 1293.6 801.294 1287.6 801.294C1282.8 801.294 1278 798.118 1278 792.824C1278 788.589 1281.6 784.353 1287.6 784.353C1292.4 784.353 1297.2 788.589 1297.2 792.824Z" fill="#4277A9" fill-opacity="0.5"/>
<path d="M1297.2 792.824C1297.2 797.059 1292.4 801.294 1287.6 801.294C1282.8 801.294 1278 797.059 1278 792.824C1278 788.589 1282.8 784.353 1287.6 784.353C1292.4 784.353 1297.2 787.53 1297.2 792.824Z" fill="#4277A9" fill-opacity="0.5"/>
<path d="M1138.8 728.234C1138.8 731.411 1135.2 734.587 1131.6 734.587C1128 734.587 1124.4 731.411 1124.4 728.234C1124.4 725.058 1128 721.881 1131.6 721.881C1135.2 721.881 1138.8 725.058 1138.8 728.234Z" fill="#4277A9" fill-opacity="0.5"/>
<path d="M1041.6 600.118C1041.6 602.235 1039.2 604.353 1036.8 604.353C1034.4 604.353 1032 602.235 1032 600.118C1032 598 1034.4 595.882 1036.8 595.882C1039.2 595.882 1041.6 598 1041.6 600.118Z" fill="#4277A9" fill-opacity="0.5"/>
<path d="M1093.2 835.177C1093.2 837.295 1092 838.353 1089.6 838.353C1087.2 838.353 1086 837.295 1086 835.177C1086 833.059 1087.2 832 1089.6 832C1092 832 1093.2 833.059 1093.2 835.177Z" fill="#4277A9" fill-opacity="0.5"/>
<path d="M1294.8 792.824C1294.8 796 1291.2 799.177 1287.6 799.177C1284 799.177 1280.4 796 1280.4 792.824C1280.4 789.647 1284 786.471 1287.6 786.471C1291.2 786.471 1294.8 789.647 1294.8 792.824Z" fill="#4277A9" fill-opacity="0.5"/>
<path d="M1102.8 835.176C1102.8 841.529 1096.8 846.823 1089.6 846.823C1082.4 846.823 1076.4 841.529 1076.4 835.176C1076.4 828.823 1082.4 823.529 1089.6 823.529C1096.8 823.529 1102.8 828.823 1102.8 835.176Z" fill="#4277A9" fill-opacity="0.5"/>
<path d="M1296 792.824C1296 797.059 1292.4 801.294 1286.4 801.294C1281.6 801.294 1276.8 798.118 1276.8 792.824C1276.8 788.589 1280.4 784.353 1286.4 784.353C1292.4 784.353 1296 788.589 1296 792.824Z" fill="#4277A9" fill-opacity="0.5"/>
<path d="M1096.8 835.176C1096.8 838.353 1093.2 841.529 1089.6 841.529C1086 841.529 1082.4 838.353 1082.4 835.176C1082.4 832 1086 828.824 1089.6 828.824C1093.2 828.824 1096.8 830.941 1096.8 835.176Z" fill="#4277A9" fill-opacity="0.5"/>
<path d="M1140 728.236C1140 732.471 1136.4 735.647 1131.6 735.647C1126.8 735.647 1123.2 732.471 1123.2 728.236C1123.2 724 1126.8 720.824 1131.6 720.824C1136.4 720.824 1140 724 1140 728.236Z" fill="#4277A9" fill-opacity="0.5"/>
<path d="M928.802 808.706C928.802 815.059 922.802 820.353 915.602 820.353C908.402 820.353 902.402 815.059 902.402 808.706C902.402 802.353 908.402 797.059 915.602 797.059C922.802 797.059 928.802 802.353 928.802 808.706Z" fill="#4277A9" fill-opacity="0.5"/>
<path d="M1098 835.175C1098 839.411 1094.4 842.587 1089.6 842.587C1084.8 842.587 1081.2 839.411 1081.2 835.175C1081.2 830.94 1084.8 827.764 1089.6 827.764C1094.4 827.764 1098 830.94 1098 835.175Z" fill="#4277A9" fill-opacity="0.5"/>
<path d="M922.802 808.706C922.802 811.882 919.202 815.059 915.602 815.059C912.002 815.059 908.402 811.882 908.402 808.706C908.402 805.529 912.002 802.353 915.602 802.353C919.202 802.353 922.802 804.47 922.802 808.706Z" fill="#4277A9" fill-opacity="0.5"/>
<path d="M1100.4 835.176C1100.4 840.47 1095.6 844.705 1089.6 844.705C1083.6 844.705 1078.8 840.47 1078.8 835.176C1078.8 829.882 1083.6 825.646 1089.6 825.646C1095.6 825.646 1100.4 829.882 1100.4 835.176Z" fill="#4277A9" fill-opacity="0.5"/>
<path d="M922.8 808.705C922.8 812.94 919.2 816.117 914.4 816.117C909.6 816.117 906 812.94 906 808.705C906 804.47 909.6 801.293 914.4 801.293C919.2 801.293 922.8 804.47 922.8 808.705Z" fill="#4277A9" fill-opacity="0.5"/>
<path d="M1134 728.235C1134 729.294 1132.8 730.353 1131.6 730.353C1130.4 730.353 1129.2 729.294 1129.2 728.235C1129.2 727.176 1130.4 726.117 1131.6 726.117C1132.8 725.058 1134 726.117 1134 728.235Z" fill="#4277A9" fill-opacity="0.5"/>
<path d="M1135.2 728.235C1135.2 730.353 1134 731.411 1131.6 731.411C1129.2 731.411 1128 730.353 1128 728.235C1128 726.117 1129.2 725.058 1131.6 725.058C1134 725.058 1135.2 726.117 1135.2 728.235Z" fill="#4277A9" fill-opacity="0.5"/>
<path d="M914.402 813.999C917.716 813.999 920.402 811.628 920.402 808.704C920.402 805.78 917.716 803.41 914.402 803.41C911.088 803.41 908.402 805.78 908.402 808.704C908.402 811.628 911.088 813.999 914.402 813.999Z" fill="#4277A9" fill-opacity="0.5"/>
<path d="M1041.6 600.117C1041.6 603.293 1039.2 605.411 1035.6 605.411C1032 605.411 1029.6 603.293 1029.6 600.117C1029.6 596.94 1032 594.823 1035.6 594.823C1039.2 594.823 1041.6 597.999 1041.6 600.117Z" fill="#4277A9" fill-opacity="0.5"/>
<path d="M920.402 808.704C920.402 811.881 918.002 813.999 914.402 813.999C910.802 813.999 908.402 811.881 908.402 808.704C908.402 805.528 910.802 803.41 914.402 803.41C918.002 803.41 920.402 805.528 920.402 808.704Z" fill="#4277A9" fill-opacity="0.5"/>
<path d="M642.004 709.175C642.004 711.293 639.604 712.352 638.404 712.352C636.004 712.352 634.804 710.234 634.804 709.175C634.804 708.117 637.204 705.999 638.404 705.999C640.804 704.94 642.004 707.058 642.004 709.175Z" fill="#4277A9" fill-opacity="0.5"/>
<path d="M919.197 808.705C919.197 810.823 916.797 812.941 914.397 812.941C911.997 812.941 909.597 810.823 909.597 808.705C909.597 806.588 911.997 804.47 914.397 804.47C916.797 804.47 919.197 806.588 919.197 808.705Z" fill="#4277A9" fill-opacity="0.5"/>
<path d="M638.402 714.47C641.716 714.47 644.402 712.1 644.402 709.176C644.402 706.252 641.716 703.882 638.402 703.882C635.088 703.882 632.402 706.252 632.402 709.176C632.402 712.1 635.088 714.47 638.402 714.47Z" fill="#4277A9" fill-opacity="0.5"/>
<path d="M805.198 539.765C805.198 541.883 802.798 544 800.398 544C797.998 544 795.598 541.883 795.598 539.765C795.598 537.648 797.998 535.53 800.398 535.53C802.798 535.53 805.198 537.648 805.198 539.765Z" fill="#4277A9" fill-opacity="0.5"/>
<path d="M919.2 808.706C919.2 810.824 916.8 811.883 915.6 811.883C913.2 811.883 912 809.765 912 808.706C912 806.589 914.4 805.53 915.6 805.53C916.8 804.471 919.2 806.589 919.2 808.706Z" fill="#4277A9" fill-opacity="0.5"/>
<path d="M810.002 539.765C810.002 545.059 805.202 549.295 799.202 549.295C793.202 549.295 788.402 545.059 788.402 539.765C788.402 534.471 793.202 530.236 799.202 530.236C805.202 530.236 810.002 534.471 810.002 539.765Z" fill="#4277A9" fill-opacity="0.5"/>
<path d="M642.004 709.175C642.004 711.293 640.804 712.352 638.404 712.352C636.004 712.352 634.804 711.293 634.804 709.175C634.804 707.058 636.004 705.999 638.404 705.999C639.604 705.999 642.004 707.058 642.004 709.175Z" fill="#4277A9" fill-opacity="0.5"/>
<path d="M656.395 478.352C656.395 480.469 655.195 481.528 652.795 481.528C650.395 481.528 649.195 480.469 649.195 478.352C649.195 476.234 650.395 475.175 652.795 475.175C655.195 475.175 656.395 476.234 656.395 478.352Z" fill="#4277A9" fill-opacity="0.5"/>
<path d="M561.602 720.824C561.602 726.118 556.802 729.294 552.002 729.294C546.002 729.294 542.402 725.059 542.402 720.824C542.402 715.53 547.202 712.353 552.002 712.353C556.802 711.295 561.602 715.53 561.602 720.824Z" fill="#4277A9" fill-opacity="0.5"/>
<path d="M564 720.824C564 727.177 559.2 731.412 552 731.412C544.8 731.412 540 727.177 540 720.824C540 714.471 544.8 710.236 552 710.236C558 710.236 564 714.471 564 720.824Z" fill="#4277A9" fill-opacity="0.5"/>
<path d="M645.595 709.175C645.595 712.351 641.995 715.528 638.395 715.528C634.795 715.528 631.195 712.351 631.195 709.175C631.195 705.998 634.795 702.822 638.395 702.822C641.995 702.822 645.595 704.94 645.595 709.175Z" fill="#4277A9" fill-opacity="0.5"/>
<path d="M643.197 709.177C643.197 711.295 640.797 713.412 638.397 713.412C635.997 713.412 633.597 711.295 633.597 709.177C633.597 707.059 635.997 704.942 638.397 704.942C640.797 704.942 643.197 707.059 643.197 709.177Z" fill="#4277A9" fill-opacity="0.5"/>
<path d="M560.397 720.822C560.397 725.057 556.797 728.234 551.997 728.234C547.197 728.234 543.597 725.057 543.597 720.822C543.597 716.587 547.197 713.41 551.997 713.41C555.597 713.41 560.397 716.587 560.397 720.822Z" fill="#4277A9" fill-opacity="0.5"/>
<path d="M659.997 478.353C659.997 481.53 656.398 484.706 652.798 484.706C649.198 484.706 645.597 481.53 645.597 478.353C645.597 475.177 649.198 472.001 652.798 472.001C656.398 472.001 659.997 474.118 659.997 478.353Z" fill="#4277A9" fill-opacity="0.5"/>
<path d="M562.795 720.823C562.795 726.117 557.995 730.352 551.995 730.352C545.995 730.352 541.195 726.117 541.195 720.823C541.195 715.528 545.995 711.293 551.995 711.293C557.995 711.293 562.795 715.528 562.795 720.823Z" fill="#4277A9" fill-opacity="0.5"/>
<path d="M241.2 733.529C241.2 737.764 237.6 742 231.6 742C226.8 742 222 738.823 222 733.529C222 729.294 225.6 725.058 231.6 725.058C237.6 725.058 241.2 729.294 241.2 733.529Z" fill="#4277A9" fill-opacity="0.5"/>
<path d="M558 720.822C558 723.999 555.6 726.117 552 726.117C548.4 726.117 546 723.999 546 720.822C546 717.646 548.4 715.528 552 715.528C555.6 714.469 558 717.646 558 720.822Z" fill="#4277A9" fill-opacity="0.5"/>
<path d="M236.404 733.528C236.404 735.646 234.004 737.763 231.604 737.763C229.204 737.763 226.804 735.646 226.804 733.528C226.804 731.41 229.204 729.293 231.604 729.293C235.204 729.293 236.404 731.41 236.404 733.528Z" fill="#4277A9" fill-opacity="0.5"/>
<path d="M292.797 595.882C292.797 598 291.597 599.058 289.197 599.058C286.797 599.058 285.597 596.941 285.597 595.882C285.597 593.764 287.997 592.705 289.197 592.705C291.597 592.705 292.797 593.764 292.797 595.882Z" fill="#4277A9" fill-opacity="0.5"/>
<path d="M564 720.823C564 727.176 558 731.411 552 731.411C544.8 731.411 540 726.117 540 720.823C540 714.47 546 710.234 552 710.234C558 709.176 564 714.47 564 720.823Z" fill="#4277A9" fill-opacity="0.5"/>
<path d="M291.604 595.883C291.604 596.942 290.404 598 289.204 598C288.004 598 286.804 596.942 286.804 595.883C286.804 594.824 288.004 593.765 289.204 593.765C290.404 593.765 291.604 594.824 291.604 595.883Z" fill="#4277A9" fill-opacity="0.5"/>
<path d="M462.002 390.469C462.002 392.587 459.602 394.704 457.202 394.704C454.802 394.704 452.402 392.587 452.402 390.469C452.402 388.351 454.802 386.234 457.202 386.234C459.602 385.175 462.002 387.293 462.002 390.469Z" fill="#4277A9" fill-opacity="0.5"/>
<path d="M388.802 849.999C387.602 848.94 386.402 848.94 385.202 848.94C384.002 848.94 382.802 848.94 380.402 849.999H388.802Z" fill="#4277A9" fill-opacity="0.5"/>
<path d="M388.798 849.999C387.598 848.94 386.398 848.94 385.198 848.94C383.998 848.94 382.798 848.94 381.598 849.999H388.798Z" fill="#4277A9" fill-opacity="0.5"/>
<path d="M239.998 733.528C239.998 737.764 236.398 739.881 232.798 739.881C227.998 739.881 225.598 736.705 225.598 733.528C225.598 729.293 229.198 727.176 232.798 727.176C236.398 727.176 239.998 730.352 239.998 733.528Z" fill="#4277A9" fill-opacity="0.5"/>
<path d="M236.395 733.529C236.395 735.647 235.195 736.706 232.795 736.706C230.395 736.706 229.195 735.647 229.195 733.529C229.195 731.411 230.395 730.352 232.795 730.352C233.995 730.352 236.395 731.411 236.395 733.529Z" fill="#4277A9" fill-opacity="0.5"/>
<path d="M464.4 390.471C464.4 393.647 460.8 396.824 457.2 396.824C453.6 396.824 450 393.647 450 390.471C450 387.294 453.6 384.118 457.2 384.118C460.8 384.118 464.4 387.294 464.4 390.471Z" fill="#4277A9" fill-opacity="0.5"/>
<path d="M295.195 595.882C295.195 599.059 292.795 601.177 289.195 601.177C285.595 601.177 283.195 599.059 283.195 595.882C283.195 592.706 285.595 590.588 289.195 590.588C292.795 590.588 295.195 592.706 295.195 595.882Z" fill="#4277A9" fill-opacity="0.5"/>
<path d="M199.197 353.411C199.197 355.529 196.797 357.647 194.397 357.647C191.997 357.647 189.597 355.529 189.597 353.411C189.597 351.294 191.997 349.176 194.397 349.176C196.797 349.176 199.197 351.294 199.197 353.411Z" fill="#4277A9" fill-opacity="0.5"/>
<path d="M292.797 595.882C292.797 598 290.397 599.058 289.197 599.058C286.797 599.058 285.597 596.941 285.597 595.882C285.597 593.764 287.997 592.705 289.197 592.705C291.597 592.705 292.797 593.764 292.797 595.882Z" fill="#4277A9" fill-opacity="0.5"/>
<path d="M139.204 429.647C139.204 432.823 135.604 435.999 132.004 435.999C128.404 435.999 124.804 432.823 124.804 429.647C124.804 426.47 128.404 423.294 132.004 423.294C135.604 423.294 139.204 426.47 139.204 429.647Z" fill="#4277A9" fill-opacity="0.5"/>
<path d="M199.195 353.41C199.195 356.587 196.795 358.704 193.195 358.704C189.595 358.704 187.195 356.587 187.195 353.41C187.195 350.234 189.595 348.116 193.195 348.116C196.795 348.116 199.195 351.293 199.195 353.41Z" fill="#4277A9" fill-opacity="0.5"/>
<path d="M237.6 733.528C237.6 735.646 235.2 737.763 232.8 737.763C230.4 737.763 228 735.646 228 733.528C228 731.41 230.4 729.293 232.8 729.293C235.2 729.293 237.6 731.41 237.6 733.528Z" fill="#4277A9" fill-opacity="0.5"/>
<path d="M74.3955 662.588C74.3955 666.824 69.5955 671.059 64.7955 671.059C59.9955 671.059 55.1955 666.824 55.1955 662.588C55.1955 658.353 59.9955 654.118 64.7955 654.118C69.5955 654.118 74.3955 658.353 74.3955 662.588Z" fill="#4277A9" fill-opacity="0.5"/>
<path d="M241.202 733.53C241.202 737.765 237.602 740.942 232.802 740.942C228.002 740.942 224.402 737.765 224.402 733.53C224.402 729.295 228.002 726.118 232.802 726.118C237.602 726.118 241.202 729.295 241.202 733.53Z" fill="#4277A9" fill-opacity="0.5"/>
<path d="M71.9998 662.589C71.9998 665.765 69.5998 667.883 65.9998 667.883C62.3998 667.883 59.9998 665.765 59.9998 662.589C59.9998 659.412 62.3998 657.295 65.9998 657.295C68.3998 657.295 71.9998 659.412 71.9998 662.589Z" fill="#4277A9" fill-opacity="0.5"/>
<path d="M294.002 595.881C294.002 597.999 291.602 600.116 289.202 600.116C286.802 600.116 284.402 597.999 284.402 595.881C284.402 593.763 286.802 591.646 289.202 591.646C291.602 591.646 294.002 593.763 294.002 595.881Z" fill="#4277A9" fill-opacity="0.5"/>
<path d="M289.2 602.234C293.176 602.234 296.4 599.39 296.4 595.881C296.4 592.373 293.176 589.528 289.2 589.528C285.223 589.528 282 592.373 282 595.881C282 599.39 285.223 602.234 289.2 602.234Z" fill="#4277A9" fill-opacity="0.5"/>
<path d="M75.5998 662.587C75.5998 667.881 70.7998 672.117 64.7998 672.117C58.7998 672.117 53.9998 667.881 53.9998 662.587C53.9998 657.293 58.7998 653.058 64.7998 653.058C70.7998 653.058 75.5998 657.293 75.5998 662.587Z" fill="#4277A9" fill-opacity="0.5"/>
<path d="M136.795 429.646C136.795 431.764 134.395 433.881 131.995 433.881C129.595 433.881 127.195 431.764 127.195 429.646C127.195 427.528 129.595 425.411 131.995 425.411C134.395 425.411 136.795 427.528 136.795 429.646Z" fill="#4277A9" fill-opacity="0.5"/>
<path d="M1299.6 140.587C1299.6 143.764 1296 146.94 1292.4 146.94C1288.8 146.94 1285.2 143.764 1285.2 140.587C1285.2 137.411 1288.8 134.234 1292.4 134.234C1297.2 134.234 1299.6 137.411 1299.6 140.587Z" fill="#4277A9" fill-opacity="0.5"/>
<path d="M795.602 162.823C799.579 162.823 802.802 159.978 802.802 156.47C802.802 152.961 799.579 150.117 795.602 150.117C791.626 150.117 788.402 152.961 788.402 156.47C788.402 159.978 791.626 162.823 795.602 162.823Z" fill="#4277A9" fill-opacity="0.5"/>
<path d="M1300.8 140.587C1300.8 144.823 1297.2 146.94 1293.6 146.94C1288.8 146.94 1286.4 143.764 1286.4 140.587C1286.4 137.411 1290 134.234 1293.6 134.234C1297.2 134.234 1300.8 136.352 1300.8 140.587Z" fill="#4277A9" fill-opacity="0.5"/>
<path d="M1298.4 140.588C1298.4 143.765 1296 145.882 1292.4 145.882C1288.8 145.882 1286.4 143.765 1286.4 140.588C1286.4 137.412 1288.8 135.294 1292.4 135.294C1296 135.294 1298.4 137.412 1298.4 140.588Z" fill="#4277A9" fill-opacity="0.5"/>
<path d="M1054.8 210.47C1054.8 214.705 1051.2 217.881 1046.4 217.881C1041.6 217.881 1038 214.705 1038 210.47C1038 206.234 1041.6 203.058 1046.4 203.058C1051.2 203.058 1054.8 206.234 1054.8 210.47Z" fill="#4277A9" fill-opacity="0.5"/>
<path d="M802.802 156.471C802.802 160.706 799.202 162.823 795.602 162.823C790.802 162.823 788.402 159.647 788.402 156.471C788.402 152.235 792.002 150.118 795.602 150.118C799.202 149.059 802.802 152.235 802.802 156.471Z" fill="#4277A9" fill-opacity="0.5"/>
<path d="M1250.4 560.94C1250.4 564.116 1246.8 567.293 1243.2 567.293C1239.6 567.293 1236 564.116 1236 560.94C1236 557.763 1239.6 554.587 1243.2 554.587C1248 555.646 1250.4 557.763 1250.4 560.94Z" fill="#4277A9" fill-opacity="0.5"/>
<path d="M1128 365.058C1128 366.117 1126.8 368.234 1124.4 368.234C1123.2 368.234 1120.8 367.176 1120.8 365.058C1120.8 363.999 1122 361.881 1124.4 361.881C1126.8 361.881 1128 362.94 1128 365.058Z" fill="#4277A9" fill-opacity="0.5"/>
<path d="M1292.4 146.94C1296.37 146.94 1299.6 144.096 1299.6 140.587C1299.6 137.079 1296.37 134.234 1292.4 134.234C1288.42 134.234 1285.2 137.079 1285.2 140.587C1285.2 144.096 1288.42 146.94 1292.4 146.94Z" fill="#4277A9" fill-opacity="0.5"/>
<path d="M1250.4 560.94C1250.4 564.116 1246.8 567.293 1243.2 567.293C1239.6 567.293 1236 564.116 1236 560.94C1236 557.763 1239.6 554.587 1243.2 554.587C1248 554.587 1250.4 557.763 1250.4 560.94Z" fill="#4277A9" fill-opacity="0.5"/>
<path d="M1129.2 365.058C1129.2 367.175 1126.8 368.234 1125.6 368.234C1123.2 368.234 1122 366.117 1122 365.058C1122 362.94 1124.4 361.881 1125.6 361.881C1126.8 360.822 1129.2 362.94 1129.2 365.058Z" fill="#4277A9" fill-opacity="0.5"/>
<path d="M1302 140.588C1302 144.823 1298.4 149.058 1292.4 149.058C1287.6 149.058 1282.8 145.882 1282.8 140.588C1282.8 136.352 1286.4 132.117 1292.4 132.117C1298.4 132.117 1302 136.352 1302 140.588Z" fill="#4277A9" fill-opacity="0.5"/>
<path d="M1136.4 365.058C1136.4 370.352 1131.6 375.647 1124.4 375.647C1118.4 375.647 1112.4 371.411 1112.4 365.058C1112.4 359.764 1117.2 354.47 1124.4 354.47C1131.6 354.47 1136.4 359.764 1136.4 365.058Z" fill="#4277A9" fill-opacity="0.5"/>
<path d="M1050 210.471C1050 211.53 1048.8 212.589 1047.6 212.589C1046.4 212.589 1045.2 211.53 1045.2 210.471C1045.2 209.412 1046.4 208.354 1047.6 208.354C1048.8 207.295 1050 208.354 1050 210.471Z" fill="#4277A9" fill-opacity="0.5"/>
<path d="M1250.4 560.94C1250.4 564.116 1246.8 567.293 1243.2 567.293C1239.6 567.293 1236 564.116 1236 560.94C1236 557.763 1239.6 554.587 1243.2 554.587C1248 554.587 1250.4 557.763 1250.4 560.94Z" fill="#4277A9" fill-opacity="0.5"/>
<path d="M1243.2 568.353C1247.84 568.353 1251.6 565.035 1251.6 560.941C1251.6 556.848 1247.84 553.529 1243.2 553.529C1238.56 553.529 1234.8 556.848 1234.8 560.941C1234.8 565.035 1238.56 568.353 1243.2 568.353Z" fill="#4277A9" fill-opacity="0.5"/>
<path d="M1316.4 850.001C1315.2 848.942 1312.8 847.883 1310.4 847.883C1308 847.883 1306.8 848.942 1304.4 850.001H1316.4Z" fill="#4277A9" fill-opacity="0.5"/>
<path d="M1044 802.352C1044 803.411 1042.8 805.529 1040.4 805.529C1038 805.529 1036.8 804.47 1036.8 802.352C1036.8 801.294 1038 799.176 1040.4 799.176C1042.8 800.235 1044 801.294 1044 802.352Z" fill="#4277A9" fill-opacity="0.5"/>
<path d="M1255.2 560.941C1255.2 566.235 1250.4 571.529 1243.2 571.529C1237.2 571.529 1231.2 567.294 1231.2 560.941C1231.2 555.646 1236 550.352 1243.2 550.352C1250.4 551.411 1255.2 555.646 1255.2 560.941Z" fill="#4277A9" fill-opacity="0.5"/>
<path d="M914.402 493.177C914.402 498.471 909.602 503.765 902.402 503.765C896.402 503.765 890.402 499.53 890.402 493.177C890.402 487.883 895.202 482.589 902.402 482.589C909.602 483.648 914.402 487.883 914.402 493.177Z" fill="#4277A9" fill-opacity="0.5"/>
<path d="M1132.8 365.057C1132.8 369.293 1129.2 371.41 1125.6 371.41C1120.8 371.41 1118.4 368.234 1118.4 365.057C1118.4 360.822 1122 358.704 1125.6 358.704C1129.2 358.704 1132.8 360.822 1132.8 365.057Z" fill="#4277A9" fill-opacity="0.5"/>
<path d="M1250.4 560.94C1250.4 564.116 1246.8 567.293 1243.2 567.293C1239.6 567.293 1236 564.116 1236 560.94C1236 557.763 1239.6 554.587 1243.2 554.587C1248 554.587 1250.4 557.763 1250.4 560.94Z" fill="#4277A9" fill-opacity="0.5"/>
<path d="M1051.2 802.352C1051.2 806.588 1046.4 810.823 1041.6 810.823C1036.8 810.823 1032 806.588 1032 802.352C1032 798.117 1036.8 793.882 1041.6 793.882C1046.4 793.882 1051.2 798.117 1051.2 802.352Z" fill="#4277A9" fill-opacity="0.5"/>
<path d="M907.198 493.176C907.198 495.293 904.798 497.411 902.398 497.411C899.998 497.411 897.598 495.293 897.598 493.176C897.598 491.058 899.998 488.94 902.398 488.94C904.798 489.999 907.198 491.058 907.198 493.176Z" fill="#4277A9" fill-opacity="0.5"/>
<path d="M1322.4 850.001C1320 845.765 1315.2 842.589 1310.4 842.589C1304.4 842.589 1300.8 845.765 1298.4 850.001H1322.4Z" fill="#4277A9" fill-opacity="0.5"/>
<path d="M1050 802.353C1050 806.589 1046.4 809.765 1041.6 809.765C1036.8 809.765 1033.2 806.589 1033.2 802.353C1033.2 798.118 1036.8 794.942 1041.6 794.942C1046.4 794.942 1050 798.118 1050 802.353Z" fill="#4277A9" fill-opacity="0.5"/>
<path d="M1132.8 365.057C1132.8 368.234 1129.2 371.41 1125.6 371.41C1122 371.41 1118.4 368.234 1118.4 365.057C1118.4 361.881 1122 358.704 1125.6 358.704C1129.2 358.704 1132.8 360.822 1132.8 365.057Z" fill="#4277A9" fill-opacity="0.5"/>
<path d="M902.402 498.471C905.716 498.471 908.402 496.101 908.402 493.177C908.402 490.253 905.716 487.883 902.402 487.883C899.088 487.883 896.402 490.253 896.402 493.177C896.402 496.101 899.088 498.471 902.402 498.471Z" fill="#4277A9" fill-opacity="0.5"/>
<path d="M1052.4 210.47C1052.4 212.588 1050 214.705 1047.6 214.705C1045.2 214.705 1042.8 212.588 1042.8 210.47C1042.8 208.352 1045.2 206.235 1047.6 206.235C1050 206.235 1052.4 207.294 1052.4 210.47Z" fill="#4277A9" fill-opacity="0.5"/>
<path d="M1050 210.47C1050 211.528 1048.8 212.587 1047.6 212.587C1046.4 212.587 1045.2 211.528 1045.2 210.47C1045.2 209.411 1046.4 208.352 1047.6 208.352C1048.8 208.352 1050 209.411 1050 210.47Z" fill="#4277A9" fill-opacity="0.5"/>
<path d="M913.2 493.176C913.2 498.471 908.4 501.647 903.6 501.647C897.6 501.647 894 497.412 894 493.176C894 487.882 898.8 484.706 903.6 484.706C908.4 484.706 913.2 488.941 913.2 493.176Z" fill="#4277A9" fill-opacity="0.5"/>
<path d="M805.2 156.471C805.2 161.765 800.4 164.941 795.6 164.941C789.6 164.941 786 160.706 786 156.471C786 151.176 790.8 148 795.6 148C800.4 146.941 805.2 151.176 805.2 156.471Z" fill="#4277A9" fill-opacity="0.5"/>
<path d="M907.198 493.176C907.198 495.293 904.798 497.411 902.398 497.411C899.998 497.411 897.598 495.293 897.598 493.176C897.598 491.058 899.998 488.94 902.398 488.94C905.998 489.999 907.198 491.058 907.198 493.176Z" fill="#4277A9" fill-opacity="0.5"/>
<path d="M490.804 633.999C490.804 637.176 488.404 639.293 484.804 639.293C481.204 639.293 478.804 637.176 478.804 633.999C478.804 630.823 481.204 628.705 484.804 628.705C488.404 627.646 490.804 630.823 490.804 633.999Z" fill="#4277A9" fill-opacity="0.5"/>
<path d="M913.198 493.175C913.198 498.47 908.398 502.705 902.398 502.705C896.398 502.705 891.598 498.47 891.598 493.175C891.598 487.881 896.398 483.646 902.398 483.646C908.398 484.705 913.198 488.94 913.198 493.175Z" fill="#4277A9" fill-opacity="0.5"/>
<path d="M488.395 634C488.395 635.059 487.195 637.177 484.795 637.177C483.595 637.177 481.195 636.118 481.195 634C481.195 632.942 482.395 630.824 484.795 630.824C485.995 630.824 488.395 631.883 488.395 634Z" fill="#4277A9" fill-opacity="0.5"/>
<path d="M473.995 302.587C473.995 306.822 470.395 309.999 465.595 309.999C460.795 309.999 457.195 306.822 457.195 302.587C457.195 298.352 460.795 295.175 465.595 295.175C470.395 296.234 473.995 299.41 473.995 302.587Z" fill="#4277A9" fill-opacity="0.5"/>
<path d="M1054.8 802.353C1054.8 808.706 1048.8 815.059 1040.4 815.059C1033.2 815.059 1026 809.765 1026 802.353C1026 796 1032 789.648 1040.4 789.648C1048.8 790.706 1054.8 796 1054.8 802.353Z" fill="#4277A9" fill-opacity="0.5"/>
<path d="M910.802 493.176C910.802 496.352 907.202 499.529 903.602 499.529C900.002 499.529 896.402 496.352 896.402 493.176C896.402 490 900.002 486.823 903.602 486.823C907.202 486.823 910.802 490 910.802 493.176Z" fill="#4277A9" fill-opacity="0.5"/>
<path d="M1046.4 802.353C1046.4 805.529 1044 807.647 1040.4 807.647C1036.8 807.647 1034.4 805.529 1034.4 802.353C1034.4 799.176 1036.8 797.059 1040.4 797.059C1044 798.118 1046.4 800.235 1046.4 802.353Z" fill="#4277A9" fill-opacity="0.5"/>
<path d="M473.997 302.588C473.997 305.764 470.398 308.941 466.798 308.941C463.198 308.941 459.597 305.764 459.597 302.588C459.597 299.411 463.198 296.235 466.798 296.235C470.398 296.235 473.997 299.411 473.997 302.588Z" fill="#4277A9" fill-opacity="0.5"/>
<path d="M487.202 634.001C487.202 635.059 486.002 636.118 484.802 636.118C483.602 636.118 482.402 635.059 482.402 634.001C482.402 632.942 483.602 631.883 484.802 631.883C486.002 630.824 487.202 631.883 487.202 634.001Z" fill="#4277A9" fill-opacity="0.5"/>
<path d="M233.995 371.412C236.646 371.412 238.795 369.516 238.795 367.176C238.795 364.837 236.646 362.941 233.995 362.941C231.344 362.941 229.195 364.837 229.195 367.176C229.195 369.516 231.344 371.412 233.995 371.412Z" fill="#4277A9" fill-opacity="0.5"/>
<path d="M410.4 724C410.4 727.176 408 730.353 403.2 730.353C399.6 730.353 396 728.235 396 724C396 720.823 398.4 717.647 403.2 717.647C406.8 717.647 410.4 720.823 410.4 724Z" fill="#4277A9" fill-opacity="0.5"/>
<path d="M409.195 723.998C409.195 726.116 406.795 729.293 403.195 729.293C400.795 729.293 397.195 727.175 397.195 723.998C397.195 720.822 399.595 718.704 403.195 718.704C406.795 718.704 409.195 721.881 409.195 723.998Z" fill="#4277A9" fill-opacity="0.5"/>
<path d="M496.804 633.998C496.804 639.293 492.004 644.587 484.804 644.587C478.804 644.587 472.804 640.351 472.804 633.998C472.804 628.704 477.604 623.41 484.804 623.41C490.804 623.41 496.804 627.645 496.804 633.998Z" fill="#4277A9" fill-opacity="0.5"/>
<path d="M495.6 633.999C495.6 639.294 490.8 643.529 484.8 643.529C478.8 643.529 474 639.294 474 633.999C474 628.705 478.8 624.47 484.8 624.47C490.8 624.47 495.6 628.705 495.6 633.999Z" fill="#4277A9" fill-opacity="0.5"/>
<path d="M406.798 724C406.798 726.118 405.598 727.177 403.198 727.177C400.798 727.177 399.598 726.118 399.598 724C399.598 721.883 400.798 720.824 403.198 720.824C405.598 720.824 406.798 721.883 406.798 724Z" fill="#4277A9" fill-opacity="0.5"/>
<path d="M242.398 367.176C242.398 371.411 238.798 374.588 233.998 374.588C229.198 374.588 225.598 371.411 225.598 367.176C225.598 362.941 229.198 359.764 233.998 359.764C238.798 360.823 242.398 363.999 242.398 367.176Z" fill="#4277A9" fill-opacity="0.5"/>
<path d="M408.002 724C408.002 726.117 405.602 728.235 403.202 728.235C400.802 728.235 398.402 726.117 398.402 724C398.402 721.882 400.802 719.764 403.202 719.764C405.602 719.764 408.002 721.882 408.002 724Z" fill="#4277A9" fill-opacity="0.5"/>
<path d="M408.002 724C408.002 726.117 405.602 728.235 403.202 728.235C400.802 728.235 398.402 726.117 398.402 724C398.402 721.882 400.802 719.764 403.202 719.764C405.602 719.764 408.002 721.882 408.002 724Z" fill="#4277A9" fill-opacity="0.5"/>
<path d="M410.4 724C410.4 727.176 406.8 730.353 403.2 730.353C399.6 730.353 396 727.176 396 724C396 720.823 399.6 717.647 403.2 717.647C406.8 717.647 410.4 720.823 410.4 724Z" fill="#4277A9" fill-opacity="0.5"/>
</svg>
