<svg width="720" height="259" viewBox="0 0 720 259" fill="none" xmlns="http://www.w3.org/2000/svg">
<g clip-path="url(#clip0)">
<path d="M446.228 129.5C446.228 113.276 441.662 97.3809 433.054 83.6359C424.445 69.8908 412.143 58.8525 397.557 51.7861C382.971 44.7198 366.691 41.9114 350.585 43.6829C334.478 45.4544 319.195 51.7342 306.489 61.8023C293.783 71.8703 284.167 85.3193 278.744 100.608C273.322 115.896 272.311 132.405 275.829 148.241C279.346 164.078 287.25 178.602 298.633 190.148C310.016 201.695 324.418 209.796 340.188 213.524L345.141 192.518C333.313 189.722 322.512 183.646 313.974 174.986C305.437 166.327 299.51 155.434 296.872 143.556C294.233 131.678 294.991 119.297 299.058 107.831C303.125 96.3645 310.337 86.2778 319.867 78.7267C329.396 71.1756 340.858 66.4658 352.938 65.1372C365.019 63.8085 377.228 65.9148 388.168 71.2146C399.107 76.5144 408.334 84.7931 414.79 95.1019C421.246 105.411 424.671 117.332 424.671 129.5H446.228Z" fill="#4277A9" stroke="white"/>
<path d="M340.188 213.524C352.848 216.516 366.02 216.602 378.718 213.775C391.416 210.947 403.311 205.28 413.511 197.198C423.711 189.115 431.953 178.827 437.619 167.103C443.285 155.379 446.228 142.524 446.228 129.5H424.671C424.671 139.268 422.463 148.91 418.214 157.702C413.965 166.495 407.783 174.211 400.133 180.273C392.483 186.335 383.562 190.585 374.039 192.706C364.515 194.826 354.636 194.762 345.141 192.518L340.188 213.524Z" fill="#53ADDF" stroke="white"/>
<circle cx="517" cy="115" r="8" fill="#4277A9"/>
<path d="M546.686 120C546.527 119.58 546.378 119.169 546.238 118.768C546.098 118.357 545.953 117.942 545.804 117.522H541.408L540.526 120H539.112C539.485 118.973 539.835 118.026 540.162 117.158C540.489 116.281 540.806 115.45 541.114 114.666C541.431 113.882 541.744 113.135 542.052 112.426C542.36 111.707 542.682 110.998 543.018 110.298H544.264C544.6 110.998 544.922 111.707 545.23 112.426C545.538 113.135 545.846 113.882 546.154 114.666C546.471 115.45 546.793 116.281 547.12 117.158C547.447 118.026 547.797 118.973 548.17 120H546.686ZM545.412 116.402C545.113 115.59 544.815 114.806 544.516 114.05C544.227 113.285 543.923 112.552 543.606 111.852C543.279 112.552 542.967 113.285 542.668 114.05C542.379 114.806 542.089 115.59 541.8 116.402H545.412ZM554.786 112.72C554.422 114.083 553.993 115.389 553.498 116.64C553.013 117.891 552.542 119.011 552.084 120H550.908C550.451 119.011 549.975 117.891 549.48 116.64C548.995 115.389 548.57 114.083 548.206 112.72H549.606C549.718 113.177 549.849 113.667 549.998 114.19C550.157 114.703 550.32 115.217 550.488 115.73C550.666 116.234 550.843 116.724 551.02 117.2C551.198 117.676 551.366 118.101 551.524 118.474C551.683 118.101 551.851 117.676 552.028 117.2C552.206 116.724 552.378 116.234 552.546 115.73C552.724 115.217 552.887 114.703 553.036 114.19C553.195 113.667 553.33 113.177 553.442 112.72H554.786ZM558.594 119.062C558.902 119.062 559.172 119.057 559.406 119.048C559.648 119.029 559.849 119.001 560.008 118.964V116.794C559.914 116.747 559.76 116.71 559.546 116.682C559.34 116.645 559.088 116.626 558.79 116.626C558.594 116.626 558.384 116.64 558.16 116.668C557.945 116.696 557.744 116.757 557.558 116.85C557.38 116.934 557.231 117.055 557.11 117.214C556.988 117.363 556.928 117.564 556.928 117.816C556.928 118.283 557.077 118.609 557.376 118.796C557.674 118.973 558.08 119.062 558.594 119.062ZM558.482 112.538C559.004 112.538 559.443 112.608 559.798 112.748C560.162 112.879 560.451 113.07 560.666 113.322C560.89 113.565 561.048 113.859 561.142 114.204C561.235 114.54 561.282 114.913 561.282 115.324V119.874C561.17 119.893 561.011 119.921 560.806 119.958C560.61 119.986 560.386 120.014 560.134 120.042C559.882 120.07 559.606 120.093 559.308 120.112C559.018 120.14 558.729 120.154 558.44 120.154C558.029 120.154 557.651 120.112 557.306 120.028C556.96 119.944 556.662 119.813 556.41 119.636C556.158 119.449 555.962 119.207 555.822 118.908C555.682 118.609 555.612 118.25 555.612 117.83C555.612 117.429 555.691 117.083 555.85 116.794C556.018 116.505 556.242 116.271 556.522 116.094C556.802 115.917 557.128 115.786 557.502 115.702C557.875 115.618 558.267 115.576 558.678 115.576C558.808 115.576 558.944 115.585 559.084 115.604C559.224 115.613 559.354 115.632 559.476 115.66C559.606 115.679 559.718 115.697 559.812 115.716C559.905 115.735 559.97 115.749 560.008 115.758V115.394C560.008 115.179 559.984 114.969 559.938 114.764C559.891 114.549 559.807 114.363 559.686 114.204C559.564 114.036 559.396 113.905 559.182 113.812C558.976 113.709 558.706 113.658 558.37 113.658C557.94 113.658 557.562 113.691 557.236 113.756C556.918 113.812 556.68 113.873 556.522 113.938L556.368 112.86C556.536 112.785 556.816 112.715 557.208 112.65C557.6 112.575 558.024 112.538 558.482 112.538ZM564.746 120H563.444V112.72H564.746V120ZM564.088 111.404C563.855 111.404 563.654 111.329 563.486 111.18C563.328 111.021 563.248 110.811 563.248 110.55C563.248 110.289 563.328 110.083 563.486 109.934C563.654 109.775 563.855 109.696 564.088 109.696C564.322 109.696 564.518 109.775 564.676 109.934C564.844 110.083 564.928 110.289 564.928 110.55C564.928 110.811 564.844 111.021 564.676 111.18C564.518 111.329 564.322 111.404 564.088 111.404ZM569.169 120.14C568.367 120.121 567.797 119.949 567.461 119.622C567.125 119.295 566.957 118.787 566.957 118.096V109.36L568.259 109.136V117.886C568.259 118.101 568.278 118.278 568.315 118.418C568.353 118.558 568.413 118.67 568.497 118.754C568.581 118.838 568.693 118.903 568.833 118.95C568.973 118.987 569.146 119.02 569.351 119.048L569.169 120.14ZM573.277 119.062C573.585 119.062 573.856 119.057 574.089 119.048C574.332 119.029 574.533 119.001 574.691 118.964V116.794C574.598 116.747 574.444 116.71 574.229 116.682C574.024 116.645 573.772 116.626 573.473 116.626C573.277 116.626 573.067 116.64 572.843 116.668C572.629 116.696 572.428 116.757 572.241 116.85C572.064 116.934 571.915 117.055 571.793 117.214C571.672 117.363 571.611 117.564 571.611 117.816C571.611 118.283 571.761 118.609 572.059 118.796C572.358 118.973 572.764 119.062 573.277 119.062ZM573.165 112.538C573.688 112.538 574.127 112.608 574.481 112.748C574.845 112.879 575.135 113.07 575.349 113.322C575.573 113.565 575.732 113.859 575.825 114.204C575.919 114.54 575.965 114.913 575.965 115.324V119.874C575.853 119.893 575.695 119.921 575.489 119.958C575.293 119.986 575.069 120.014 574.817 120.042C574.565 120.07 574.29 120.093 573.991 120.112C573.702 120.14 573.413 120.154 573.123 120.154C572.713 120.154 572.335 120.112 571.989 120.028C571.644 119.944 571.345 119.813 571.093 119.636C570.841 119.449 570.645 119.207 570.505 118.908C570.365 118.609 570.295 118.25 570.295 117.83C570.295 117.429 570.375 117.083 570.533 116.794C570.701 116.505 570.925 116.271 571.205 116.094C571.485 115.917 571.812 115.786 572.185 115.702C572.559 115.618 572.951 115.576 573.361 115.576C573.492 115.576 573.627 115.585 573.767 115.604C573.907 115.613 574.038 115.632 574.159 115.66C574.29 115.679 574.402 115.697 574.495 115.716C574.589 115.735 574.654 115.749 574.691 115.758V115.394C574.691 115.179 574.668 114.969 574.621 114.764C574.575 114.549 574.491 114.363 574.369 114.204C574.248 114.036 574.08 113.905 573.865 113.812C573.66 113.709 573.389 113.658 573.053 113.658C572.624 113.658 572.246 113.691 571.919 113.756C571.602 113.812 571.364 113.873 571.205 113.938L571.051 112.86C571.219 112.785 571.499 112.715 571.891 112.65C572.283 112.575 572.708 112.538 573.165 112.538ZM579.43 113.042C579.588 112.939 579.826 112.832 580.144 112.72C580.47 112.608 580.844 112.552 581.264 112.552C581.786 112.552 582.248 112.645 582.65 112.832C583.06 113.019 583.406 113.28 583.686 113.616C583.966 113.952 584.176 114.353 584.316 114.82C584.465 115.287 584.54 115.8 584.54 116.36C584.54 116.948 584.451 117.48 584.274 117.956C584.106 118.423 583.863 118.819 583.546 119.146C583.228 119.473 582.846 119.725 582.398 119.902C581.95 120.079 581.446 120.168 580.886 120.168C580.279 120.168 579.742 120.126 579.276 120.042C578.809 119.958 578.426 119.874 578.128 119.79V109.36L579.43 109.136V113.042ZM579.43 118.866C579.56 118.903 579.742 118.941 579.976 118.978C580.218 119.006 580.517 119.02 580.872 119.02C581.572 119.02 582.132 118.791 582.552 118.334C582.972 117.867 583.182 117.209 583.182 116.36C583.182 115.987 583.144 115.637 583.07 115.31C582.995 114.983 582.874 114.703 582.706 114.47C582.538 114.227 582.318 114.041 582.048 113.91C581.786 113.77 581.469 113.7 581.096 113.7C580.741 113.7 580.414 113.761 580.116 113.882C579.817 114.003 579.588 114.129 579.43 114.26V118.866ZM588.556 120.14C587.753 120.121 587.184 119.949 586.848 119.622C586.512 119.295 586.344 118.787 586.344 118.096V109.36L587.646 109.136V117.886C587.646 118.101 587.665 118.278 587.702 118.418C587.739 118.558 587.8 118.67 587.884 118.754C587.968 118.838 588.08 118.903 588.22 118.95C588.36 118.987 588.533 119.02 588.738 119.048L588.556 120.14ZM589.794 116.374C589.794 115.73 589.887 115.17 590.074 114.694C590.261 114.209 590.508 113.807 590.816 113.49C591.124 113.173 591.479 112.935 591.88 112.776C592.281 112.617 592.692 112.538 593.112 112.538C594.092 112.538 594.843 112.846 595.366 113.462C595.889 114.069 596.15 114.997 596.15 116.248C596.15 116.304 596.15 116.379 596.15 116.472C596.15 116.556 596.145 116.635 596.136 116.71H591.152C591.208 117.466 591.427 118.04 591.81 118.432C592.193 118.824 592.79 119.02 593.602 119.02C594.059 119.02 594.442 118.983 594.75 118.908C595.067 118.824 595.305 118.745 595.464 118.67L595.646 119.762C595.487 119.846 595.207 119.935 594.806 120.028C594.414 120.121 593.966 120.168 593.462 120.168C592.827 120.168 592.277 120.075 591.81 119.888C591.353 119.692 590.975 119.426 590.676 119.09C590.377 118.754 590.153 118.357 590.004 117.9C589.864 117.433 589.794 116.925 589.794 116.374ZM594.792 115.66C594.801 115.072 594.652 114.591 594.344 114.218C594.045 113.835 593.63 113.644 593.098 113.644C592.799 113.644 592.533 113.705 592.3 113.826C592.076 113.938 591.885 114.087 591.726 114.274C591.567 114.461 591.441 114.675 591.348 114.918C591.264 115.161 591.208 115.408 591.18 115.66H594.792ZM601.345 120V110.298H607.197V111.46H602.703V114.386H606.693V115.534H602.703V120H601.345ZM614.221 119.79C613.922 119.865 613.525 119.944 613.031 120.028C612.545 120.112 611.981 120.154 611.337 120.154C610.777 120.154 610.305 120.075 609.923 119.916C609.54 119.748 609.232 119.515 608.999 119.216C608.765 118.917 608.597 118.567 608.495 118.166C608.392 117.755 608.341 117.303 608.341 116.808V112.72H609.643V116.528C609.643 117.415 609.783 118.049 610.063 118.432C610.343 118.815 610.814 119.006 611.477 119.006C611.617 119.006 611.761 119.001 611.911 118.992C612.06 118.983 612.2 118.973 612.331 118.964C612.461 118.945 612.578 118.931 612.681 118.922C612.793 118.903 612.872 118.885 612.919 118.866V112.72H614.221V119.79ZM616.464 112.93C616.762 112.855 617.159 112.776 617.654 112.692C618.148 112.608 618.718 112.566 619.362 112.566C619.94 112.566 620.421 112.65 620.804 112.818C621.186 112.977 621.49 113.205 621.714 113.504C621.947 113.793 622.11 114.143 622.204 114.554C622.297 114.965 622.344 115.417 622.344 115.912V120H621.042V116.192C621.042 115.744 621.009 115.361 620.944 115.044C620.888 114.727 620.79 114.47 620.65 114.274C620.51 114.078 620.323 113.938 620.09 113.854C619.856 113.761 619.567 113.714 619.222 113.714C619.082 113.714 618.937 113.719 618.788 113.728C618.638 113.737 618.494 113.751 618.354 113.77C618.223 113.779 618.102 113.793 617.99 113.812C617.887 113.831 617.812 113.845 617.766 113.854V120H616.464V112.93ZM629.207 114.26C629.048 114.129 628.819 114.003 628.521 113.882C628.222 113.761 627.895 113.7 627.541 113.7C627.167 113.7 626.845 113.77 626.575 113.91C626.313 114.041 626.099 114.227 625.931 114.47C625.763 114.703 625.641 114.983 625.567 115.31C625.492 115.637 625.455 115.987 625.455 116.36C625.455 117.209 625.665 117.867 626.085 118.334C626.505 118.791 627.065 119.02 627.765 119.02C628.119 119.02 628.413 119.006 628.647 118.978C628.889 118.941 629.076 118.903 629.207 118.866V114.26ZM629.207 109.36L630.509 109.136V119.79C630.21 119.874 629.827 119.958 629.361 120.042C628.894 120.126 628.357 120.168 627.751 120.168C627.191 120.168 626.687 120.079 626.239 119.902C625.791 119.725 625.408 119.473 625.091 119.146C624.773 118.819 624.526 118.423 624.349 117.956C624.181 117.48 624.097 116.948 624.097 116.36C624.097 115.8 624.167 115.287 624.307 114.82C624.456 114.353 624.671 113.952 624.951 113.616C625.231 113.28 625.571 113.019 625.973 112.832C626.383 112.645 626.85 112.552 627.373 112.552C627.793 112.552 628.161 112.608 628.479 112.72C628.805 112.832 629.048 112.939 629.207 113.042V109.36ZM634.441 119.062C634.973 119.062 635.365 118.992 635.617 118.852C635.878 118.712 636.009 118.488 636.009 118.18C636.009 117.863 635.883 117.611 635.631 117.424C635.379 117.237 634.964 117.027 634.385 116.794C634.105 116.682 633.834 116.57 633.573 116.458C633.321 116.337 633.102 116.197 632.915 116.038C632.728 115.879 632.579 115.688 632.467 115.464C632.355 115.24 632.299 114.965 632.299 114.638C632.299 113.994 632.537 113.485 633.013 113.112C633.489 112.729 634.138 112.538 634.959 112.538C635.164 112.538 635.37 112.552 635.575 112.58C635.78 112.599 635.972 112.627 636.149 112.664C636.326 112.692 636.48 112.725 636.611 112.762C636.751 112.799 636.858 112.832 636.933 112.86L636.695 113.98C636.555 113.905 636.336 113.831 636.037 113.756C635.738 113.672 635.379 113.63 634.959 113.63C634.595 113.63 634.278 113.705 634.007 113.854C633.736 113.994 633.601 114.218 633.601 114.526C633.601 114.685 633.629 114.825 633.685 114.946C633.75 115.067 633.844 115.179 633.965 115.282C634.096 115.375 634.254 115.464 634.441 115.548C634.628 115.632 634.852 115.721 635.113 115.814C635.458 115.945 635.766 116.075 636.037 116.206C636.308 116.327 636.536 116.472 636.723 116.64C636.919 116.808 637.068 117.013 637.171 117.256C637.274 117.489 637.325 117.779 637.325 118.124C637.325 118.796 637.073 119.305 636.569 119.65C636.074 119.995 635.365 120.168 634.441 120.168C633.797 120.168 633.293 120.112 632.929 120C632.565 119.897 632.318 119.818 632.187 119.762L632.425 118.642C632.574 118.698 632.812 118.782 633.139 118.894C633.466 119.006 633.9 119.062 634.441 119.062Z" fill="black"/>
<circle cx="517" cy="143" r="8" fill="#53ADDF"/>
<path d="M546.042 146.824V148H540.204V138.298H541.562V146.824H546.042ZM546.81 144.374C546.81 143.73 546.903 143.17 547.09 142.694C547.276 142.209 547.524 141.807 547.832 141.49C548.14 141.173 548.494 140.935 548.896 140.776C549.297 140.617 549.708 140.538 550.128 140.538C551.108 140.538 551.859 140.846 552.382 141.462C552.904 142.069 553.166 142.997 553.166 144.248C553.166 144.304 553.166 144.379 553.166 144.472C553.166 144.556 553.161 144.635 553.152 144.71H548.168C548.224 145.466 548.443 146.04 548.826 146.432C549.208 146.824 549.806 147.02 550.618 147.02C551.075 147.02 551.458 146.983 551.766 146.908C552.083 146.824 552.321 146.745 552.48 146.67L552.662 147.762C552.503 147.846 552.223 147.935 551.822 148.028C551.43 148.121 550.982 148.168 550.478 148.168C549.843 148.168 549.292 148.075 548.826 147.888C548.368 147.692 547.99 147.426 547.692 147.09C547.393 146.754 547.169 146.357 547.02 145.9C546.88 145.433 546.81 144.925 546.81 144.374ZM551.808 143.66C551.817 143.072 551.668 142.591 551.36 142.218C551.061 141.835 550.646 141.644 550.114 141.644C549.815 141.644 549.549 141.705 549.316 141.826C549.092 141.938 548.9 142.087 548.742 142.274C548.583 142.461 548.457 142.675 548.364 142.918C548.28 143.161 548.224 143.408 548.196 143.66H551.808ZM555.036 140.93C555.335 140.855 555.731 140.776 556.226 140.692C556.721 140.608 557.29 140.566 557.934 140.566C558.513 140.566 558.993 140.65 559.376 140.818C559.759 140.977 560.062 141.205 560.286 141.504C560.519 141.793 560.683 142.143 560.776 142.554C560.869 142.965 560.916 143.417 560.916 143.912V148H559.614V144.192C559.614 143.744 559.581 143.361 559.516 143.044C559.46 142.727 559.362 142.47 559.222 142.274C559.082 142.078 558.895 141.938 558.662 141.854C558.429 141.761 558.139 141.714 557.794 141.714C557.654 141.714 557.509 141.719 557.36 141.728C557.211 141.737 557.066 141.751 556.926 141.77C556.795 141.779 556.674 141.793 556.562 141.812C556.459 141.831 556.385 141.845 556.338 141.854V148H555.036V140.93ZM567.779 142.26C567.62 142.129 567.392 142.003 567.093 141.882C566.794 141.761 566.468 141.7 566.113 141.7C565.74 141.7 565.418 141.77 565.147 141.91C564.886 142.041 564.671 142.227 564.503 142.47C564.335 142.703 564.214 142.983 564.139 143.31C564.064 143.637 564.027 143.987 564.027 144.36C564.027 145.209 564.237 145.867 564.657 146.334C565.077 146.791 565.637 147.02 566.337 147.02C566.692 147.02 566.986 147.006 567.219 146.978C567.462 146.941 567.648 146.903 567.779 146.866V142.26ZM567.779 137.36L569.081 137.136V147.79C568.782 147.874 568.4 147.958 567.933 148.042C567.466 148.126 566.93 148.168 566.323 148.168C565.763 148.168 565.259 148.079 564.811 147.902C564.363 147.725 563.98 147.473 563.663 147.146C563.346 146.819 563.098 146.423 562.921 145.956C562.753 145.48 562.669 144.948 562.669 144.36C562.669 143.8 562.739 143.287 562.879 142.82C563.028 142.353 563.243 141.952 563.523 141.616C563.803 141.28 564.144 141.019 564.545 140.832C564.956 140.645 565.422 140.552 565.945 140.552C566.365 140.552 566.734 140.608 567.051 140.72C567.378 140.832 567.62 140.939 567.779 141.042V137.36ZM570.913 144.374C570.913 143.73 571.007 143.17 571.193 142.694C571.38 142.209 571.627 141.807 571.935 141.49C572.243 141.173 572.598 140.935 572.999 140.776C573.401 140.617 573.811 140.538 574.231 140.538C575.211 140.538 575.963 140.846 576.485 141.462C577.008 142.069 577.269 142.997 577.269 144.248C577.269 144.304 577.269 144.379 577.269 144.472C577.269 144.556 577.265 144.635 577.255 144.71H572.271C572.327 145.466 572.547 146.04 572.929 146.432C573.312 146.824 573.909 147.02 574.721 147.02C575.179 147.02 575.561 146.983 575.869 146.908C576.187 146.824 576.425 146.745 576.583 146.67L576.765 147.762C576.607 147.846 576.327 147.935 575.925 148.028C575.533 148.121 575.085 148.168 574.581 148.168C573.947 148.168 573.396 148.075 572.929 147.888C572.472 147.692 572.094 147.426 571.795 147.09C571.497 146.754 571.273 146.357 571.123 145.9C570.983 145.433 570.913 144.925 570.913 144.374ZM575.911 143.66C575.921 143.072 575.771 142.591 575.463 142.218C575.165 141.835 574.749 141.644 574.217 141.644C573.919 141.644 573.653 141.705 573.419 141.826C573.195 141.938 573.004 142.087 572.845 142.274C572.687 142.461 572.561 142.675 572.467 142.918C572.383 143.161 572.327 143.408 572.299 143.66H575.911ZM583.844 142.26C583.685 142.129 583.456 142.003 583.158 141.882C582.859 141.761 582.532 141.7 582.178 141.7C581.804 141.7 581.482 141.77 581.212 141.91C580.95 142.041 580.736 142.227 580.568 142.47C580.4 142.703 580.278 142.983 580.204 143.31C580.129 143.637 580.092 143.987 580.092 144.36C580.092 145.209 580.302 145.867 580.722 146.334C581.142 146.791 581.702 147.02 582.402 147.02C582.756 147.02 583.05 147.006 583.284 146.978C583.526 146.941 583.713 146.903 583.844 146.866V142.26ZM583.844 137.36L585.146 137.136V147.79C584.847 147.874 584.464 147.958 583.998 148.042C583.531 148.126 582.994 148.168 582.388 148.168C581.828 148.168 581.324 148.079 580.876 147.902C580.428 147.725 580.045 147.473 579.728 147.146C579.41 146.819 579.163 146.423 578.986 145.956C578.818 145.48 578.734 144.948 578.734 144.36C578.734 143.8 578.804 143.287 578.944 142.82C579.093 142.353 579.308 141.952 579.588 141.616C579.868 141.28 580.208 141.019 580.61 140.832C581.02 140.645 581.487 140.552 582.01 140.552C582.43 140.552 582.798 140.608 583.116 140.72C583.442 140.832 583.685 140.939 583.844 141.042V137.36ZM590.708 148V138.298H596.56V139.46H592.066V142.386H596.056V143.534H592.066V148H590.708ZM603.584 147.79C603.285 147.865 602.889 147.944 602.394 148.028C601.909 148.112 601.344 148.154 600.7 148.154C600.14 148.154 599.669 148.075 599.286 147.916C598.903 147.748 598.595 147.515 598.362 147.216C598.129 146.917 597.961 146.567 597.858 146.166C597.755 145.755 597.704 145.303 597.704 144.808V140.72H599.006V144.528C599.006 145.415 599.146 146.049 599.426 146.432C599.706 146.815 600.177 147.006 600.84 147.006C600.98 147.006 601.125 147.001 601.274 146.992C601.423 146.983 601.563 146.973 601.694 146.964C601.825 146.945 601.941 146.931 602.044 146.922C602.156 146.903 602.235 146.885 602.282 146.866V140.72H603.584V147.79ZM605.827 140.93C606.126 140.855 606.522 140.776 607.017 140.692C607.512 140.608 608.081 140.566 608.725 140.566C609.304 140.566 609.784 140.65 610.167 140.818C610.55 140.977 610.853 141.205 611.077 141.504C611.31 141.793 611.474 142.143 611.567 142.554C611.66 142.965 611.707 143.417 611.707 143.912V148H610.405V144.192C610.405 143.744 610.372 143.361 610.307 143.044C610.251 142.727 610.153 142.47 610.013 142.274C609.873 142.078 609.686 141.938 609.453 141.854C609.22 141.761 608.93 141.714 608.585 141.714C608.445 141.714 608.3 141.719 608.151 141.728C608.002 141.737 607.857 141.751 607.717 141.77C607.586 141.779 607.465 141.793 607.353 141.812C607.25 141.831 607.176 141.845 607.129 141.854V148H605.827V140.93ZM618.57 142.26C618.411 142.129 618.183 142.003 617.884 141.882C617.585 141.761 617.259 141.7 616.904 141.7C616.531 141.7 616.209 141.77 615.938 141.91C615.677 142.041 615.462 142.227 615.294 142.47C615.126 142.703 615.005 142.983 614.93 143.31C614.855 143.637 614.818 143.987 614.818 144.36C614.818 145.209 615.028 145.867 615.448 146.334C615.868 146.791 616.428 147.02 617.128 147.02C617.483 147.02 617.777 147.006 618.01 146.978C618.253 146.941 618.439 146.903 618.57 146.866V142.26ZM618.57 137.36L619.872 137.136V147.79C619.573 147.874 619.191 147.958 618.724 148.042C618.257 148.126 617.721 148.168 617.114 148.168C616.554 148.168 616.05 148.079 615.602 147.902C615.154 147.725 614.771 147.473 614.454 147.146C614.137 146.819 613.889 146.423 613.712 145.956C613.544 145.48 613.46 144.948 613.46 144.36C613.46 143.8 613.53 143.287 613.67 142.82C613.819 142.353 614.034 141.952 614.314 141.616C614.594 141.28 614.935 141.019 615.336 140.832C615.747 140.645 616.213 140.552 616.736 140.552C617.156 140.552 617.525 140.608 617.842 140.72C618.169 140.832 618.411 140.939 618.57 141.042V137.36ZM623.804 147.062C624.336 147.062 624.728 146.992 624.98 146.852C625.242 146.712 625.372 146.488 625.372 146.18C625.372 145.863 625.246 145.611 624.994 145.424C624.742 145.237 624.327 145.027 623.748 144.794C623.468 144.682 623.198 144.57 622.936 144.458C622.684 144.337 622.465 144.197 622.278 144.038C622.092 143.879 621.942 143.688 621.83 143.464C621.718 143.24 621.662 142.965 621.662 142.638C621.662 141.994 621.9 141.485 622.376 141.112C622.852 140.729 623.501 140.538 624.322 140.538C624.528 140.538 624.733 140.552 624.938 140.58C625.144 140.599 625.335 140.627 625.512 140.664C625.69 140.692 625.844 140.725 625.974 140.762C626.114 140.799 626.222 140.832 626.296 140.86L626.058 141.98C625.918 141.905 625.699 141.831 625.4 141.756C625.102 141.672 624.742 141.63 624.322 141.63C623.958 141.63 623.641 141.705 623.37 141.854C623.1 141.994 622.964 142.218 622.964 142.526C622.964 142.685 622.992 142.825 623.048 142.946C623.114 143.067 623.207 143.179 623.328 143.282C623.459 143.375 623.618 143.464 623.804 143.548C623.991 143.632 624.215 143.721 624.476 143.814C624.822 143.945 625.13 144.075 625.4 144.206C625.671 144.327 625.9 144.472 626.086 144.64C626.282 144.808 626.432 145.013 626.534 145.256C626.637 145.489 626.688 145.779 626.688 146.124C626.688 146.796 626.436 147.305 625.932 147.65C625.438 147.995 624.728 148.168 623.804 148.168C623.16 148.168 622.656 148.112 622.292 148C621.928 147.897 621.681 147.818 621.55 147.762L621.788 146.642C621.938 146.698 622.176 146.782 622.502 146.894C622.829 147.006 623.263 147.062 623.804 147.062Z" fill="black"/>
<path d="M310.485 101.824C310.949 101.632 311.429 101.416 311.925 101.176C312.437 100.92 312.933 100.648 313.413 100.36C313.893 100.056 314.349 99.744 314.781 99.424C315.229 99.088 315.629 98.736 315.981 98.368H318.477V115H314.901V103.024C314.421 103.344 313.885 103.64 313.293 103.912C312.701 104.168 312.125 104.392 311.565 104.584L310.485 101.824ZM327.917 115.36C327.485 115.36 327.029 115.328 326.549 115.264C326.069 115.216 325.605 115.144 325.157 115.048C324.709 114.952 324.301 114.848 323.933 114.736C323.565 114.624 323.277 114.52 323.069 114.424L323.765 111.448C324.181 111.624 324.709 111.816 325.349 112.024C326.005 112.216 326.813 112.312 327.773 112.312C328.877 112.312 329.685 112.104 330.197 111.688C330.709 111.272 330.965 110.712 330.965 110.008C330.965 109.576 330.869 109.216 330.677 108.928C330.501 108.624 330.253 108.384 329.933 108.208C329.613 108.016 329.229 107.888 328.781 107.824C328.349 107.744 327.885 107.704 327.389 107.704H325.997V104.824H327.581C327.933 104.824 328.269 104.792 328.589 104.728C328.925 104.664 329.221 104.56 329.477 104.416C329.733 104.256 329.933 104.048 330.077 103.792C330.237 103.52 330.317 103.184 330.317 102.784C330.317 102.48 330.253 102.216 330.125 101.992C329.997 101.768 329.829 101.584 329.621 101.44C329.429 101.296 329.197 101.192 328.925 101.128C328.669 101.048 328.405 101.008 328.133 101.008C327.445 101.008 326.805 101.112 326.213 101.32C325.637 101.528 325.109 101.784 324.629 102.088L323.357 99.472C323.613 99.312 323.909 99.144 324.245 98.968C324.597 98.792 324.981 98.632 325.397 98.488C325.813 98.344 326.253 98.224 326.717 98.128C327.197 98.032 327.701 97.984 328.229 97.984C329.205 97.984 330.045 98.104 330.749 98.344C331.469 98.568 332.061 98.896 332.525 99.328C332.989 99.744 333.333 100.24 333.557 100.816C333.781 101.376 333.893 101.992 333.893 102.664C333.893 103.32 333.709 103.96 333.341 104.584C332.973 105.192 332.477 105.656 331.853 105.976C332.717 106.328 333.381 106.856 333.845 107.56C334.325 108.248 334.565 109.08 334.565 110.056C334.565 110.824 334.437 111.536 334.181 112.192C333.925 112.832 333.525 113.392 332.981 113.872C332.437 114.336 331.741 114.704 330.893 114.976C330.061 115.232 329.069 115.36 327.917 115.36ZM347.99 102.736C347.99 103.344 347.87 103.928 347.63 104.488C347.39 105.048 347.078 105.592 346.694 106.12C346.31 106.632 345.878 107.128 345.398 107.608C344.918 108.088 344.446 108.544 343.982 108.976C343.742 109.2 343.478 109.456 343.19 109.744C342.918 110.016 342.654 110.296 342.398 110.584C342.142 110.872 341.91 111.144 341.702 111.4C341.51 111.64 341.39 111.84 341.342 112H348.494V115H337.406C337.374 114.824 337.358 114.6 337.358 114.328C337.358 114.056 337.358 113.864 337.358 113.752C337.358 112.984 337.478 112.28 337.718 111.64C337.974 111 338.302 110.408 338.702 109.864C339.102 109.304 339.55 108.784 340.046 108.304C340.558 107.824 341.062 107.344 341.558 106.864C341.942 106.496 342.302 106.152 342.638 105.832C342.974 105.496 343.27 105.176 343.526 104.872C343.782 104.552 343.982 104.24 344.126 103.936C344.27 103.616 344.342 103.296 344.342 102.976C344.342 102.272 344.142 101.776 343.742 101.488C343.342 101.2 342.846 101.056 342.254 101.056C341.822 101.056 341.414 101.128 341.03 101.272C340.662 101.4 340.318 101.56 339.998 101.752C339.694 101.928 339.43 102.112 339.206 102.304C338.982 102.48 338.814 102.624 338.702 102.736L336.926 100.24C337.63 99.584 338.446 99.048 339.374 98.632C340.318 98.2 341.326 97.984 342.398 97.984C343.374 97.984 344.214 98.096 344.918 98.32C345.622 98.544 346.198 98.864 346.646 99.28C347.11 99.68 347.446 100.176 347.654 100.768C347.878 101.344 347.99 102 347.99 102.736ZM354.911 113.104C354.911 113.824 354.679 114.376 354.215 114.76C353.767 115.128 353.255 115.312 352.679 115.312C352.103 115.312 351.583 115.128 351.119 114.76C350.671 114.376 350.447 113.824 350.447 113.104C350.447 112.384 350.671 111.84 351.119 111.472C351.583 111.088 352.103 110.896 352.679 110.896C353.255 110.896 353.767 111.088 354.215 111.472C354.679 111.84 354.911 112.384 354.911 113.104ZM363.289 102.736C362.665 103.552 362.001 104.44 361.297 105.4C360.593 106.36 360.001 107.344 359.521 108.352H363.289V102.736ZM366.793 98.368V108.352H368.569V111.28H366.793V115H363.289V111.28H356.113V108.664C356.465 107.96 356.905 107.168 357.433 106.288C357.961 105.392 358.545 104.48 359.185 103.552C359.841 102.608 360.529 101.688 361.249 100.792C361.969 99.896 362.689 99.088 363.409 98.368H366.793ZM372.681 115C372.777 113.832 372.977 112.616 373.281 111.352C373.585 110.088 373.953 108.848 374.385 107.632C374.833 106.416 375.329 105.272 375.873 104.2C376.417 103.112 376.969 102.176 377.529 101.392H370.305V98.344H381.945V100.936C381.433 101.496 380.865 102.272 380.241 103.264C379.633 104.256 379.049 105.384 378.489 106.648C377.945 107.896 377.465 109.24 377.049 110.68C376.649 112.12 376.401 113.56 376.305 115H372.681ZM394.818 102.736C394.818 103.344 394.698 103.928 394.458 104.488C394.218 105.048 393.906 105.592 393.522 106.12C393.138 106.632 392.706 107.128 392.226 107.608C391.746 108.088 391.274 108.544 390.81 108.976C390.57 109.2 390.306 109.456 390.018 109.744C389.746 110.016 389.482 110.296 389.226 110.584C388.97 110.872 388.738 111.144 388.53 111.4C388.338 111.64 388.218 111.84 388.17 112H395.322V115H384.234C384.202 114.824 384.186 114.6 384.186 114.328C384.186 114.056 384.186 113.864 384.186 113.752C384.186 112.984 384.306 112.28 384.546 111.64C384.802 111 385.13 110.408 385.53 109.864C385.93 109.304 386.378 108.784 386.874 108.304C387.386 107.824 387.89 107.344 388.386 106.864C388.77 106.496 389.13 106.152 389.466 105.832C389.802 105.496 390.098 105.176 390.354 104.872C390.61 104.552 390.81 104.24 390.954 103.936C391.098 103.616 391.17 103.296 391.17 102.976C391.17 102.272 390.97 101.776 390.57 101.488C390.17 101.2 389.674 101.056 389.082 101.056C388.65 101.056 388.242 101.128 387.858 101.272C387.49 101.4 387.146 101.56 386.826 101.752C386.522 101.928 386.258 102.112 386.034 102.304C385.81 102.48 385.642 102.624 385.53 102.736L383.754 100.24C384.458 99.584 385.274 99.048 386.202 98.632C387.146 98.2 388.154 97.984 389.226 97.984C390.202 97.984 391.042 98.096 391.746 98.32C392.45 98.544 393.026 98.864 393.474 99.28C393.938 99.68 394.274 100.176 394.482 100.768C394.706 101.344 394.818 102 394.818 102.736ZM403.491 106.072C403.859 106.072 404.243 106.04 404.643 105.976C405.043 105.896 405.339 105.792 405.531 105.664V105.448C405.531 105.384 405.531 105.32 405.531 105.256C405.547 105.192 405.555 105.136 405.555 105.088C405.539 104.512 405.491 103.976 405.411 103.48C405.331 102.968 405.195 102.528 405.003 102.16C404.811 101.776 404.547 101.48 404.211 101.272C403.891 101.048 403.491 100.936 403.011 100.936C402.627 100.936 402.291 101.016 402.003 101.176C401.715 101.336 401.483 101.544 401.307 101.8C401.131 102.056 400.995 102.336 400.899 102.64C400.819 102.944 400.779 103.24 400.779 103.528C400.779 104.392 400.987 105.032 401.403 105.448C401.835 105.864 402.531 106.072 403.491 106.072ZM405.243 108.4C404.907 108.56 404.531 108.68 404.115 108.76C403.715 108.824 403.371 108.856 403.083 108.856C402.043 108.856 401.155 108.736 400.419 108.496C399.683 108.24 399.075 107.888 398.595 107.44C398.131 106.976 397.787 106.424 397.563 105.784C397.339 105.144 397.227 104.44 397.227 103.672C397.227 103.032 397.331 102.376 397.539 101.704C397.763 101.032 398.107 100.424 398.571 99.88C399.035 99.32 399.619 98.864 400.323 98.512C401.043 98.144 401.907 97.96 402.915 97.96C404.979 97.96 406.531 98.6 407.571 99.88C408.627 101.144 409.155 102.968 409.155 105.352C409.155 106.92 408.947 108.304 408.531 109.504C408.131 110.704 407.499 111.712 406.635 112.528C405.787 113.344 404.699 113.968 403.371 114.4C402.043 114.816 400.467 115.032 398.643 115.048C398.627 114.536 398.603 114.04 398.571 113.56C398.539 113.08 398.507 112.584 398.475 112.072C399.387 112.056 400.211 111.992 400.947 111.88C401.683 111.752 402.331 111.552 402.891 111.28C403.451 110.992 403.923 110.616 404.307 110.152C404.707 109.688 405.019 109.104 405.243 108.4ZM327.189 156V131.052H344.037V135.768H332.805V140.664H342.777V145.272H332.805V151.284H344.865V156H327.189ZM367.525 131.052V135.84H360.001V156H354.385V135.84H346.861V131.052H367.525ZM386.182 131.052H391.798V156H386.182V145.416H376.75V156H371.134V131.052H376.75V140.592H386.182V131.052Z" fill="#4277A9"/>
<path d="M88.0465 120.754V123.68H83.4485V136H80.0165V123.68H75.4185V120.754H88.0465ZM99.2019 130.192C99.2019 131.101 99.0699 131.937 98.8059 132.7C98.5419 133.448 98.1606 134.093 97.6619 134.636C97.1632 135.164 96.5619 135.575 95.8579 135.868C95.1686 136.161 94.3912 136.308 93.5259 136.308C92.6752 136.308 91.8979 136.161 91.1939 135.868C90.5046 135.575 89.9106 135.164 89.4119 134.636C88.9132 134.093 88.5246 133.448 88.2459 132.7C87.9672 131.937 87.8279 131.101 87.8279 130.192C87.8279 129.283 87.9672 128.454 88.2459 127.706C88.5392 126.958 88.9352 126.32 89.4339 125.792C89.9472 125.264 90.5486 124.853 91.2379 124.56C91.9419 124.267 92.7046 124.12 93.5259 124.12C94.3619 124.12 95.1246 124.267 95.8139 124.56C96.5179 124.853 97.1192 125.264 97.6179 125.792C98.1166 126.32 98.5052 126.958 98.7839 127.706C99.0626 128.454 99.2019 129.283 99.2019 130.192ZM95.8579 130.192C95.8579 129.18 95.6526 128.388 95.2419 127.816C94.8459 127.229 94.2739 126.936 93.5259 126.936C92.7779 126.936 92.1986 127.229 91.7879 127.816C91.3772 128.388 91.1719 129.18 91.1719 130.192C91.1719 131.204 91.3772 132.011 91.7879 132.612C92.1986 133.199 92.7779 133.492 93.5259 133.492C94.2739 133.492 94.8459 133.199 95.2419 132.612C95.6526 132.011 95.8579 131.204 95.8579 130.192ZM101.631 121.546L104.909 121.018V124.428H108.847V127.156H104.909V131.226C104.909 131.915 105.027 132.465 105.261 132.876C105.511 133.287 106.002 133.492 106.735 133.492C107.087 133.492 107.447 133.463 107.813 133.404C108.195 133.331 108.539 133.235 108.847 133.118L109.309 135.67C108.913 135.831 108.473 135.971 107.989 136.088C107.505 136.205 106.911 136.264 106.207 136.264C105.313 136.264 104.572 136.147 103.985 135.912C103.399 135.663 102.929 135.325 102.577 134.9C102.225 134.46 101.976 133.932 101.829 133.316C101.697 132.7 101.631 132.018 101.631 131.27V121.546ZM115.509 133.712C115.832 133.712 116.14 133.705 116.433 133.69C116.726 133.675 116.961 133.653 117.137 133.624V131.138C117.005 131.109 116.807 131.079 116.543 131.05C116.279 131.021 116.037 131.006 115.817 131.006C115.509 131.006 115.216 131.028 114.937 131.072C114.673 131.101 114.438 131.167 114.233 131.27C114.028 131.373 113.866 131.512 113.749 131.688C113.632 131.864 113.573 132.084 113.573 132.348C113.573 132.861 113.742 133.221 114.079 133.426C114.431 133.617 114.908 133.712 115.509 133.712ZM115.245 124.12C116.213 124.12 117.02 124.23 117.665 124.45C118.31 124.67 118.824 124.985 119.205 125.396C119.601 125.807 119.88 126.305 120.041 126.892C120.202 127.479 120.283 128.131 120.283 128.85V135.67C119.814 135.773 119.161 135.89 118.325 136.022C117.489 136.169 116.477 136.242 115.289 136.242C114.541 136.242 113.859 136.176 113.243 136.044C112.642 135.912 112.121 135.699 111.681 135.406C111.241 135.098 110.904 134.702 110.669 134.218C110.434 133.734 110.317 133.14 110.317 132.436C110.317 131.761 110.449 131.189 110.713 130.72C110.992 130.251 111.358 129.877 111.813 129.598C112.268 129.319 112.788 129.121 113.375 129.004C113.962 128.872 114.57 128.806 115.201 128.806C115.626 128.806 116 128.828 116.323 128.872C116.66 128.901 116.932 128.945 117.137 129.004V128.696C117.137 128.139 116.968 127.691 116.631 127.354C116.294 127.017 115.707 126.848 114.871 126.848C114.314 126.848 113.764 126.892 113.221 126.98C112.678 127.053 112.209 127.163 111.813 127.31L111.395 124.67C111.586 124.611 111.82 124.553 112.099 124.494C112.392 124.421 112.708 124.362 113.045 124.318C113.382 124.259 113.734 124.215 114.101 124.186C114.482 124.142 114.864 124.12 115.245 124.12ZM127.867 136.22C126.914 136.205 126.136 136.103 125.535 135.912C124.948 135.721 124.479 135.457 124.127 135.12C123.79 134.768 123.555 134.35 123.423 133.866C123.306 133.367 123.247 132.81 123.247 132.194V119.456L126.525 118.928V131.534C126.525 131.827 126.547 132.091 126.591 132.326C126.635 132.561 126.716 132.759 126.833 132.92C126.965 133.081 127.148 133.213 127.383 133.316C127.618 133.419 127.933 133.485 128.329 133.514L127.867 136.22ZM135.713 136V120.754H145.921V123.636H139.145V126.826H145.173V129.708H139.145V136H135.713ZM157.574 135.604C157.017 135.765 156.298 135.912 155.418 136.044C154.538 136.191 153.614 136.264 152.646 136.264C151.664 136.264 150.842 136.132 150.182 135.868C149.537 135.604 149.024 135.237 148.642 134.768C148.261 134.284 147.99 133.712 147.828 133.052C147.667 132.392 147.586 131.666 147.586 130.874V124.428H150.864V130.478C150.864 131.534 151.004 132.297 151.282 132.766C151.561 133.235 152.082 133.47 152.844 133.47C153.079 133.47 153.328 133.463 153.592 133.448C153.856 133.419 154.091 133.389 154.296 133.36V124.428H157.574V135.604ZM160.651 124.824C161.209 124.663 161.927 124.516 162.807 124.384C163.687 124.237 164.611 124.164 165.579 124.164C166.562 124.164 167.376 124.296 168.021 124.56C168.681 124.809 169.202 125.169 169.583 125.638C169.965 126.107 170.236 126.665 170.397 127.31C170.559 127.955 170.639 128.674 170.639 129.466V136H167.361V129.862C167.361 128.806 167.222 128.058 166.943 127.618C166.665 127.178 166.144 126.958 165.381 126.958C165.147 126.958 164.897 126.973 164.633 127.002C164.369 127.017 164.135 127.039 163.929 127.068V136H160.651V124.824ZM176.4 130.126C176.4 131.138 176.628 131.952 177.082 132.568C177.537 133.184 178.212 133.492 179.106 133.492C179.4 133.492 179.671 133.485 179.92 133.47C180.17 133.441 180.375 133.411 180.536 133.382V127.42C180.331 127.288 180.06 127.178 179.722 127.09C179.4 127.002 179.07 126.958 178.732 126.958C177.178 126.958 176.4 128.014 176.4 130.126ZM183.814 135.626C183.521 135.714 183.184 135.802 182.802 135.89C182.421 135.963 182.018 136.029 181.592 136.088C181.182 136.147 180.756 136.191 180.316 136.22C179.891 136.264 179.48 136.286 179.084 136.286C178.131 136.286 177.28 136.147 176.532 135.868C175.784 135.589 175.154 135.193 174.64 134.68C174.127 134.152 173.731 133.521 173.452 132.788C173.188 132.04 173.056 131.204 173.056 130.28C173.056 129.341 173.174 128.498 173.408 127.75C173.643 126.987 173.98 126.342 174.42 125.814C174.86 125.286 175.396 124.883 176.026 124.604C176.672 124.325 177.405 124.186 178.226 124.186C178.681 124.186 179.084 124.23 179.436 124.318C179.803 124.406 180.17 124.531 180.536 124.692V119.456L183.814 118.928V135.626ZM190.206 133.646C190.807 133.646 191.232 133.587 191.482 133.47C191.731 133.353 191.856 133.125 191.856 132.788C191.856 132.524 191.694 132.297 191.372 132.106C191.049 131.901 190.558 131.673 189.898 131.424C189.384 131.233 188.915 131.035 188.49 130.83C188.079 130.625 187.727 130.383 187.434 130.104C187.14 129.811 186.913 129.466 186.752 129.07C186.59 128.674 186.51 128.197 186.51 127.64C186.51 126.555 186.913 125.697 187.72 125.066C188.526 124.435 189.634 124.12 191.042 124.12C191.746 124.12 192.42 124.186 193.066 124.318C193.711 124.435 194.224 124.567 194.606 124.714L194.034 127.266C193.652 127.134 193.234 127.017 192.78 126.914C192.34 126.811 191.841 126.76 191.284 126.76C190.257 126.76 189.744 127.046 189.744 127.618C189.744 127.75 189.766 127.867 189.81 127.97C189.854 128.073 189.942 128.175 190.074 128.278C190.206 128.366 190.382 128.469 190.602 128.586C190.836 128.689 191.13 128.806 191.482 128.938C192.2 129.202 192.794 129.466 193.264 129.73C193.733 129.979 194.1 130.258 194.364 130.566C194.642 130.859 194.833 131.189 194.936 131.556C195.053 131.923 195.112 132.348 195.112 132.832C195.112 133.976 194.679 134.841 193.814 135.428C192.963 136.015 191.753 136.308 190.184 136.308C189.157 136.308 188.299 136.22 187.61 136.044C186.935 135.868 186.466 135.721 186.202 135.604L186.752 132.942C187.309 133.162 187.881 133.338 188.468 133.47C189.054 133.587 189.634 133.646 190.206 133.646Z" fill="black"/>
</g>
<defs>
<clipPath id="clip0">
<rect width="720" height="259" fill="white"/>
</clipPath>
</defs>
</svg>
