<svg width="720" height="361" viewBox="0 0 720 361" fill="none" xmlns="http://www.w3.org/2000/svg">
<path d="M53.491 276.56H698.042" stroke="black"/>
<path d="M53.491 284.33V276.56" stroke="black"/>
<path d="M53.6465 286.469L56.4355 293.43L59.2246 286.469H60.6836V295H59.5586V291.678L59.6641 288.092L56.8633 295H56.002L53.207 288.109L53.3184 291.678V295H52.1934V286.469H53.6465ZM66.4141 295C66.3516 294.875 66.3008 294.652 66.2617 294.332C65.7578 294.855 65.1562 295.117 64.457 295.117C63.832 295.117 63.3184 294.941 62.916 294.59C62.5176 294.234 62.3184 293.785 62.3184 293.242C62.3184 292.582 62.5684 292.07 63.0684 291.707C63.5723 291.34 64.2793 291.156 65.1895 291.156H66.2441V290.658C66.2441 290.279 66.1309 289.979 65.9043 289.756C65.6777 289.529 65.3438 289.416 64.9023 289.416C64.5156 289.416 64.1914 289.514 63.9297 289.709C63.668 289.904 63.5371 290.141 63.5371 290.418H62.4473C62.4473 290.102 62.5586 289.797 62.7812 289.504C63.0078 289.207 63.3125 288.973 63.6953 288.801C64.082 288.629 64.5059 288.543 64.9668 288.543C65.6973 288.543 66.2695 288.727 66.6836 289.094C67.0977 289.457 67.3125 289.959 67.3281 290.6V293.518C67.3281 294.1 67.4023 294.562 67.5508 294.906V295H66.4141ZM64.6152 294.174C64.9551 294.174 65.2773 294.086 65.582 293.91C65.8867 293.734 66.1074 293.506 66.2441 293.225V291.924H65.3945C64.0664 291.924 63.4023 292.312 63.4023 293.09C63.4023 293.43 63.5156 293.695 63.7422 293.887C63.9688 294.078 64.2598 294.174 64.6152 294.174ZM71.0078 293.412L72.4844 288.66H73.6445L71.0957 295.979C70.7012 297.033 70.0742 297.561 69.2148 297.561L69.0098 297.543L68.6055 297.467V296.588L68.8984 296.611C69.2656 296.611 69.5508 296.537 69.7539 296.389C69.9609 296.24 70.1309 295.969 70.2637 295.574L70.5039 294.93L68.2422 288.66H69.4258L71.0078 293.412Z" fill="black"/>
<path d="M182.401 284.33V276.56" stroke="black"/>
<path d="M177.133 286.469H178.264V292.51C178.264 293.326 178.018 293.965 177.525 294.426C177.037 294.887 176.385 295.117 175.568 295.117C174.721 295.117 174.061 294.9 173.588 294.467C173.115 294.033 172.879 293.426 172.879 292.645H174.004C174.004 293.133 174.137 293.514 174.402 293.787C174.672 294.061 175.061 294.197 175.568 294.197C176.033 294.197 176.408 294.051 176.693 293.758C176.982 293.465 177.129 293.055 177.133 292.527V286.469ZM183.924 294.373C183.502 294.869 182.883 295.117 182.066 295.117C181.391 295.117 180.875 294.922 180.52 294.531C180.168 294.137 179.99 293.555 179.986 292.785V288.66H181.07V292.756C181.07 293.717 181.461 294.197 182.242 294.197C183.07 294.197 183.621 293.889 183.895 293.271V288.66H184.979V295H183.947L183.924 294.373ZM187.656 288.66L187.691 289.457C188.176 288.848 188.809 288.543 189.59 288.543C190.93 288.543 191.605 289.299 191.617 290.811V295H190.533V290.805C190.529 290.348 190.424 290.01 190.217 289.791C190.014 289.572 189.695 289.463 189.262 289.463C188.91 289.463 188.602 289.557 188.336 289.744C188.07 289.932 187.863 290.178 187.715 290.482V295H186.631V288.66H187.656Z" fill="black"/>
<path d="M311.311 284.33V276.56" stroke="black"/>
<path d="M307.984 286.469H309.115V292.51C309.115 293.326 308.869 293.965 308.377 294.426C307.889 294.887 307.236 295.117 306.42 295.117C305.572 295.117 304.912 294.9 304.439 294.467C303.967 294.033 303.73 293.426 303.73 292.645H304.855C304.855 293.133 304.988 293.514 305.254 293.787C305.523 294.061 305.912 294.197 306.42 294.197C306.885 294.197 307.26 294.051 307.545 293.758C307.834 293.465 307.98 293.055 307.984 292.527V286.469ZM314.775 294.373C314.354 294.869 313.734 295.117 312.918 295.117C312.242 295.117 311.727 294.922 311.371 294.531C311.02 294.137 310.842 293.555 310.838 292.785V288.66H311.922V292.756C311.922 293.717 312.312 294.197 313.094 294.197C313.922 294.197 314.473 293.889 314.746 293.271V288.66H315.83V295H314.799L314.775 294.373ZM318.66 295H317.576V286H318.66V295Z" fill="black"/>
<path d="M440.222 284.33V276.56" stroke="black"/>
<path d="M435.143 292.773H431.568L430.766 295H429.605L432.863 286.469H433.848L437.111 295H435.957L435.143 292.773ZM431.908 291.848H434.809L433.355 287.857L431.908 291.848ZM441.934 294.373C441.512 294.869 440.893 295.117 440.076 295.117C439.4 295.117 438.885 294.922 438.529 294.531C438.178 294.137 438 293.555 437.996 292.785V288.66H439.08V292.756C439.08 293.717 439.471 294.197 440.252 294.197C441.08 294.197 441.631 293.889 441.904 293.271V288.66H442.988V295H441.957L441.934 294.373ZM444.383 291.777C444.383 290.789 444.611 290.004 445.068 289.422C445.525 288.836 446.131 288.543 446.885 288.543C447.658 288.543 448.262 288.816 448.695 289.363L448.748 288.66H449.738V294.848C449.738 295.668 449.494 296.314 449.006 296.787C448.521 297.26 447.869 297.496 447.049 297.496C446.592 297.496 446.145 297.398 445.707 297.203C445.27 297.008 444.936 296.74 444.705 296.4L445.268 295.75C445.732 296.324 446.301 296.611 446.973 296.611C447.5 296.611 447.91 296.463 448.203 296.166C448.5 295.869 448.648 295.451 448.648 294.912V294.367C448.215 294.867 447.623 295.117 446.873 295.117C446.131 295.117 445.529 294.818 445.068 294.221C444.611 293.623 444.383 292.809 444.383 291.777ZM445.473 291.9C445.473 292.615 445.619 293.178 445.912 293.588C446.205 293.994 446.615 294.197 447.143 294.197C447.826 294.197 448.328 293.887 448.648 293.266V290.371C448.316 289.766 447.818 289.463 447.154 289.463C446.627 289.463 446.215 289.668 445.918 290.078C445.621 290.488 445.473 291.096 445.473 291.9Z" fill="black"/>
<path d="M569.132 284.33V276.56" stroke="black"/>
<path d="M562.391 291.197C561.426 290.92 560.723 290.58 560.281 290.178C559.844 289.771 559.625 289.271 559.625 288.678C559.625 288.006 559.893 287.451 560.428 287.014C560.967 286.572 561.666 286.352 562.525 286.352C563.111 286.352 563.633 286.465 564.09 286.691C564.551 286.918 564.906 287.23 565.156 287.629C565.41 288.027 565.537 288.463 565.537 288.936H564.406C564.406 288.42 564.242 288.016 563.914 287.723C563.586 287.426 563.123 287.277 562.525 287.277C561.971 287.277 561.537 287.4 561.225 287.646C560.916 287.889 560.762 288.227 560.762 288.66C560.762 289.008 560.908 289.303 561.201 289.545C561.498 289.783 562 290.002 562.707 290.201C563.418 290.4 563.973 290.621 564.371 290.863C564.773 291.102 565.07 291.381 565.262 291.701C565.457 292.021 565.555 292.398 565.555 292.832C565.555 293.523 565.285 294.078 564.746 294.496C564.207 294.91 563.486 295.117 562.584 295.117C561.998 295.117 561.451 295.006 560.943 294.783C560.436 294.557 560.043 294.248 559.766 293.857C559.492 293.467 559.355 293.023 559.355 292.527H560.486C560.486 293.043 560.676 293.451 561.055 293.752C561.438 294.049 561.947 294.197 562.584 294.197C563.178 294.197 563.633 294.076 563.949 293.834C564.266 293.592 564.424 293.262 564.424 292.844C564.424 292.426 564.277 292.104 563.984 291.877C563.691 291.646 563.16 291.42 562.391 291.197ZM569.463 295.117C568.604 295.117 567.904 294.836 567.365 294.273C566.826 293.707 566.557 292.951 566.557 292.006V291.807C566.557 291.178 566.676 290.617 566.914 290.125C567.156 289.629 567.492 289.242 567.922 288.965C568.355 288.684 568.824 288.543 569.328 288.543C570.152 288.543 570.793 288.814 571.25 289.357C571.707 289.9 571.936 290.678 571.936 291.689V292.141H567.641C567.656 292.766 567.838 293.271 568.186 293.658C568.537 294.041 568.982 294.232 569.521 294.232C569.904 294.232 570.229 294.154 570.494 293.998C570.76 293.842 570.992 293.635 571.191 293.377L571.854 293.893C571.322 294.709 570.525 295.117 569.463 295.117ZM569.328 289.434C568.891 289.434 568.523 289.594 568.227 289.914C567.93 290.23 567.746 290.676 567.676 291.25H570.852V291.168C570.82 290.617 570.672 290.191 570.406 289.891C570.141 289.586 569.781 289.434 569.328 289.434ZM578.551 291.9C578.551 292.865 578.33 293.643 577.889 294.232C577.447 294.822 576.85 295.117 576.096 295.117C575.326 295.117 574.721 294.873 574.279 294.385V297.438H573.195V288.66H574.186L574.238 289.363C574.68 288.816 575.293 288.543 576.078 288.543C576.84 288.543 577.441 288.83 577.883 289.404C578.328 289.979 578.551 290.777 578.551 291.801V291.9ZM577.467 291.777C577.467 291.062 577.314 290.498 577.01 290.084C576.705 289.67 576.287 289.463 575.756 289.463C575.1 289.463 574.607 289.754 574.279 290.336V293.365C574.604 293.943 575.1 294.232 575.768 294.232C576.287 294.232 576.699 294.027 577.004 293.617C577.312 293.203 577.467 292.59 577.467 291.777Z" fill="black"/>
<path d="M698.042 284.33V276.56" stroke="black"/>
<path d="M696.324 291.01C696.324 291.846 696.184 292.576 695.902 293.201C695.621 293.822 695.223 294.297 694.707 294.625C694.191 294.953 693.59 295.117 692.902 295.117C692.23 295.117 691.635 294.953 691.115 294.625C690.596 294.293 690.191 293.822 689.902 293.213C689.617 292.6 689.471 291.891 689.463 291.086V290.471C689.463 289.65 689.605 288.926 689.891 288.297C690.176 287.668 690.578 287.188 691.098 286.855C691.621 286.52 692.219 286.352 692.891 286.352C693.574 286.352 694.176 286.518 694.695 286.85C695.219 287.178 695.621 287.656 695.902 288.285C696.184 288.91 696.324 289.639 696.324 290.471V291.01ZM695.205 290.459C695.205 289.447 695.002 288.672 694.596 288.133C694.189 287.59 693.621 287.318 692.891 287.318C692.18 287.318 691.619 287.59 691.209 288.133C690.803 288.672 690.594 289.422 690.582 290.383V291.01C690.582 291.99 690.787 292.762 691.197 293.324C691.611 293.883 692.18 294.162 692.902 294.162C693.629 294.162 694.191 293.898 694.59 293.371C694.988 292.84 695.193 292.08 695.205 291.092V290.459ZM700.385 294.232C700.771 294.232 701.109 294.115 701.398 293.881C701.688 293.646 701.848 293.354 701.879 293.002H702.904C702.885 293.365 702.76 293.711 702.529 294.039C702.299 294.367 701.99 294.629 701.604 294.824C701.221 295.02 700.814 295.117 700.385 295.117C699.521 295.117 698.834 294.83 698.322 294.256C697.814 293.678 697.561 292.889 697.561 291.889V291.707C697.561 291.09 697.674 290.541 697.9 290.061C698.127 289.58 698.451 289.207 698.873 288.941C699.299 288.676 699.801 288.543 700.379 288.543C701.09 288.543 701.68 288.756 702.148 289.182C702.621 289.607 702.873 290.16 702.904 290.84H701.879C701.848 290.43 701.691 290.094 701.41 289.832C701.133 289.566 700.789 289.434 700.379 289.434C699.828 289.434 699.4 289.633 699.096 290.031C698.795 290.426 698.645 290.998 698.645 291.748V291.953C698.645 292.684 698.795 293.246 699.096 293.641C699.396 294.035 699.826 294.232 700.385 294.232ZM705.594 287.125V288.66H706.777V289.498H705.594V293.43C705.594 293.684 705.646 293.875 705.752 294.004C705.857 294.129 706.037 294.191 706.291 294.191C706.416 294.191 706.588 294.168 706.807 294.121V295C706.521 295.078 706.244 295.117 705.975 295.117C705.49 295.117 705.125 294.971 704.879 294.678C704.633 294.385 704.51 293.969 704.51 293.43V289.498H703.355V288.66H704.51V287.125H705.594Z" fill="black"/>
<path d="M53.491 69.36V276.56" stroke="black"/>
<path d="M47.024 276.56H53.4911" stroke="black"/>
<path d="M40.9551 268.381C40.9551 269.651 40.7383 270.594 40.3047 271.211C39.8711 271.829 39.1934 272.137 38.2715 272.137C37.3613 272.137 36.6875 271.836 36.25 271.235C35.8125 270.629 35.5859 269.727 35.5703 268.528V267.081C35.5703 265.827 35.7871 264.895 36.2207 264.286C36.6543 263.676 37.334 263.372 38.2598 263.372C39.1777 263.372 39.8535 263.666 40.2871 264.256C40.7207 264.842 40.9434 265.749 40.9551 266.975V268.381ZM39.8711 266.899C39.8711 265.981 39.7422 265.313 39.4844 264.895C39.2266 264.473 38.8184 264.262 38.2598 264.262C37.7051 264.262 37.3008 264.471 37.0469 264.889C36.793 265.307 36.6621 265.95 36.6543 266.817V268.551C36.6543 269.473 36.7871 270.155 37.0527 270.596C37.3223 271.034 37.7285 271.252 38.2715 271.252C38.8066 271.252 39.2031 271.045 39.4609 270.631C39.7226 270.217 39.8594 269.565 39.8711 268.674V266.899Z" fill="black"/>
<path d="M47.024 224.76H53.4911" stroke="black"/>
<path d="M30.4433 215.427H31.2578C31.7695 215.419 32.1719 215.284 32.4648 215.023C32.7578 214.761 32.9043 214.408 32.9043 213.962C32.9043 212.962 32.4062 212.462 31.4101 212.462C30.9414 212.462 30.5664 212.597 30.2851 212.866C30.0078 213.132 29.8691 213.486 29.8691 213.927H28.7851C28.7851 213.251 29.0312 212.691 29.5234 212.245C30.0195 211.796 30.6484 211.572 31.4101 211.572C32.2148 211.572 32.8457 211.784 33.3027 212.21C33.7597 212.636 33.9883 213.228 33.9883 213.986C33.9883 214.357 33.8672 214.716 33.625 215.064C33.3867 215.411 33.0605 215.671 32.6465 215.843C33.1152 215.991 33.4765 216.238 33.7304 216.581C33.9883 216.925 34.1172 217.345 34.1172 217.841C34.1172 218.607 33.8672 219.214 33.3672 219.663C32.8672 220.113 32.2168 220.337 31.416 220.337C30.6152 220.337 29.9629 220.12 29.459 219.687C28.959 219.253 28.709 218.681 28.709 217.97H29.7988C29.7988 218.419 29.9453 218.779 30.2383 219.048C30.5312 219.318 30.9238 219.452 31.416 219.452C31.9394 219.452 32.3398 219.316 32.6172 219.042C32.8945 218.769 33.0332 218.376 33.0332 217.865C33.0332 217.368 32.8808 216.988 32.5761 216.722C32.2715 216.456 31.832 216.32 31.2578 216.312H30.4433V215.427ZM36.1035 215.943L36.5371 211.689H40.9082V212.691H37.457L37.1992 215.017C37.6172 214.771 38.0918 214.648 38.623 214.648C39.4004 214.648 40.0176 214.906 40.4746 215.421C40.9316 215.933 41.1601 216.626 41.1601 217.501C41.1601 218.38 40.9219 219.074 40.4453 219.581C39.9726 220.085 39.3105 220.337 38.459 220.337C37.7051 220.337 37.0898 220.128 36.6133 219.71C36.1367 219.292 35.8652 218.714 35.7988 217.976H36.8242C36.8906 218.464 37.0644 218.833 37.3457 219.083C37.6269 219.329 37.998 219.452 38.459 219.452C38.9629 219.452 39.3574 219.281 39.6426 218.937C39.9316 218.593 40.0761 218.118 40.0761 217.513C40.0761 216.943 39.9199 216.486 39.6074 216.142C39.2988 215.794 38.8867 215.62 38.3711 215.62C37.8984 215.62 37.5273 215.724 37.2578 215.931L36.9707 216.165L36.1035 215.943Z" fill="black"/>
<path d="M47.024 172.96H53.4911" stroke="black"/>
<path d="M34.375 160.498L30.8418 168.42H29.7051L33.2265 160.779H28.6094V159.889H34.375V160.498ZM40.9551 164.781C40.9551 166.051 40.7383 166.994 40.3047 167.611C39.8711 168.229 39.1933 168.537 38.2715 168.537C37.3613 168.537 36.6875 168.236 36.25 167.635C35.8125 167.029 35.5859 166.127 35.5703 164.928V163.481C35.5703 162.227 35.7871 161.295 36.2207 160.686C36.6543 160.076 37.334 159.772 38.2597 159.772C39.1777 159.772 39.8535 160.066 40.2871 160.656C40.7207 161.242 40.9433 162.149 40.9551 163.375V164.781ZM39.8711 163.299C39.8711 162.381 39.7422 161.713 39.4844 161.295C39.2265 160.873 38.8183 160.662 38.2597 160.662C37.7051 160.662 37.3008 160.871 37.0469 161.289C36.7929 161.707 36.6621 162.35 36.6543 163.217V164.951C36.6543 165.873 36.7871 166.555 37.0527 166.996C37.3222 167.434 37.7285 167.652 38.2715 167.652C38.8066 167.652 39.2031 167.445 39.4609 167.031C39.7226 166.617 39.8594 165.965 39.8711 165.074V163.299Z" fill="black"/>
<path d="M47.0239 121.16H53.491" stroke="black"/>
<path d="M25.6914 116.62H24.6015V109.395L22.416 110.198V109.214L25.5215 108.048H25.6914V116.62ZM34.2168 112.981C34.2168 114.251 34 115.194 33.5664 115.811C33.1328 116.429 32.455 116.737 31.5332 116.737C30.623 116.737 29.9492 116.436 29.5117 115.835C29.0742 115.229 28.8476 114.327 28.832 113.128V111.681C28.832 110.427 29.0488 109.495 29.4824 108.886C29.916 108.276 30.5957 107.972 31.5215 107.972C32.4394 107.972 33.1152 108.266 33.5488 108.856C33.9824 109.442 34.205 110.349 34.2168 111.575V112.981ZM33.1328 111.499C33.1328 110.581 33.0039 109.913 32.7461 109.495C32.4882 109.073 32.08 108.862 31.5215 108.862C30.9668 108.862 30.5625 109.071 30.3086 109.489C30.0547 109.907 29.9238 110.55 29.916 111.417V113.151C29.916 114.073 30.0488 114.755 30.3144 115.196C30.584 115.634 30.9902 115.852 31.5332 115.852C32.0683 115.852 32.4648 115.645 32.7226 115.231C32.9843 114.817 33.1211 114.165 33.1328 113.274V111.499ZM36.1035 112.343L36.5371 108.089H40.9082V109.091H37.457L37.1992 111.417C37.6172 111.171 38.0918 111.048 38.623 111.048C39.4004 111.048 40.0175 111.306 40.4746 111.821C40.9316 112.333 41.1601 113.026 41.1601 113.901C41.1601 114.78 40.9218 115.474 40.4453 115.981C39.9726 116.485 39.3105 116.737 38.459 116.737C37.705 116.737 37.0898 116.528 36.6132 116.11C36.1367 115.692 35.8652 115.114 35.7988 114.376H36.8242C36.8906 114.864 37.0644 115.233 37.3457 115.483C37.6269 115.729 37.998 115.852 38.459 115.852C38.9629 115.852 39.3574 115.681 39.6425 115.337C39.9316 114.993 40.0761 114.518 40.0761 113.913C40.0761 113.343 39.9199 112.886 39.6074 112.542C39.2988 112.194 38.8867 112.02 38.3711 112.02C37.8984 112.02 37.5273 112.124 37.2578 112.331L36.9707 112.565L36.1035 112.343Z" fill="black"/>
<path d="M47.0239 69.36H53.491" stroke="black"/>
<path d="M26.0566 70H24.9668V62.7754L22.7812 63.5781V62.5938L25.8867 61.4277H26.0566V70ZM33.8086 67.1348H34.9922V68.0195H33.8086V70H32.7188V68.0195H28.834V67.3809L32.6543 61.4688H33.8086V67.1348ZM30.0645 67.1348H32.7188V62.9512L32.5898 63.1855L30.0645 67.1348ZM41.3203 66.3613C41.3203 67.6309 41.1035 68.5742 40.6699 69.1914C40.2363 69.8086 39.5586 70.1172 38.6367 70.1172C37.7266 70.1172 37.0527 69.8164 36.6152 69.2148C36.1777 68.6094 35.9512 67.707 35.9355 66.5078V65.0605C35.9355 63.8066 36.1523 62.875 36.5859 62.2656C37.0195 61.6562 37.6992 61.3516 38.625 61.3516C39.543 61.3516 40.2188 61.6465 40.6523 62.2363C41.0859 62.8223 41.3086 63.7285 41.3203 64.9551V66.3613ZM40.2363 64.8789C40.2363 63.9609 40.1074 63.293 39.8496 62.875C39.5918 62.4531 39.1836 62.2422 38.625 62.2422C38.0703 62.2422 37.666 62.4512 37.4121 62.8691C37.1582 63.2871 37.0273 63.9297 37.0195 64.7969V66.5312C37.0195 67.4531 37.1523 68.1348 37.418 68.5762C37.6875 69.0137 38.0938 69.2324 38.6367 69.2324C39.1719 69.2324 39.5684 69.0254 39.8262 68.6113C40.0879 68.1973 40.2246 67.5449 40.2363 66.6543V64.8789ZM25.1602 80.0566H21.4629V83.0801H25.7578V84H20.3379V75.4688H25.6992V76.3945H21.4629V79.1367H25.1602V80.0566ZM33.1699 76.3945H30.4277V84H29.3086V76.3945H26.5723V75.4688H33.1699V76.3945ZM40.9922 84H39.8613V80.0566H35.5605V84H34.4355V75.4688H35.5605V79.1367H39.8613V75.4688H40.9922V84Z" fill="black"/>
<path d="M53.491 276.56H698.042" stroke="#CCCCCC"/>
<path d="M53.491 224.76H698.042" stroke="#CCCCCC"/>
<path d="M53.491 172.96H698.042" stroke="#CCCCCC"/>
<path d="M53.491 121.16H698.042" stroke="#CCCCCC"/>
<path d="M53.491 69.36H698.042" stroke="#CCCCCC"/>
<path d="M53.491 69.36V276.56" stroke="#CCCCCC"/>
<path d="M182.401 69.36V276.56" stroke="#CCCCCC"/>
<path d="M311.311 69.36V276.56" stroke="#CCCCCC"/>
<path d="M440.222 69.36V276.56" stroke="#CCCCCC"/>
<path d="M569.132 69.36V276.56" stroke="#CCCCCC"/>
<path d="M698.042 69.36V276.56" stroke="#CCCCCC"/>
<path d="M53.491 255.84L182.401 167.04L311.311 177.4L440.222 217.36L569.132 246.96L698.042 270.64V276.56H569.132H440.222H311.311H182.401H53.491V255.84Z" fill="#4277A9" fill-opacity="0.5"/>
<path d="M53.491 259.725C55.2769 259.725 56.7246 257.986 56.7246 255.84C56.7246 253.694 55.2769 251.955 53.491 251.955C51.7052 251.955 50.2575 253.694 50.2575 255.84C50.2575 257.986 51.7052 259.725 53.491 259.725Z" fill="#4277A9"/>
<path d="M182.401 170.925C184.187 170.925 185.635 169.186 185.635 167.04C185.635 164.894 184.187 163.155 182.401 163.155C180.615 163.155 179.168 164.894 179.168 167.04C179.168 169.186 180.615 170.925 182.401 170.925Z" fill="#4277A9"/>
<path d="M311.311 181.285C313.097 181.285 314.545 179.546 314.545 177.4C314.545 175.254 313.097 173.515 311.311 173.515C309.526 173.515 308.078 175.254 308.078 177.4C308.078 179.546 309.526 181.285 311.311 181.285Z" fill="#4277A9"/>
<path d="M440.222 221.245C442.007 221.245 443.455 219.506 443.455 217.36C443.455 215.214 442.007 213.475 440.222 213.475C438.436 213.475 436.988 215.214 436.988 217.36C436.988 219.506 438.436 221.245 440.222 221.245Z" fill="#4277A9"/>
<path d="M569.132 250.845C570.918 250.845 572.365 249.106 572.365 246.96C572.365 244.814 570.918 243.075 569.132 243.075C567.346 243.075 565.898 244.814 565.898 246.96C565.898 249.106 567.346 250.845 569.132 250.845Z" fill="#4277A9"/>
<path d="M698.042 274.525C699.828 274.525 701.275 272.786 701.275 270.64C701.275 268.494 699.828 266.755 698.042 266.755C696.256 266.755 694.808 268.494 694.808 270.64C694.808 272.786 696.256 274.525 698.042 274.525Z" fill="#4277A9"/>
<path d="M53.491 107.84L182.401 82.68L311.311 122.64L440.222 137.44L569.132 85.64L698.042 118.2V276.56H569.132H440.222H311.311H182.401H53.491V107.84Z" fill="#53ADDF" fill-opacity="0.5"/>
<path d="M53.491 111.725C55.2769 111.725 56.7246 109.986 56.7246 107.84C56.7246 105.694 55.2769 103.955 53.491 103.955C51.7052 103.955 50.2575 105.694 50.2575 107.84C50.2575 109.986 51.7052 111.725 53.491 111.725Z" fill="#53ADDF" fill-opacity="0.6"/>
<path d="M182.401 86.565C184.187 86.565 185.635 84.8256 185.635 82.68C185.635 80.5344 184.187 78.795 182.401 78.795C180.615 78.795 179.168 80.5344 179.168 82.68C179.168 84.8256 180.615 86.565 182.401 86.565Z" fill="#53ADDF" fill-opacity="0.6"/>
<path d="M311.311 126.525C313.097 126.525 314.545 124.786 314.545 122.64C314.545 120.494 313.097 118.755 311.311 118.755C309.526 118.755 308.078 120.494 308.078 122.64C308.078 124.786 309.526 126.525 311.311 126.525Z" fill="#53ADDF" fill-opacity="0.6"/>
<path d="M440.222 141.325C442.007 141.325 443.455 139.586 443.455 137.44C443.455 135.294 442.007 133.555 440.222 133.555C438.436 133.555 436.988 135.294 436.988 137.44C436.988 139.586 438.436 141.325 440.222 141.325Z" fill="#53ADDF" fill-opacity="0.6"/>
<path d="M569.132 89.525C570.918 89.525 572.365 87.7856 572.365 85.64C572.365 83.4944 570.918 81.755 569.132 81.755C567.346 81.755 565.898 83.4944 565.898 85.64C565.898 87.7856 567.346 89.525 569.132 89.525Z" fill="#53ADDF" fill-opacity="0.6"/>
<path d="M698.042 122.085C699.828 122.085 701.275 120.346 701.275 118.2C701.275 116.054 699.828 114.315 698.042 114.315C696.256 114.315 694.808 116.054 694.808 118.2C694.808 120.346 696.256 122.085 698.042 122.085Z" fill="#53ADDF" fill-opacity="0.6"/>
<path d="M331.505 31.754H334.937V47H331.505V40.532H325.741V47H322.309V31.754H325.741V37.584H331.505V31.754ZM341.523 47H338.245V35.428H341.523V47ZM341.831 32.084C341.831 32.6853 341.633 33.162 341.237 33.514C340.856 33.8513 340.401 34.02 339.873 34.02C339.345 34.02 338.883 33.8513 338.487 33.514C338.106 33.162 337.915 32.6853 337.915 32.084C337.915 31.4827 338.106 31.0133 338.487 30.676C338.883 30.324 339.345 30.148 339.873 30.148C340.401 30.148 340.856 30.324 341.237 30.676C341.633 31.0133 341.831 31.4827 341.831 32.084ZM347.926 44.646C348.528 44.646 348.953 44.5873 349.202 44.47C349.452 44.3527 349.576 44.1253 349.576 43.788C349.576 43.524 349.415 43.2967 349.092 43.106C348.77 42.9007 348.278 42.6733 347.618 42.424C347.105 42.2333 346.636 42.0353 346.21 41.83C345.8 41.6247 345.448 41.3827 345.154 41.104C344.861 40.8107 344.634 40.466 344.472 40.07C344.311 39.674 344.23 39.1973 344.23 38.64C344.23 37.5547 344.634 36.6967 345.44 36.066C346.247 35.4353 347.354 35.12 348.762 35.12C349.466 35.12 350.141 35.186 350.786 35.318C351.432 35.4353 351.945 35.5673 352.326 35.714L351.754 38.266C351.373 38.134 350.955 38.0167 350.5 37.914C350.06 37.8113 349.562 37.76 349.004 37.76C347.978 37.76 347.464 38.046 347.464 38.618C347.464 38.75 347.486 38.8673 347.53 38.97C347.574 39.0727 347.662 39.1753 347.794 39.278C347.926 39.366 348.102 39.4687 348.322 39.586C348.557 39.6887 348.85 39.806 349.202 39.938C349.921 40.202 350.515 40.466 350.984 40.73C351.454 40.9793 351.82 41.258 352.084 41.566C352.363 41.8593 352.554 42.1893 352.656 42.556C352.774 42.9227 352.832 43.348 352.832 43.832C352.832 44.976 352.4 45.8413 351.534 46.428C350.684 47.0147 349.474 47.308 347.904 47.308C346.878 47.308 346.02 47.22 345.33 47.044C344.656 46.868 344.186 46.7213 343.922 46.604L344.472 43.942C345.03 44.162 345.602 44.338 346.188 44.47C346.775 44.5873 347.354 44.646 347.926 44.646ZM355.172 32.546L358.45 32.018V35.428H362.388V38.156H358.45V42.226C358.45 42.9153 358.568 43.4653 358.802 43.876C359.052 44.2867 359.543 44.492 360.276 44.492C360.628 44.492 360.988 44.4627 361.354 44.404C361.736 44.3307 362.08 44.2353 362.388 44.118L362.85 46.67C362.454 46.8313 362.014 46.9707 361.53 47.088C361.046 47.2053 360.452 47.264 359.748 47.264C358.854 47.264 358.113 47.1467 357.526 46.912C356.94 46.6627 356.47 46.3253 356.118 45.9C355.766 45.46 355.517 44.932 355.37 44.316C355.238 43.7 355.172 43.018 355.172 42.27V32.546ZM375.452 41.192C375.452 42.1013 375.32 42.9373 375.056 43.7C374.792 44.448 374.411 45.0933 373.912 45.636C373.413 46.164 372.812 46.5747 372.108 46.868C371.419 47.1613 370.641 47.308 369.776 47.308C368.925 47.308 368.148 47.1613 367.444 46.868C366.755 46.5747 366.161 46.164 365.662 45.636C365.163 45.0933 364.775 44.448 364.496 43.7C364.217 42.9373 364.078 42.1013 364.078 41.192C364.078 40.2827 364.217 39.454 364.496 38.706C364.789 37.958 365.185 37.32 365.684 36.792C366.197 36.264 366.799 35.8533 367.488 35.56C368.192 35.2667 368.955 35.12 369.776 35.12C370.612 35.12 371.375 35.2667 372.064 35.56C372.768 35.8533 373.369 36.264 373.868 36.792C374.367 37.32 374.755 37.958 375.034 38.706C375.313 39.454 375.452 40.2827 375.452 41.192ZM372.108 41.192C372.108 40.18 371.903 39.388 371.492 38.816C371.096 38.2293 370.524 37.936 369.776 37.936C369.028 37.936 368.449 38.2293 368.038 38.816C367.627 39.388 367.422 40.18 367.422 41.192C367.422 42.204 367.627 43.0107 368.038 43.612C368.449 44.1987 369.028 44.492 369.776 44.492C370.524 44.492 371.096 44.1987 371.492 43.612C371.903 43.0107 372.108 42.204 372.108 41.192ZM384.965 38.332C384.672 38.2587 384.327 38.1853 383.931 38.112C383.535 38.024 383.11 37.98 382.655 37.98C382.45 37.98 382.201 38.002 381.907 38.046C381.629 38.0753 381.416 38.112 381.269 38.156V47H377.991V36.044C378.578 35.8387 379.267 35.648 380.059 35.472C380.866 35.2813 381.761 35.186 382.743 35.186C382.919 35.186 383.132 35.2007 383.381 35.23C383.631 35.2447 383.88 35.274 384.129 35.318C384.379 35.3473 384.628 35.3913 384.877 35.45C385.127 35.494 385.339 35.5527 385.515 35.626L384.965 38.332ZM398.234 35.428C397.574 37.6573 396.885 39.7473 396.166 41.698C395.447 43.6487 394.663 45.5407 393.812 47.374C393.504 48.034 393.196 48.5913 392.888 49.046C392.58 49.5153 392.243 49.8967 391.876 50.19C391.509 50.498 391.091 50.718 390.622 50.85C390.167 50.9967 389.632 51.07 389.016 51.07C388.503 51.07 388.026 51.0187 387.586 50.916C387.161 50.828 386.809 50.7253 386.53 50.608L387.102 47.99C387.439 48.1073 387.74 48.188 388.004 48.232C388.268 48.276 388.547 48.298 388.84 48.298C389.427 48.298 389.874 48.1367 390.182 47.814C390.505 47.506 390.776 47.0733 390.996 46.516C390.248 45.0493 389.5 43.4067 388.752 41.588C388.004 39.7547 387.3 37.7013 386.64 35.428H390.116C390.263 36 390.431 36.6233 390.622 37.298C390.827 37.958 391.04 38.6327 391.26 39.322C391.48 39.9967 391.7 40.6567 391.92 41.302C392.155 41.9473 392.375 42.534 392.58 43.062C392.771 42.534 392.969 41.9473 393.174 41.302C393.379 40.6567 393.577 39.9967 393.768 39.322C393.973 38.6327 394.164 37.958 394.34 37.298C394.531 36.6233 394.699 36 394.846 35.428H398.234Z" fill="black"/>
<circle cx="226" cy="334" r="8" fill="#A9D6EF"/>
<path d="M255.686 329.298V330.474H252.634V339H251.276V330.474H248.224V329.298H255.686ZM262.696 335.36C262.696 335.939 262.612 336.461 262.444 336.928C262.276 337.395 262.038 337.796 261.73 338.132C261.432 338.468 261.072 338.729 260.652 338.916C260.232 339.093 259.775 339.182 259.28 339.182C258.786 339.182 258.328 339.093 257.908 338.916C257.488 338.729 257.124 338.468 256.816 338.132C256.518 337.796 256.284 337.395 256.116 336.928C255.948 336.461 255.864 335.939 255.864 335.36C255.864 334.791 255.948 334.273 256.116 333.806C256.284 333.33 256.518 332.924 256.816 332.588C257.124 332.252 257.488 331.995 257.908 331.818C258.328 331.631 258.786 331.538 259.28 331.538C259.775 331.538 260.232 331.631 260.652 331.818C261.072 331.995 261.432 332.252 261.73 332.588C262.038 332.924 262.276 333.33 262.444 333.806C262.612 334.273 262.696 334.791 262.696 335.36ZM261.338 335.36C261.338 334.539 261.152 333.89 260.778 333.414C260.414 332.929 259.915 332.686 259.28 332.686C258.646 332.686 258.142 332.929 257.768 333.414C257.404 333.89 257.222 334.539 257.222 335.36C257.222 336.181 257.404 336.835 257.768 337.32C258.142 337.796 258.646 338.034 259.28 338.034C259.915 338.034 260.414 337.796 260.778 337.32C261.152 336.835 261.338 336.181 261.338 335.36ZM265.746 331.72H268.504V332.812H265.746V336.172C265.746 336.536 265.774 336.839 265.83 337.082C265.886 337.315 265.97 337.502 266.082 337.642C266.194 337.773 266.334 337.866 266.502 337.922C266.67 337.978 266.866 338.006 267.09 338.006C267.482 338.006 267.795 337.964 268.028 337.88C268.271 337.787 268.439 337.721 268.532 337.684L268.784 338.762C268.654 338.827 268.425 338.907 268.098 339C267.772 339.103 267.398 339.154 266.978 339.154C266.484 339.154 266.073 339.093 265.746 338.972C265.429 338.841 265.172 338.65 264.976 338.398C264.78 338.146 264.64 337.838 264.556 337.474C264.482 337.101 264.444 336.671 264.444 336.186V329.69L265.746 329.466V331.72ZM272.625 338.062C272.933 338.062 273.204 338.057 273.437 338.048C273.68 338.029 273.88 338.001 274.039 337.964V335.794C273.946 335.747 273.792 335.71 273.577 335.682C273.372 335.645 273.12 335.626 272.821 335.626C272.625 335.626 272.415 335.64 272.191 335.668C271.976 335.696 271.776 335.757 271.589 335.85C271.412 335.934 271.262 336.055 271.141 336.214C271.02 336.363 270.959 336.564 270.959 336.816C270.959 337.283 271.108 337.609 271.407 337.796C271.706 337.973 272.112 338.062 272.625 338.062ZM272.513 331.538C273.036 331.538 273.474 331.608 273.829 331.748C274.193 331.879 274.482 332.07 274.697 332.322C274.921 332.565 275.08 332.859 275.173 333.204C275.266 333.54 275.313 333.913 275.313 334.324V338.874C275.201 338.893 275.042 338.921 274.837 338.958C274.641 338.986 274.417 339.014 274.165 339.042C273.913 339.07 273.638 339.093 273.339 339.112C273.05 339.14 272.76 339.154 272.471 339.154C272.06 339.154 271.682 339.112 271.337 339.028C270.992 338.944 270.693 338.813 270.441 338.636C270.189 338.449 269.993 338.207 269.853 337.908C269.713 337.609 269.643 337.25 269.643 336.83C269.643 336.429 269.722 336.083 269.881 335.794C270.049 335.505 270.273 335.271 270.553 335.094C270.833 334.917 271.16 334.786 271.533 334.702C271.906 334.618 272.298 334.576 272.709 334.576C272.84 334.576 272.975 334.585 273.115 334.604C273.255 334.613 273.386 334.632 273.507 334.66C273.638 334.679 273.75 334.697 273.843 334.716C273.936 334.735 274.002 334.749 274.039 334.758V334.394C274.039 334.179 274.016 333.969 273.969 333.764C273.922 333.549 273.838 333.363 273.717 333.204C273.596 333.036 273.428 332.905 273.213 332.812C273.008 332.709 272.737 332.658 272.401 332.658C271.972 332.658 271.594 332.691 271.267 332.756C270.95 332.812 270.712 332.873 270.553 332.938L270.399 331.86C270.567 331.785 270.847 331.715 271.239 331.65C271.631 331.575 272.056 331.538 272.513 331.538ZM279.659 339.14C278.857 339.121 278.287 338.949 277.951 338.622C277.615 338.295 277.447 337.787 277.447 337.096V328.36L278.749 328.136V336.886C278.749 337.101 278.768 337.278 278.805 337.418C278.843 337.558 278.903 337.67 278.987 337.754C279.071 337.838 279.183 337.903 279.323 337.95C279.463 337.987 279.636 338.02 279.841 338.048L279.659 339.14ZM284.628 339V329.298H290.48V330.46H285.986V333.386H289.976V334.534H285.986V339H284.628ZM297.504 338.79C297.205 338.865 296.809 338.944 296.314 339.028C295.829 339.112 295.264 339.154 294.62 339.154C294.06 339.154 293.589 339.075 293.206 338.916C292.823 338.748 292.515 338.515 292.282 338.216C292.049 337.917 291.881 337.567 291.778 337.166C291.675 336.755 291.624 336.303 291.624 335.808V331.72H292.926V335.528C292.926 336.415 293.066 337.049 293.346 337.432C293.626 337.815 294.097 338.006 294.76 338.006C294.9 338.006 295.045 338.001 295.194 337.992C295.343 337.983 295.483 337.973 295.614 337.964C295.745 337.945 295.861 337.931 295.964 337.922C296.076 337.903 296.155 337.885 296.202 337.866V331.72H297.504V338.79ZM299.747 331.93C300.046 331.855 300.442 331.776 300.937 331.692C301.432 331.608 302.001 331.566 302.645 331.566C303.224 331.566 303.704 331.65 304.087 331.818C304.47 331.977 304.773 332.205 304.997 332.504C305.23 332.793 305.394 333.143 305.487 333.554C305.58 333.965 305.627 334.417 305.627 334.912V339H304.325V335.192C304.325 334.744 304.292 334.361 304.227 334.044C304.171 333.727 304.073 333.47 303.933 333.274C303.793 333.078 303.606 332.938 303.373 332.854C303.14 332.761 302.85 332.714 302.505 332.714C302.365 332.714 302.22 332.719 302.071 332.728C301.922 332.737 301.777 332.751 301.637 332.77C301.506 332.779 301.385 332.793 301.273 332.812C301.17 332.831 301.096 332.845 301.049 332.854V339H299.747V331.93ZM312.49 333.26C312.331 333.129 312.103 333.003 311.804 332.882C311.505 332.761 311.179 332.7 310.824 332.7C310.451 332.7 310.129 332.77 309.858 332.91C309.597 333.041 309.382 333.227 309.214 333.47C309.046 333.703 308.925 333.983 308.85 334.31C308.775 334.637 308.738 334.987 308.738 335.36C308.738 336.209 308.948 336.867 309.368 337.334C309.788 337.791 310.348 338.02 311.048 338.02C311.403 338.02 311.697 338.006 311.93 337.978C312.173 337.941 312.359 337.903 312.49 337.866V333.26ZM312.49 328.36L313.792 328.136V338.79C313.493 338.874 313.111 338.958 312.644 339.042C312.177 339.126 311.641 339.168 311.034 339.168C310.474 339.168 309.97 339.079 309.522 338.902C309.074 338.725 308.691 338.473 308.374 338.146C308.057 337.819 307.809 337.423 307.632 336.956C307.464 336.48 307.38 335.948 307.38 335.36C307.38 334.8 307.45 334.287 307.59 333.82C307.739 333.353 307.954 332.952 308.234 332.616C308.514 332.28 308.855 332.019 309.256 331.832C309.667 331.645 310.133 331.552 310.656 331.552C311.076 331.552 311.445 331.608 311.762 331.72C312.089 331.832 312.331 331.939 312.49 332.042V328.36ZM317.724 338.062C318.256 338.062 318.648 337.992 318.9 337.852C319.161 337.712 319.292 337.488 319.292 337.18C319.292 336.863 319.166 336.611 318.914 336.424C318.662 336.237 318.247 336.027 317.668 335.794C317.388 335.682 317.117 335.57 316.856 335.458C316.604 335.337 316.385 335.197 316.198 335.038C316.011 334.879 315.862 334.688 315.75 334.464C315.638 334.24 315.582 333.965 315.582 333.638C315.582 332.994 315.82 332.485 316.296 332.112C316.772 331.729 317.421 331.538 318.242 331.538C318.447 331.538 318.653 331.552 318.858 331.58C319.063 331.599 319.255 331.627 319.432 331.664C319.609 331.692 319.763 331.725 319.894 331.762C320.034 331.799 320.141 331.832 320.216 331.86L319.978 332.98C319.838 332.905 319.619 332.831 319.32 332.756C319.021 332.672 318.662 332.63 318.242 332.63C317.878 332.63 317.561 332.705 317.29 332.854C317.019 332.994 316.884 333.218 316.884 333.526C316.884 333.685 316.912 333.825 316.968 333.946C317.033 334.067 317.127 334.179 317.248 334.282C317.379 334.375 317.537 334.464 317.724 334.548C317.911 334.632 318.135 334.721 318.396 334.814C318.741 334.945 319.049 335.075 319.32 335.206C319.591 335.327 319.819 335.472 320.006 335.64C320.202 335.808 320.351 336.013 320.454 336.256C320.557 336.489 320.608 336.779 320.608 337.124C320.608 337.796 320.356 338.305 319.852 338.65C319.357 338.995 318.648 339.168 317.724 339.168C317.08 339.168 316.576 339.112 316.212 339C315.848 338.897 315.601 338.818 315.47 338.762L315.708 337.642C315.857 337.698 316.095 337.782 316.422 337.894C316.749 338.006 317.183 338.062 317.724 338.062Z" fill="black"/>
<circle cx="388" cy="334" r="8" fill="#7AB4D9"/>
<path d="M417.042 337.824V339H411.204V329.298H412.562V337.824H417.042ZM417.81 335.374C417.81 334.73 417.903 334.17 418.09 333.694C418.276 333.209 418.524 332.807 418.832 332.49C419.14 332.173 419.494 331.935 419.896 331.776C420.297 331.617 420.708 331.538 421.128 331.538C422.108 331.538 422.859 331.846 423.382 332.462C423.904 333.069 424.166 333.997 424.166 335.248C424.166 335.304 424.166 335.379 424.166 335.472C424.166 335.556 424.161 335.635 424.152 335.71H419.168C419.224 336.466 419.443 337.04 419.826 337.432C420.208 337.824 420.806 338.02 421.618 338.02C422.075 338.02 422.458 337.983 422.766 337.908C423.083 337.824 423.321 337.745 423.48 337.67L423.662 338.762C423.503 338.846 423.223 338.935 422.822 339.028C422.43 339.121 421.982 339.168 421.478 339.168C420.843 339.168 420.292 339.075 419.826 338.888C419.368 338.692 418.99 338.426 418.692 338.09C418.393 337.754 418.169 337.357 418.02 336.9C417.88 336.433 417.81 335.925 417.81 335.374ZM422.808 334.66C422.817 334.072 422.668 333.591 422.36 333.218C422.061 332.835 421.646 332.644 421.114 332.644C420.815 332.644 420.549 332.705 420.316 332.826C420.092 332.938 419.9 333.087 419.742 333.274C419.583 333.461 419.457 333.675 419.364 333.918C419.28 334.161 419.224 334.408 419.196 334.66H422.808ZM426.036 331.93C426.335 331.855 426.731 331.776 427.226 331.692C427.721 331.608 428.29 331.566 428.934 331.566C429.513 331.566 429.993 331.65 430.376 331.818C430.759 331.977 431.062 332.205 431.286 332.504C431.519 332.793 431.683 333.143 431.776 333.554C431.869 333.965 431.916 334.417 431.916 334.912V339H430.614V335.192C430.614 334.744 430.581 334.361 430.516 334.044C430.46 333.727 430.362 333.47 430.222 333.274C430.082 333.078 429.895 332.938 429.662 332.854C429.429 332.761 429.139 332.714 428.794 332.714C428.654 332.714 428.509 332.719 428.36 332.728C428.211 332.737 428.066 332.751 427.926 332.77C427.795 332.779 427.674 332.793 427.562 332.812C427.459 332.831 427.385 332.845 427.338 332.854V339H426.036V331.93ZM438.779 333.26C438.62 333.129 438.392 333.003 438.093 332.882C437.794 332.761 437.468 332.7 437.113 332.7C436.74 332.7 436.418 332.77 436.147 332.91C435.886 333.041 435.671 333.227 435.503 333.47C435.335 333.703 435.214 333.983 435.139 334.31C435.064 334.637 435.027 334.987 435.027 335.36C435.027 336.209 435.237 336.867 435.657 337.334C436.077 337.791 436.637 338.02 437.337 338.02C437.692 338.02 437.986 338.006 438.219 337.978C438.462 337.941 438.648 337.903 438.779 337.866V333.26ZM438.779 328.36L440.081 328.136V338.79C439.782 338.874 439.4 338.958 438.933 339.042C438.466 339.126 437.93 339.168 437.323 339.168C436.763 339.168 436.259 339.079 435.811 338.902C435.363 338.725 434.98 338.473 434.663 338.146C434.346 337.819 434.098 337.423 433.921 336.956C433.753 336.48 433.669 335.948 433.669 335.36C433.669 334.8 433.739 334.287 433.879 333.82C434.028 333.353 434.243 332.952 434.523 332.616C434.803 332.28 435.144 332.019 435.545 331.832C435.956 331.645 436.422 331.552 436.945 331.552C437.365 331.552 437.734 331.608 438.051 331.72C438.378 331.832 438.62 331.939 438.779 332.042V328.36ZM441.913 335.374C441.913 334.73 442.007 334.17 442.193 333.694C442.38 333.209 442.627 332.807 442.935 332.49C443.243 332.173 443.598 331.935 443.999 331.776C444.401 331.617 444.811 331.538 445.231 331.538C446.211 331.538 446.963 331.846 447.485 332.462C448.008 333.069 448.269 333.997 448.269 335.248C448.269 335.304 448.269 335.379 448.269 335.472C448.269 335.556 448.265 335.635 448.255 335.71H443.271C443.327 336.466 443.547 337.04 443.929 337.432C444.312 337.824 444.909 338.02 445.721 338.02C446.179 338.02 446.561 337.983 446.869 337.908C447.187 337.824 447.425 337.745 447.583 337.67L447.765 338.762C447.607 338.846 447.327 338.935 446.925 339.028C446.533 339.121 446.085 339.168 445.581 339.168C444.947 339.168 444.396 339.075 443.929 338.888C443.472 338.692 443.094 338.426 442.795 338.09C442.497 337.754 442.273 337.357 442.123 336.9C441.983 336.433 441.913 335.925 441.913 335.374ZM446.911 334.66C446.921 334.072 446.771 333.591 446.463 333.218C446.165 332.835 445.749 332.644 445.217 332.644C444.919 332.644 444.653 332.705 444.419 332.826C444.195 332.938 444.004 333.087 443.845 333.274C443.687 333.461 443.561 333.675 443.467 333.918C443.383 334.161 443.327 334.408 443.299 334.66H446.911ZM454.844 333.26C454.685 333.129 454.456 333.003 454.158 332.882C453.859 332.761 453.532 332.7 453.178 332.7C452.804 332.7 452.482 332.77 452.212 332.91C451.95 333.041 451.736 333.227 451.568 333.47C451.4 333.703 451.278 333.983 451.204 334.31C451.129 334.637 451.092 334.987 451.092 335.36C451.092 336.209 451.302 336.867 451.722 337.334C452.142 337.791 452.702 338.02 453.402 338.02C453.756 338.02 454.05 338.006 454.284 337.978C454.526 337.941 454.713 337.903 454.844 337.866V333.26ZM454.844 328.36L456.146 328.136V338.79C455.847 338.874 455.464 338.958 454.998 339.042C454.531 339.126 453.994 339.168 453.388 339.168C452.828 339.168 452.324 339.079 451.876 338.902C451.428 338.725 451.045 338.473 450.728 338.146C450.41 337.819 450.163 337.423 449.986 336.956C449.818 336.48 449.734 335.948 449.734 335.36C449.734 334.8 449.804 334.287 449.944 333.82C450.093 333.353 450.308 332.952 450.588 332.616C450.868 332.28 451.208 332.019 451.61 331.832C452.02 331.645 452.487 331.552 453.01 331.552C453.43 331.552 453.798 331.608 454.116 331.72C454.442 331.832 454.685 331.939 454.844 332.042V328.36ZM461.708 339V329.298H467.56V330.46H463.066V333.386H467.056V334.534H463.066V339H461.708ZM474.584 338.79C474.285 338.865 473.889 338.944 473.394 339.028C472.909 339.112 472.344 339.154 471.7 339.154C471.14 339.154 470.669 339.075 470.286 338.916C469.903 338.748 469.595 338.515 469.362 338.216C469.129 337.917 468.961 337.567 468.858 337.166C468.755 336.755 468.704 336.303 468.704 335.808V331.72H470.006V335.528C470.006 336.415 470.146 337.049 470.426 337.432C470.706 337.815 471.177 338.006 471.84 338.006C471.98 338.006 472.125 338.001 472.274 337.992C472.423 337.983 472.563 337.973 472.694 337.964C472.825 337.945 472.941 337.931 473.044 337.922C473.156 337.903 473.235 337.885 473.282 337.866V331.72H474.584V338.79ZM476.827 331.93C477.126 331.855 477.522 331.776 478.017 331.692C478.512 331.608 479.081 331.566 479.725 331.566C480.304 331.566 480.784 331.65 481.167 331.818C481.55 331.977 481.853 332.205 482.077 332.504C482.31 332.793 482.474 333.143 482.567 333.554C482.66 333.965 482.707 334.417 482.707 334.912V339H481.405V335.192C481.405 334.744 481.372 334.361 481.307 334.044C481.251 333.727 481.153 333.47 481.013 333.274C480.873 333.078 480.686 332.938 480.453 332.854C480.22 332.761 479.93 332.714 479.585 332.714C479.445 332.714 479.3 332.719 479.151 332.728C479.002 332.737 478.857 332.751 478.717 332.77C478.586 332.779 478.465 332.793 478.353 332.812C478.25 332.831 478.176 332.845 478.129 332.854V339H476.827V331.93ZM489.57 333.26C489.411 333.129 489.183 333.003 488.884 332.882C488.585 332.761 488.259 332.7 487.904 332.7C487.531 332.7 487.209 332.77 486.938 332.91C486.677 333.041 486.462 333.227 486.294 333.47C486.126 333.703 486.005 333.983 485.93 334.31C485.855 334.637 485.818 334.987 485.818 335.36C485.818 336.209 486.028 336.867 486.448 337.334C486.868 337.791 487.428 338.02 488.128 338.02C488.483 338.02 488.777 338.006 489.01 337.978C489.253 337.941 489.439 337.903 489.57 337.866V333.26ZM489.57 328.36L490.872 328.136V338.79C490.573 338.874 490.191 338.958 489.724 339.042C489.257 339.126 488.721 339.168 488.114 339.168C487.554 339.168 487.05 339.079 486.602 338.902C486.154 338.725 485.771 338.473 485.454 338.146C485.137 337.819 484.889 337.423 484.712 336.956C484.544 336.48 484.46 335.948 484.46 335.36C484.46 334.8 484.53 334.287 484.67 333.82C484.819 333.353 485.034 332.952 485.314 332.616C485.594 332.28 485.935 332.019 486.336 331.832C486.747 331.645 487.213 331.552 487.736 331.552C488.156 331.552 488.525 331.608 488.842 331.72C489.169 331.832 489.411 331.939 489.57 332.042V328.36ZM494.804 338.062C495.336 338.062 495.728 337.992 495.98 337.852C496.242 337.712 496.372 337.488 496.372 337.18C496.372 336.863 496.246 336.611 495.994 336.424C495.742 336.237 495.327 336.027 494.748 335.794C494.468 335.682 494.198 335.57 493.936 335.458C493.684 335.337 493.465 335.197 493.278 335.038C493.092 334.879 492.942 334.688 492.83 334.464C492.718 334.24 492.662 333.965 492.662 333.638C492.662 332.994 492.9 332.485 493.376 332.112C493.852 331.729 494.501 331.538 495.322 331.538C495.528 331.538 495.733 331.552 495.938 331.58C496.144 331.599 496.335 331.627 496.512 331.664C496.69 331.692 496.844 331.725 496.974 331.762C497.114 331.799 497.222 331.832 497.296 331.86L497.058 332.98C496.918 332.905 496.699 332.831 496.4 332.756C496.102 332.672 495.742 332.63 495.322 332.63C494.958 332.63 494.641 332.705 494.37 332.854C494.1 332.994 493.964 333.218 493.964 333.526C493.964 333.685 493.992 333.825 494.048 333.946C494.114 334.067 494.207 334.179 494.328 334.282C494.459 334.375 494.618 334.464 494.804 334.548C494.991 334.632 495.215 334.721 495.476 334.814C495.822 334.945 496.13 335.075 496.4 335.206C496.671 335.327 496.9 335.472 497.086 335.64C497.282 335.808 497.432 336.013 497.534 336.256C497.637 336.489 497.688 336.779 497.688 337.124C497.688 337.796 497.436 338.305 496.932 338.65C496.438 338.995 495.728 339.168 494.804 339.168C494.16 339.168 493.656 339.112 493.292 339C492.928 338.897 492.681 338.818 492.55 338.762L492.788 337.642C492.938 337.698 493.176 337.782 493.502 337.894C493.829 338.006 494.263 338.062 494.804 338.062Z" fill="black"/>
</svg>
