<svg width="721" height="259" viewBox="0 0 721 259" fill="none" xmlns="http://www.w3.org/2000/svg">
<path d="M446.847 129.5C446.847 117.947 444.528 106.512 440.027 95.8712C435.526 85.2307 428.935 75.6017 420.645 67.5546L405.609 83.0409C411.827 89.0763 416.77 96.298 420.146 104.278C423.521 112.259 425.261 120.835 425.261 129.5H446.847Z" fill="#53ADDF" stroke="white"/>
<path d="M420.645 67.5545C407.689 54.9796 391.116 46.7818 373.258 44.1143C355.4 41.4468 337.155 44.4438 321.089 52.6839L330.942 71.8879C342.991 65.7079 356.675 63.4601 370.069 65.4607C383.462 67.4613 395.892 73.6097 405.608 83.0409L420.645 67.5545Z" fill="#4277A9" stroke="white"/>
<path d="M321.089 52.6839C306.986 59.9171 295.147 70.8919 286.868 84.4059C278.589 97.9199 274.19 113.452 274.153 129.299C274.116 145.147 278.443 160.699 286.659 174.251C294.875 187.803 306.663 198.833 320.732 206.132L330.674 186.974C320.122 181.5 311.281 173.228 305.119 163.063C298.957 152.899 295.712 141.235 295.74 129.349C295.767 117.464 299.067 105.815 305.276 95.6795C311.485 85.544 320.365 77.3128 330.942 71.8879L321.089 52.6839Z" fill="#D0DDE6" stroke="white"/>
<path d="M320.732 206.132C333.894 212.96 348.592 216.284 363.412 215.784C378.232 215.284 392.673 210.977 405.344 203.277C418.016 195.578 428.491 184.745 435.76 171.823C443.029 158.901 446.847 144.326 446.847 129.5H425.261C425.261 140.619 422.397 151.551 416.945 161.242C411.493 170.934 403.637 179.058 394.133 184.833C384.63 190.608 373.799 193.838 362.684 194.213C351.569 194.588 340.545 192.095 330.674 186.974L320.732 206.132Z" fill="#AFDDFA" stroke="white"/>
<path d="M361.962 113.538C360.87 114.966 359.708 116.52 358.476 118.2C357.244 119.88 356.208 121.602 355.368 123.366H361.962V113.538ZM368.094 105.894V123.366H371.202V128.49H368.094V135H361.962V128.49H349.404V123.912C350.02 122.68 350.79 121.294 351.714 119.754C352.638 118.186 353.66 116.59 354.78 114.966C355.928 113.314 357.132 111.704 358.392 110.136C359.652 108.568 360.912 107.154 362.172 105.894H368.094ZM316.993 158.18C316.233 158.18 315.473 158.153 314.713 158.1C313.967 158.06 313.187 157.953 312.373 157.78V144.34C313.013 144.22 313.713 144.133 314.473 144.08C315.233 144.013 315.94 143.98 316.593 143.98C317.473 143.98 318.28 144.047 319.013 144.18C319.76 144.3 320.4 144.513 320.933 144.82C321.467 145.127 321.88 145.533 322.173 146.04C322.48 146.533 322.633 147.147 322.633 147.88C322.633 148.987 322.1 149.86 321.033 150.5C321.913 150.833 322.513 151.287 322.833 151.86C323.153 152.433 323.313 153.08 323.313 153.8C323.313 155.253 322.78 156.347 321.713 157.08C320.66 157.813 319.087 158.18 316.993 158.18ZM315.413 151.96V155.54C315.64 155.567 315.887 155.587 316.153 155.6C316.42 155.613 316.713 155.62 317.033 155.62C317.967 155.62 318.72 155.487 319.293 155.22C319.867 154.953 320.153 154.46 320.153 153.74C320.153 153.1 319.913 152.647 319.433 152.38C318.953 152.1 318.267 151.96 317.373 151.96H315.413ZM315.413 149.58H316.933C317.893 149.58 318.58 149.46 318.993 149.22C319.407 148.967 319.613 148.567 319.613 148.02C319.613 147.46 319.4 147.067 318.973 146.84C318.547 146.613 317.92 146.5 317.093 146.5C316.827 146.5 316.54 146.507 316.233 146.52C315.927 146.52 315.653 146.533 315.413 146.56V149.58ZM335.451 152.72C335.451 153.547 335.331 154.307 335.091 155C334.851 155.68 334.504 156.267 334.051 156.76C333.598 157.24 333.051 157.613 332.411 157.88C331.784 158.147 331.078 158.28 330.291 158.28C329.518 158.28 328.811 158.147 328.171 157.88C327.544 157.613 327.004 157.24 326.551 156.76C326.098 156.267 325.744 155.68 325.491 155C325.238 154.307 325.111 153.547 325.111 152.72C325.111 151.893 325.238 151.14 325.491 150.46C325.758 149.78 326.118 149.2 326.571 148.72C327.038 148.24 327.584 147.867 328.211 147.6C328.851 147.333 329.544 147.2 330.291 147.2C331.051 147.2 331.744 147.333 332.371 147.6C333.011 147.867 333.558 148.24 334.011 148.72C334.464 149.2 334.818 149.78 335.071 150.46C335.324 151.14 335.451 151.893 335.451 152.72ZM332.411 152.72C332.411 151.8 332.224 151.08 331.851 150.56C331.491 150.027 330.971 149.76 330.291 149.76C329.611 149.76 329.084 150.027 328.711 150.56C328.338 151.08 328.151 151.8 328.151 152.72C328.151 153.64 328.338 154.373 328.711 154.92C329.084 155.453 329.611 155.72 330.291 155.72C330.971 155.72 331.491 155.453 331.851 154.92C332.224 154.373 332.411 153.64 332.411 152.72ZM344.099 150.12C343.833 150.053 343.519 149.987 343.159 149.92C342.799 149.84 342.413 149.8 341.999 149.8C341.813 149.8 341.586 149.82 341.319 149.86C341.066 149.887 340.873 149.92 340.739 149.96V158H337.759V148.04C338.293 147.853 338.919 147.68 339.639 147.52C340.373 147.347 341.186 147.26 342.079 147.26C342.239 147.26 342.433 147.273 342.659 147.3C342.886 147.313 343.113 147.34 343.339 147.38C343.566 147.407 343.793 147.447 344.019 147.5C344.246 147.54 344.439 147.593 344.599 147.66L344.099 150.12ZM352.537 150.12C352.27 150.053 351.957 149.987 351.597 149.92C351.237 149.84 350.85 149.8 350.437 149.8C350.25 149.8 350.024 149.82 349.757 149.86C349.504 149.887 349.31 149.92 349.177 149.96V158H346.197V148.04C346.73 147.853 347.357 147.68 348.077 147.52C348.81 147.347 349.624 147.26 350.517 147.26C350.677 147.26 350.87 147.273 351.097 147.3C351.324 147.313 351.55 147.34 351.777 147.38C352.004 147.407 352.23 147.447 352.457 147.5C352.684 147.54 352.877 147.593 353.037 147.66L352.537 150.12ZM364.279 152.72C364.279 153.547 364.159 154.307 363.919 155C363.679 155.68 363.332 156.267 362.879 156.76C362.426 157.24 361.879 157.613 361.239 157.88C360.612 158.147 359.906 158.28 359.119 158.28C358.346 158.28 357.639 158.147 356.999 157.88C356.372 157.613 355.832 157.24 355.379 156.76C354.926 156.267 354.572 155.68 354.319 155C354.066 154.307 353.939 153.547 353.939 152.72C353.939 151.893 354.066 151.14 354.319 150.46C354.586 149.78 354.946 149.2 355.399 148.72C355.866 148.24 356.412 147.867 357.039 147.6C357.679 147.333 358.372 147.2 359.119 147.2C359.879 147.2 360.572 147.333 361.199 147.6C361.839 147.867 362.386 148.24 362.839 148.72C363.292 149.2 363.646 149.78 363.899 150.46C364.152 151.14 364.279 151.893 364.279 152.72ZM361.239 152.72C361.239 151.8 361.052 151.08 360.679 150.56C360.319 150.027 359.799 149.76 359.119 149.76C358.439 149.76 357.912 150.027 357.539 150.56C357.166 151.08 356.979 151.8 356.979 152.72C356.979 153.64 357.166 154.373 357.539 154.92C357.912 155.453 358.439 155.72 359.119 155.72C359.799 155.72 360.319 155.453 360.679 154.92C361.052 154.373 361.239 153.64 361.239 152.72ZM372.753 151.96C372.486 152.973 372.2 153.98 371.893 154.98C371.6 155.98 371.286 156.987 370.953 158H368.633C368.393 157.44 368.133 156.773 367.853 156C367.573 155.227 367.28 154.387 366.973 153.48C366.68 152.56 366.373 151.593 366.053 150.58C365.746 149.553 365.446 148.52 365.153 147.48H368.293C368.4 147.96 368.513 148.487 368.633 149.06C368.766 149.62 368.9 150.2 369.033 150.8C369.18 151.4 369.326 152.007 369.473 152.62C369.633 153.22 369.793 153.8 369.953 154.36C370.126 153.773 370.293 153.173 370.453 152.56C370.626 151.947 370.786 151.347 370.933 150.76C371.093 150.16 371.24 149.587 371.373 149.04C371.52 148.48 371.646 147.96 371.753 147.48H373.913C374.02 147.96 374.14 148.48 374.273 149.04C374.406 149.587 374.546 150.16 374.693 150.76C374.84 151.347 374.993 151.947 375.153 152.56C375.313 153.173 375.48 153.773 375.653 154.36C375.813 153.8 375.973 153.22 376.133 152.62C376.293 152.007 376.44 151.4 376.573 150.8C376.72 150.2 376.853 149.62 376.973 149.06C377.106 148.487 377.226 147.96 377.333 147.48H380.433C380.14 148.52 379.833 149.553 379.513 150.58C379.206 151.593 378.9 152.56 378.593 153.48C378.3 154.387 378.006 155.227 377.713 156C377.433 156.773 377.173 157.44 376.933 158H374.613C374.28 156.987 373.953 155.98 373.633 154.98C373.313 153.98 373.02 152.973 372.753 151.96ZM381.302 152.82C381.302 151.887 381.442 151.073 381.722 150.38C382.016 149.673 382.396 149.087 382.862 148.62C383.329 148.153 383.862 147.8 384.462 147.56C385.076 147.32 385.702 147.2 386.342 147.2C387.836 147.2 389.016 147.66 389.882 148.58C390.749 149.487 391.182 150.827 391.182 152.6C391.182 152.773 391.176 152.967 391.162 153.18C391.149 153.38 391.136 153.56 391.122 153.72H384.362C384.429 154.333 384.716 154.82 385.222 155.18C385.729 155.54 386.409 155.72 387.262 155.72C387.809 155.72 388.342 155.673 388.862 155.58C389.396 155.473 389.829 155.347 390.162 155.2L390.562 157.62C390.402 157.7 390.189 157.78 389.922 157.86C389.656 157.94 389.356 158.007 389.022 158.06C388.702 158.127 388.356 158.18 387.982 158.22C387.609 158.26 387.236 158.28 386.862 158.28C385.916 158.28 385.089 158.14 384.382 157.86C383.689 157.58 383.109 157.2 382.642 156.72C382.189 156.227 381.849 155.647 381.622 154.98C381.409 154.313 381.302 153.593 381.302 152.82ZM388.302 151.68C388.289 151.427 388.242 151.18 388.162 150.94C388.096 150.7 387.982 150.487 387.822 150.3C387.676 150.113 387.482 149.96 387.242 149.84C387.016 149.72 386.729 149.66 386.382 149.66C386.049 149.66 385.762 149.72 385.522 149.84C385.282 149.947 385.082 150.093 384.922 150.28C384.762 150.467 384.636 150.687 384.542 150.94C384.462 151.18 384.402 151.427 384.362 151.68H388.302ZM399.822 150.12C399.555 150.053 399.242 149.987 398.882 149.92C398.522 149.84 398.135 149.8 397.722 149.8C397.535 149.8 397.309 149.82 397.042 149.86C396.789 149.887 396.595 149.92 396.462 149.96V158H393.482V148.04C394.015 147.853 394.642 147.68 395.362 147.52C396.095 147.347 396.909 147.26 397.802 147.26C397.962 147.26 398.155 147.273 398.382 147.3C398.609 147.313 398.835 147.34 399.062 147.38C399.289 147.407 399.515 147.447 399.742 147.5C399.969 147.54 400.162 147.593 400.322 147.66L399.822 150.12ZM404.94 155.86C405.486 155.86 405.873 155.807 406.1 155.7C406.326 155.593 406.44 155.387 406.44 155.08C406.44 154.84 406.293 154.633 406 154.46C405.706 154.273 405.26 154.067 404.66 153.84C404.193 153.667 403.766 153.487 403.38 153.3C403.006 153.113 402.686 152.893 402.42 152.64C402.153 152.373 401.946 152.06 401.8 151.7C401.653 151.34 401.58 150.907 401.58 150.4C401.58 149.413 401.946 148.633 402.68 148.06C403.413 147.487 404.42 147.2 405.7 147.2C406.34 147.2 406.953 147.26 407.54 147.38C408.126 147.487 408.593 147.607 408.94 147.74L408.42 150.06C408.073 149.94 407.693 149.833 407.28 149.74C406.88 149.647 406.426 149.6 405.92 149.6C404.986 149.6 404.52 149.86 404.52 150.38C404.52 150.5 404.54 150.607 404.58 150.7C404.62 150.793 404.7 150.887 404.82 150.98C404.94 151.06 405.1 151.153 405.3 151.26C405.513 151.353 405.78 151.46 406.1 151.58C406.753 151.82 407.293 152.06 407.72 152.3C408.146 152.527 408.48 152.78 408.72 153.06C408.973 153.327 409.146 153.627 409.24 153.96C409.346 154.293 409.4 154.68 409.4 155.12C409.4 156.16 409.006 156.947 408.22 157.48C407.446 158.013 406.346 158.28 404.92 158.28C403.986 158.28 403.206 158.2 402.58 158.04C401.966 157.88 401.54 157.747 401.3 157.64L401.8 155.22C402.306 155.42 402.826 155.58 403.36 155.7C403.893 155.807 404.42 155.86 404.94 155.86Z" fill="#4277A9"/>
<circle cx="514" cy="87" r="8" fill="#4277A9"/>
<path d="M542.916 91.79C542.617 91.8647 542.221 91.944 541.726 92.028C541.241 92.112 540.676 92.154 540.032 92.154C539.472 92.154 539.001 92.0747 538.618 91.916C538.235 91.748 537.927 91.5147 537.694 91.216C537.461 90.9173 537.293 90.5673 537.19 90.166C537.087 89.7553 537.036 89.3027 537.036 88.808V84.72H538.338V88.528C538.338 89.4147 538.478 90.0493 538.758 90.432C539.038 90.8147 539.509 91.006 540.172 91.006C540.312 91.006 540.457 91.0013 540.606 90.992C540.755 90.9827 540.895 90.9733 541.026 90.964C541.157 90.9453 541.273 90.9313 541.376 90.922C541.488 90.9033 541.567 90.8847 541.614 90.866V84.72H542.916V91.79ZM546.853 91.062C547.385 91.062 547.777 90.992 548.029 90.852C548.29 90.712 548.421 90.488 548.421 90.18C548.421 89.8627 548.295 89.6107 548.043 89.424C547.791 89.2373 547.376 89.0273 546.797 88.794C546.517 88.682 546.246 88.57 545.985 88.458C545.733 88.3367 545.514 88.1967 545.327 88.038C545.14 87.8793 544.991 87.688 544.879 87.464C544.767 87.24 544.711 86.9647 544.711 86.638C544.711 85.994 544.949 85.4853 545.425 85.112C545.901 84.7293 546.55 84.538 547.371 84.538C547.576 84.538 547.782 84.552 547.987 84.58C548.192 84.5987 548.384 84.6267 548.561 84.664C548.738 84.692 548.892 84.7247 549.023 84.762C549.163 84.7993 549.27 84.832 549.345 84.86L549.107 85.98C548.967 85.9053 548.748 85.8307 548.449 85.756C548.15 85.672 547.791 85.63 547.371 85.63C547.007 85.63 546.69 85.7047 546.419 85.854C546.148 85.994 546.013 86.218 546.013 86.526C546.013 86.6847 546.041 86.8247 546.097 86.946C546.162 87.0673 546.256 87.1793 546.377 87.282C546.508 87.3753 546.666 87.464 546.853 87.548C547.04 87.632 547.264 87.7207 547.525 87.814C547.87 87.9447 548.178 88.0753 548.449 88.206C548.72 88.3273 548.948 88.472 549.135 88.64C549.331 88.808 549.48 89.0133 549.583 89.256C549.686 89.4893 549.737 89.7787 549.737 90.124C549.737 90.796 549.485 91.3047 548.981 91.65C548.486 91.9953 547.777 92.168 546.853 92.168C546.209 92.168 545.705 92.112 545.341 92C544.977 91.8973 544.73 91.818 544.599 91.762L544.837 90.642C544.986 90.698 545.224 90.782 545.551 90.894C545.878 91.006 546.312 91.062 546.853 91.062ZM551.001 88.374C551.001 87.73 551.094 87.17 551.281 86.694C551.468 86.2087 551.715 85.8073 552.023 85.49C552.331 85.1727 552.686 84.9347 553.087 84.776C553.488 84.6173 553.899 84.538 554.319 84.538C555.299 84.538 556.05 84.846 556.573 85.462C557.096 86.0687 557.357 86.9973 557.357 88.248C557.357 88.304 557.357 88.3787 557.357 88.472C557.357 88.556 557.352 88.6353 557.343 88.71H552.359C552.415 89.466 552.634 90.04 553.017 90.432C553.4 90.824 553.997 91.02 554.809 91.02C555.266 91.02 555.649 90.9827 555.957 90.908C556.274 90.824 556.512 90.7447 556.671 90.67L556.853 91.762C556.694 91.846 556.414 91.9347 556.013 92.028C555.621 92.1213 555.173 92.168 554.669 92.168C554.034 92.168 553.484 92.0747 553.017 91.888C552.56 91.692 552.182 91.426 551.883 91.09C551.584 90.754 551.36 90.3573 551.211 89.9C551.071 89.4333 551.001 88.9247 551.001 88.374ZM555.999 87.66C556.008 87.072 555.859 86.5913 555.551 86.218C555.252 85.8353 554.837 85.644 554.305 85.644C554.006 85.644 553.74 85.7047 553.507 85.826C553.283 85.938 553.092 86.0873 552.933 86.274C552.774 86.4607 552.648 86.6753 552.555 86.918C552.471 87.1607 552.415 87.408 552.387 87.66H555.999ZM561.915 84.566C562.027 84.566 562.153 84.5753 562.293 84.594C562.443 84.6033 562.587 84.622 562.727 84.65C562.867 84.6687 562.993 84.692 563.105 84.72C563.227 84.7387 563.315 84.7573 563.371 84.776L563.147 85.91C563.045 85.8727 562.872 85.8307 562.629 85.784C562.396 85.728 562.093 85.7 561.719 85.7C561.477 85.7 561.234 85.728 560.991 85.784C560.758 85.8307 560.604 85.8633 560.529 85.882V92H559.227V85.028C559.535 84.916 559.918 84.8133 560.375 84.72C560.833 84.6173 561.346 84.566 561.915 84.566ZM564.628 84.93C564.926 84.8553 565.323 84.776 565.818 84.692C566.312 84.608 566.882 84.566 567.526 84.566C568.104 84.566 568.585 84.65 568.968 84.818C569.35 84.9767 569.654 85.2053 569.878 85.504C570.111 85.7933 570.274 86.1433 570.368 86.554C570.461 86.9647 570.508 87.4173 570.508 87.912V92H569.206V88.192C569.206 87.744 569.173 87.3613 569.108 87.044C569.052 86.7267 568.954 86.47 568.814 86.274C568.674 86.078 568.487 85.938 568.254 85.854C568.02 85.7607 567.731 85.714 567.386 85.714C567.246 85.714 567.101 85.7187 566.952 85.728C566.802 85.7373 566.658 85.7513 566.518 85.77C566.387 85.7793 566.266 85.7933 566.154 85.812C566.051 85.8307 565.976 85.8447 565.93 85.854V92H564.628V84.93ZM575.131 91.062C575.439 91.062 575.71 91.0573 575.943 91.048C576.186 91.0293 576.386 91.0013 576.545 90.964V88.794C576.452 88.7473 576.298 88.71 576.083 88.682C575.878 88.6447 575.626 88.626 575.327 88.626C575.131 88.626 574.921 88.64 574.697 88.668C574.482 88.696 574.282 88.7567 574.095 88.85C573.918 88.934 573.768 89.0553 573.647 89.214C573.526 89.3633 573.465 89.564 573.465 89.816C573.465 90.2827 573.614 90.6093 573.913 90.796C574.212 90.9733 574.618 91.062 575.131 91.062ZM575.019 84.538C575.542 84.538 575.98 84.608 576.335 84.748C576.699 84.8787 576.988 85.07 577.203 85.322C577.427 85.5647 577.586 85.8587 577.679 86.204C577.772 86.54 577.819 86.9133 577.819 87.324V91.874C577.707 91.8927 577.548 91.9207 577.343 91.958C577.147 91.986 576.923 92.014 576.671 92.042C576.419 92.07 576.144 92.0933 575.845 92.112C575.556 92.14 575.266 92.154 574.977 92.154C574.566 92.154 574.188 92.112 573.843 92.028C573.498 91.944 573.199 91.8133 572.947 91.636C572.695 91.4493 572.499 91.2067 572.359 90.908C572.219 90.6093 572.149 90.25 572.149 89.83C572.149 89.4287 572.228 89.0833 572.387 88.794C572.555 88.5047 572.779 88.2713 573.059 88.094C573.339 87.9167 573.666 87.786 574.039 87.702C574.412 87.618 574.804 87.576 575.215 87.576C575.346 87.576 575.481 87.5853 575.621 87.604C575.761 87.6133 575.892 87.632 576.013 87.66C576.144 87.6787 576.256 87.6973 576.349 87.716C576.442 87.7347 576.508 87.7487 576.545 87.758V87.394C576.545 87.1793 576.522 86.9693 576.475 86.764C576.428 86.5493 576.344 86.3627 576.223 86.204C576.102 86.036 575.934 85.9053 575.719 85.812C575.514 85.7093 575.243 85.658 574.907 85.658C574.478 85.658 574.1 85.6907 573.773 85.756C573.456 85.812 573.218 85.8727 573.059 85.938L572.905 84.86C573.073 84.7853 573.353 84.7153 573.745 84.65C574.137 84.5753 574.562 84.538 575.019 84.538ZM579.981 84.93C580.28 84.8553 580.672 84.776 581.157 84.692C581.652 84.608 582.221 84.566 582.865 84.566C583.332 84.566 583.724 84.6313 584.041 84.762C584.359 84.8833 584.625 85.0653 584.839 85.308C584.905 85.2613 585.007 85.196 585.147 85.112C585.287 85.028 585.46 84.9487 585.665 84.874C585.871 84.79 586.099 84.72 586.351 84.664C586.603 84.5987 586.874 84.566 587.163 84.566C587.723 84.566 588.181 84.65 588.535 84.818C588.89 84.9767 589.165 85.2053 589.361 85.504C589.567 85.8027 589.702 86.1573 589.767 86.568C589.842 86.9787 589.879 87.4267 589.879 87.912V92H588.577V88.192C588.577 87.7627 588.554 87.394 588.507 87.086C588.47 86.778 588.391 86.5213 588.269 86.316C588.157 86.1107 587.999 85.9613 587.793 85.868C587.597 85.7653 587.341 85.714 587.023 85.714C586.585 85.714 586.221 85.7747 585.931 85.896C585.651 86.008 585.46 86.1107 585.357 86.204C585.432 86.4467 585.488 86.7127 585.525 87.002C585.563 87.2913 585.581 87.5947 585.581 87.912V92H584.279V88.192C584.279 87.7627 584.256 87.394 584.209 87.086C584.163 86.778 584.079 86.5213 583.957 86.316C583.845 86.1107 583.687 85.9613 583.481 85.868C583.285 85.7653 583.033 85.714 582.725 85.714C582.595 85.714 582.455 85.7187 582.305 85.728C582.156 85.7373 582.011 85.7513 581.871 85.77C581.741 85.7793 581.619 85.7933 581.507 85.812C581.395 85.8307 581.321 85.8447 581.283 85.854V92H579.981V84.93ZM591.634 88.374C591.634 87.73 591.727 87.17 591.914 86.694C592.101 86.2087 592.348 85.8073 592.656 85.49C592.964 85.1727 593.319 84.9347 593.72 84.776C594.121 84.6173 594.532 84.538 594.952 84.538C595.932 84.538 596.683 84.846 597.206 85.462C597.729 86.0687 597.99 86.9973 597.99 88.248C597.99 88.304 597.99 88.3787 597.99 88.472C597.99 88.556 597.985 88.6353 597.976 88.71H592.992C593.048 89.466 593.267 90.04 593.65 90.432C594.033 90.824 594.63 91.02 595.442 91.02C595.899 91.02 596.282 90.9827 596.59 90.908C596.907 90.824 597.145 90.7447 597.304 90.67L597.486 91.762C597.327 91.846 597.047 91.9347 596.646 92.028C596.254 92.1213 595.806 92.168 595.302 92.168C594.667 92.168 594.117 92.0747 593.65 91.888C593.193 91.692 592.815 91.426 592.516 91.09C592.217 90.754 591.993 90.3573 591.844 89.9C591.704 89.4333 591.634 88.9247 591.634 88.374ZM596.632 87.66C596.641 87.072 596.492 86.5913 596.184 86.218C595.885 85.8353 595.47 85.644 594.938 85.644C594.639 85.644 594.373 85.7047 594.14 85.826C593.916 85.938 593.725 86.0873 593.566 86.274C593.407 86.4607 593.281 86.6753 593.188 86.918C593.104 87.1607 593.048 87.408 593.02 87.66H596.632ZM600.042 84.3C600.574 84.0947 601.092 83.8333 601.596 83.516C602.1 83.1893 602.562 82.7833 602.982 82.298H603.906V92H602.604V84.104C602.492 84.2067 602.352 84.314 602.184 84.426C602.026 84.538 601.848 84.6453 601.652 84.748C601.466 84.8507 601.265 84.9487 601.05 85.042C600.845 85.1353 600.644 85.2147 600.448 85.28L600.042 84.3Z" fill="black"/>
<circle cx="514" cy="115" r="8" fill="#53ADDF"/>
<path d="M542.916 119.79C542.617 119.865 542.221 119.944 541.726 120.028C541.241 120.112 540.676 120.154 540.032 120.154C539.472 120.154 539.001 120.075 538.618 119.916C538.235 119.748 537.927 119.515 537.694 119.216C537.461 118.917 537.293 118.567 537.19 118.166C537.087 117.755 537.036 117.303 537.036 116.808V112.72H538.338V116.528C538.338 117.415 538.478 118.049 538.758 118.432C539.038 118.815 539.509 119.006 540.172 119.006C540.312 119.006 540.457 119.001 540.606 118.992C540.755 118.983 540.895 118.973 541.026 118.964C541.157 118.945 541.273 118.931 541.376 118.922C541.488 118.903 541.567 118.885 541.614 118.866V112.72H542.916V119.79ZM546.853 119.062C547.385 119.062 547.777 118.992 548.029 118.852C548.29 118.712 548.421 118.488 548.421 118.18C548.421 117.863 548.295 117.611 548.043 117.424C547.791 117.237 547.376 117.027 546.797 116.794C546.517 116.682 546.246 116.57 545.985 116.458C545.733 116.337 545.514 116.197 545.327 116.038C545.14 115.879 544.991 115.688 544.879 115.464C544.767 115.24 544.711 114.965 544.711 114.638C544.711 113.994 544.949 113.485 545.425 113.112C545.901 112.729 546.55 112.538 547.371 112.538C547.576 112.538 547.782 112.552 547.987 112.58C548.192 112.599 548.384 112.627 548.561 112.664C548.738 112.692 548.892 112.725 549.023 112.762C549.163 112.799 549.27 112.832 549.345 112.86L549.107 113.98C548.967 113.905 548.748 113.831 548.449 113.756C548.15 113.672 547.791 113.63 547.371 113.63C547.007 113.63 546.69 113.705 546.419 113.854C546.148 113.994 546.013 114.218 546.013 114.526C546.013 114.685 546.041 114.825 546.097 114.946C546.162 115.067 546.256 115.179 546.377 115.282C546.508 115.375 546.666 115.464 546.853 115.548C547.04 115.632 547.264 115.721 547.525 115.814C547.87 115.945 548.178 116.075 548.449 116.206C548.72 116.327 548.948 116.472 549.135 116.64C549.331 116.808 549.48 117.013 549.583 117.256C549.686 117.489 549.737 117.779 549.737 118.124C549.737 118.796 549.485 119.305 548.981 119.65C548.486 119.995 547.777 120.168 546.853 120.168C546.209 120.168 545.705 120.112 545.341 120C544.977 119.897 544.73 119.818 544.599 119.762L544.837 118.642C544.986 118.698 545.224 118.782 545.551 118.894C545.878 119.006 546.312 119.062 546.853 119.062ZM551.001 116.374C551.001 115.73 551.094 115.17 551.281 114.694C551.468 114.209 551.715 113.807 552.023 113.49C552.331 113.173 552.686 112.935 553.087 112.776C553.488 112.617 553.899 112.538 554.319 112.538C555.299 112.538 556.05 112.846 556.573 113.462C557.096 114.069 557.357 114.997 557.357 116.248C557.357 116.304 557.357 116.379 557.357 116.472C557.357 116.556 557.352 116.635 557.343 116.71H552.359C552.415 117.466 552.634 118.04 553.017 118.432C553.4 118.824 553.997 119.02 554.809 119.02C555.266 119.02 555.649 118.983 555.957 118.908C556.274 118.824 556.512 118.745 556.671 118.67L556.853 119.762C556.694 119.846 556.414 119.935 556.013 120.028C555.621 120.121 555.173 120.168 554.669 120.168C554.034 120.168 553.484 120.075 553.017 119.888C552.56 119.692 552.182 119.426 551.883 119.09C551.584 118.754 551.36 118.357 551.211 117.9C551.071 117.433 551.001 116.925 551.001 116.374ZM555.999 115.66C556.008 115.072 555.859 114.591 555.551 114.218C555.252 113.835 554.837 113.644 554.305 113.644C554.006 113.644 553.74 113.705 553.507 113.826C553.283 113.938 553.092 114.087 552.933 114.274C552.774 114.461 552.648 114.675 552.555 114.918C552.471 115.161 552.415 115.408 552.387 115.66H555.999ZM561.915 112.566C562.027 112.566 562.153 112.575 562.293 112.594C562.443 112.603 562.587 112.622 562.727 112.65C562.867 112.669 562.993 112.692 563.105 112.72C563.227 112.739 563.315 112.757 563.371 112.776L563.147 113.91C563.045 113.873 562.872 113.831 562.629 113.784C562.396 113.728 562.093 113.7 561.719 113.7C561.477 113.7 561.234 113.728 560.991 113.784C560.758 113.831 560.604 113.863 560.529 113.882V120H559.227V113.028C559.535 112.916 559.918 112.813 560.375 112.72C560.833 112.617 561.346 112.566 561.915 112.566ZM564.628 112.93C564.926 112.855 565.323 112.776 565.818 112.692C566.312 112.608 566.882 112.566 567.526 112.566C568.104 112.566 568.585 112.65 568.968 112.818C569.35 112.977 569.654 113.205 569.878 113.504C570.111 113.793 570.274 114.143 570.368 114.554C570.461 114.965 570.508 115.417 570.508 115.912V120H569.206V116.192C569.206 115.744 569.173 115.361 569.108 115.044C569.052 114.727 568.954 114.47 568.814 114.274C568.674 114.078 568.487 113.938 568.254 113.854C568.02 113.761 567.731 113.714 567.386 113.714C567.246 113.714 567.101 113.719 566.952 113.728C566.802 113.737 566.658 113.751 566.518 113.77C566.387 113.779 566.266 113.793 566.154 113.812C566.051 113.831 565.976 113.845 565.93 113.854V120H564.628V112.93ZM575.131 119.062C575.439 119.062 575.71 119.057 575.943 119.048C576.186 119.029 576.386 119.001 576.545 118.964V116.794C576.452 116.747 576.298 116.71 576.083 116.682C575.878 116.645 575.626 116.626 575.327 116.626C575.131 116.626 574.921 116.64 574.697 116.668C574.482 116.696 574.282 116.757 574.095 116.85C573.918 116.934 573.768 117.055 573.647 117.214C573.526 117.363 573.465 117.564 573.465 117.816C573.465 118.283 573.614 118.609 573.913 118.796C574.212 118.973 574.618 119.062 575.131 119.062ZM575.019 112.538C575.542 112.538 575.98 112.608 576.335 112.748C576.699 112.879 576.988 113.07 577.203 113.322C577.427 113.565 577.586 113.859 577.679 114.204C577.772 114.54 577.819 114.913 577.819 115.324V119.874C577.707 119.893 577.548 119.921 577.343 119.958C577.147 119.986 576.923 120.014 576.671 120.042C576.419 120.07 576.144 120.093 575.845 120.112C575.556 120.14 575.266 120.154 574.977 120.154C574.566 120.154 574.188 120.112 573.843 120.028C573.498 119.944 573.199 119.813 572.947 119.636C572.695 119.449 572.499 119.207 572.359 118.908C572.219 118.609 572.149 118.25 572.149 117.83C572.149 117.429 572.228 117.083 572.387 116.794C572.555 116.505 572.779 116.271 573.059 116.094C573.339 115.917 573.666 115.786 574.039 115.702C574.412 115.618 574.804 115.576 575.215 115.576C575.346 115.576 575.481 115.585 575.621 115.604C575.761 115.613 575.892 115.632 576.013 115.66C576.144 115.679 576.256 115.697 576.349 115.716C576.442 115.735 576.508 115.749 576.545 115.758V115.394C576.545 115.179 576.522 114.969 576.475 114.764C576.428 114.549 576.344 114.363 576.223 114.204C576.102 114.036 575.934 113.905 575.719 113.812C575.514 113.709 575.243 113.658 574.907 113.658C574.478 113.658 574.1 113.691 573.773 113.756C573.456 113.812 573.218 113.873 573.059 113.938L572.905 112.86C573.073 112.785 573.353 112.715 573.745 112.65C574.137 112.575 574.562 112.538 575.019 112.538ZM579.981 112.93C580.28 112.855 580.672 112.776 581.157 112.692C581.652 112.608 582.221 112.566 582.865 112.566C583.332 112.566 583.724 112.631 584.041 112.762C584.359 112.883 584.625 113.065 584.839 113.308C584.905 113.261 585.007 113.196 585.147 113.112C585.287 113.028 585.46 112.949 585.665 112.874C585.871 112.79 586.099 112.72 586.351 112.664C586.603 112.599 586.874 112.566 587.163 112.566C587.723 112.566 588.181 112.65 588.535 112.818C588.89 112.977 589.165 113.205 589.361 113.504C589.567 113.803 589.702 114.157 589.767 114.568C589.842 114.979 589.879 115.427 589.879 115.912V120H588.577V116.192C588.577 115.763 588.554 115.394 588.507 115.086C588.47 114.778 588.391 114.521 588.269 114.316C588.157 114.111 587.999 113.961 587.793 113.868C587.597 113.765 587.341 113.714 587.023 113.714C586.585 113.714 586.221 113.775 585.931 113.896C585.651 114.008 585.46 114.111 585.357 114.204C585.432 114.447 585.488 114.713 585.525 115.002C585.563 115.291 585.581 115.595 585.581 115.912V120H584.279V116.192C584.279 115.763 584.256 115.394 584.209 115.086C584.163 114.778 584.079 114.521 583.957 114.316C583.845 114.111 583.687 113.961 583.481 113.868C583.285 113.765 583.033 113.714 582.725 113.714C582.595 113.714 582.455 113.719 582.305 113.728C582.156 113.737 582.011 113.751 581.871 113.77C581.741 113.779 581.619 113.793 581.507 113.812C581.395 113.831 581.321 113.845 581.283 113.854V120H579.981V112.93ZM591.634 116.374C591.634 115.73 591.727 115.17 591.914 114.694C592.101 114.209 592.348 113.807 592.656 113.49C592.964 113.173 593.319 112.935 593.72 112.776C594.121 112.617 594.532 112.538 594.952 112.538C595.932 112.538 596.683 112.846 597.206 113.462C597.729 114.069 597.99 114.997 597.99 116.248C597.99 116.304 597.99 116.379 597.99 116.472C597.99 116.556 597.985 116.635 597.976 116.71H592.992C593.048 117.466 593.267 118.04 593.65 118.432C594.033 118.824 594.63 119.02 595.442 119.02C595.899 119.02 596.282 118.983 596.59 118.908C596.907 118.824 597.145 118.745 597.304 118.67L597.486 119.762C597.327 119.846 597.047 119.935 596.646 120.028C596.254 120.121 595.806 120.168 595.302 120.168C594.667 120.168 594.117 120.075 593.65 119.888C593.193 119.692 592.815 119.426 592.516 119.09C592.217 118.754 591.993 118.357 591.844 117.9C591.704 117.433 591.634 116.925 591.634 116.374ZM596.632 115.66C596.641 115.072 596.492 114.591 596.184 114.218C595.885 113.835 595.47 113.644 594.938 113.644C594.639 113.644 594.373 113.705 594.14 113.826C593.916 113.938 593.725 114.087 593.566 114.274C593.407 114.461 593.281 114.675 593.188 114.918C593.104 115.161 593.048 115.408 593.02 115.66H596.632ZM605.278 112.776C605.278 113.112 605.208 113.439 605.068 113.756C604.938 114.064 604.76 114.372 604.536 114.68C604.312 114.979 604.06 115.277 603.78 115.576C603.5 115.865 603.22 116.15 602.94 116.43C602.782 116.589 602.595 116.775 602.38 116.99C602.175 117.205 601.979 117.429 601.792 117.662C601.606 117.895 601.447 118.119 601.316 118.334C601.195 118.549 601.134 118.735 601.134 118.894H605.6V120H599.72C599.711 119.944 599.706 119.888 599.706 119.832C599.706 119.776 599.706 119.725 599.706 119.678C599.706 119.239 599.776 118.833 599.916 118.46C600.066 118.077 600.257 117.718 600.49 117.382C600.724 117.046 600.985 116.729 601.274 116.43C601.564 116.131 601.848 115.842 602.128 115.562C602.362 115.338 602.581 115.119 602.786 114.904C603.001 114.68 603.188 114.461 603.346 114.246C603.514 114.022 603.645 113.793 603.738 113.56C603.841 113.327 603.892 113.079 603.892 112.818C603.892 112.538 603.846 112.3 603.752 112.104C603.668 111.908 603.552 111.745 603.402 111.614C603.253 111.483 603.076 111.39 602.87 111.334C602.674 111.269 602.464 111.236 602.24 111.236C601.97 111.236 601.722 111.273 601.498 111.348C601.274 111.423 601.074 111.511 600.896 111.614C600.719 111.707 600.57 111.81 600.448 111.922C600.327 112.025 600.234 112.104 600.168 112.16L599.524 111.236C599.608 111.143 599.734 111.031 599.902 110.9C600.07 110.76 600.271 110.629 600.504 110.508C600.738 110.387 600.999 110.284 601.288 110.2C601.578 110.116 601.89 110.074 602.226 110.074C603.244 110.074 604.004 110.312 604.508 110.788C605.022 111.255 605.278 111.917 605.278 112.776Z" fill="black"/>
<circle cx="514" cy="143" r="8" fill="#AFDDFA"/>
<path d="M542.916 147.79C542.617 147.865 542.221 147.944 541.726 148.028C541.241 148.112 540.676 148.154 540.032 148.154C539.472 148.154 539.001 148.075 538.618 147.916C538.235 147.748 537.927 147.515 537.694 147.216C537.461 146.917 537.293 146.567 537.19 146.166C537.087 145.755 537.036 145.303 537.036 144.808V140.72H538.338V144.528C538.338 145.415 538.478 146.049 538.758 146.432C539.038 146.815 539.509 147.006 540.172 147.006C540.312 147.006 540.457 147.001 540.606 146.992C540.755 146.983 540.895 146.973 541.026 146.964C541.157 146.945 541.273 146.931 541.376 146.922C541.488 146.903 541.567 146.885 541.614 146.866V140.72H542.916V147.79ZM546.853 147.062C547.385 147.062 547.777 146.992 548.029 146.852C548.29 146.712 548.421 146.488 548.421 146.18C548.421 145.863 548.295 145.611 548.043 145.424C547.791 145.237 547.376 145.027 546.797 144.794C546.517 144.682 546.246 144.57 545.985 144.458C545.733 144.337 545.514 144.197 545.327 144.038C545.14 143.879 544.991 143.688 544.879 143.464C544.767 143.24 544.711 142.965 544.711 142.638C544.711 141.994 544.949 141.485 545.425 141.112C545.901 140.729 546.55 140.538 547.371 140.538C547.576 140.538 547.782 140.552 547.987 140.58C548.192 140.599 548.384 140.627 548.561 140.664C548.738 140.692 548.892 140.725 549.023 140.762C549.163 140.799 549.27 140.832 549.345 140.86L549.107 141.98C548.967 141.905 548.748 141.831 548.449 141.756C548.15 141.672 547.791 141.63 547.371 141.63C547.007 141.63 546.69 141.705 546.419 141.854C546.148 141.994 546.013 142.218 546.013 142.526C546.013 142.685 546.041 142.825 546.097 142.946C546.162 143.067 546.256 143.179 546.377 143.282C546.508 143.375 546.666 143.464 546.853 143.548C547.04 143.632 547.264 143.721 547.525 143.814C547.87 143.945 548.178 144.075 548.449 144.206C548.72 144.327 548.948 144.472 549.135 144.64C549.331 144.808 549.48 145.013 549.583 145.256C549.686 145.489 549.737 145.779 549.737 146.124C549.737 146.796 549.485 147.305 548.981 147.65C548.486 147.995 547.777 148.168 546.853 148.168C546.209 148.168 545.705 148.112 545.341 148C544.977 147.897 544.73 147.818 544.599 147.762L544.837 146.642C544.986 146.698 545.224 146.782 545.551 146.894C545.878 147.006 546.312 147.062 546.853 147.062ZM551.001 144.374C551.001 143.73 551.094 143.17 551.281 142.694C551.468 142.209 551.715 141.807 552.023 141.49C552.331 141.173 552.686 140.935 553.087 140.776C553.488 140.617 553.899 140.538 554.319 140.538C555.299 140.538 556.05 140.846 556.573 141.462C557.096 142.069 557.357 142.997 557.357 144.248C557.357 144.304 557.357 144.379 557.357 144.472C557.357 144.556 557.352 144.635 557.343 144.71H552.359C552.415 145.466 552.634 146.04 553.017 146.432C553.4 146.824 553.997 147.02 554.809 147.02C555.266 147.02 555.649 146.983 555.957 146.908C556.274 146.824 556.512 146.745 556.671 146.67L556.853 147.762C556.694 147.846 556.414 147.935 556.013 148.028C555.621 148.121 555.173 148.168 554.669 148.168C554.034 148.168 553.484 148.075 553.017 147.888C552.56 147.692 552.182 147.426 551.883 147.09C551.584 146.754 551.36 146.357 551.211 145.9C551.071 145.433 551.001 144.925 551.001 144.374ZM555.999 143.66C556.008 143.072 555.859 142.591 555.551 142.218C555.252 141.835 554.837 141.644 554.305 141.644C554.006 141.644 553.74 141.705 553.507 141.826C553.283 141.938 553.092 142.087 552.933 142.274C552.774 142.461 552.648 142.675 552.555 142.918C552.471 143.161 552.415 143.408 552.387 143.66H555.999ZM561.915 140.566C562.027 140.566 562.153 140.575 562.293 140.594C562.443 140.603 562.587 140.622 562.727 140.65C562.867 140.669 562.993 140.692 563.105 140.72C563.227 140.739 563.315 140.757 563.371 140.776L563.147 141.91C563.045 141.873 562.872 141.831 562.629 141.784C562.396 141.728 562.093 141.7 561.719 141.7C561.477 141.7 561.234 141.728 560.991 141.784C560.758 141.831 560.604 141.863 560.529 141.882V148H559.227V141.028C559.535 140.916 559.918 140.813 560.375 140.72C560.833 140.617 561.346 140.566 561.915 140.566ZM564.628 140.93C564.926 140.855 565.323 140.776 565.818 140.692C566.312 140.608 566.882 140.566 567.526 140.566C568.104 140.566 568.585 140.65 568.968 140.818C569.35 140.977 569.654 141.205 569.878 141.504C570.111 141.793 570.274 142.143 570.368 142.554C570.461 142.965 570.508 143.417 570.508 143.912V148H569.206V144.192C569.206 143.744 569.173 143.361 569.108 143.044C569.052 142.727 568.954 142.47 568.814 142.274C568.674 142.078 568.487 141.938 568.254 141.854C568.02 141.761 567.731 141.714 567.386 141.714C567.246 141.714 567.101 141.719 566.952 141.728C566.802 141.737 566.658 141.751 566.518 141.77C566.387 141.779 566.266 141.793 566.154 141.812C566.051 141.831 565.976 141.845 565.93 141.854V148H564.628V140.93ZM575.131 147.062C575.439 147.062 575.71 147.057 575.943 147.048C576.186 147.029 576.386 147.001 576.545 146.964V144.794C576.452 144.747 576.298 144.71 576.083 144.682C575.878 144.645 575.626 144.626 575.327 144.626C575.131 144.626 574.921 144.64 574.697 144.668C574.482 144.696 574.282 144.757 574.095 144.85C573.918 144.934 573.768 145.055 573.647 145.214C573.526 145.363 573.465 145.564 573.465 145.816C573.465 146.283 573.614 146.609 573.913 146.796C574.212 146.973 574.618 147.062 575.131 147.062ZM575.019 140.538C575.542 140.538 575.98 140.608 576.335 140.748C576.699 140.879 576.988 141.07 577.203 141.322C577.427 141.565 577.586 141.859 577.679 142.204C577.772 142.54 577.819 142.913 577.819 143.324V147.874C577.707 147.893 577.548 147.921 577.343 147.958C577.147 147.986 576.923 148.014 576.671 148.042C576.419 148.07 576.144 148.093 575.845 148.112C575.556 148.14 575.266 148.154 574.977 148.154C574.566 148.154 574.188 148.112 573.843 148.028C573.498 147.944 573.199 147.813 572.947 147.636C572.695 147.449 572.499 147.207 572.359 146.908C572.219 146.609 572.149 146.25 572.149 145.83C572.149 145.429 572.228 145.083 572.387 144.794C572.555 144.505 572.779 144.271 573.059 144.094C573.339 143.917 573.666 143.786 574.039 143.702C574.412 143.618 574.804 143.576 575.215 143.576C575.346 143.576 575.481 143.585 575.621 143.604C575.761 143.613 575.892 143.632 576.013 143.66C576.144 143.679 576.256 143.697 576.349 143.716C576.442 143.735 576.508 143.749 576.545 143.758V143.394C576.545 143.179 576.522 142.969 576.475 142.764C576.428 142.549 576.344 142.363 576.223 142.204C576.102 142.036 575.934 141.905 575.719 141.812C575.514 141.709 575.243 141.658 574.907 141.658C574.478 141.658 574.1 141.691 573.773 141.756C573.456 141.812 573.218 141.873 573.059 141.938L572.905 140.86C573.073 140.785 573.353 140.715 573.745 140.65C574.137 140.575 574.562 140.538 575.019 140.538ZM579.981 140.93C580.28 140.855 580.672 140.776 581.157 140.692C581.652 140.608 582.221 140.566 582.865 140.566C583.332 140.566 583.724 140.631 584.041 140.762C584.359 140.883 584.625 141.065 584.839 141.308C584.905 141.261 585.007 141.196 585.147 141.112C585.287 141.028 585.46 140.949 585.665 140.874C585.871 140.79 586.099 140.72 586.351 140.664C586.603 140.599 586.874 140.566 587.163 140.566C587.723 140.566 588.181 140.65 588.535 140.818C588.89 140.977 589.165 141.205 589.361 141.504C589.567 141.803 589.702 142.157 589.767 142.568C589.842 142.979 589.879 143.427 589.879 143.912V148H588.577V144.192C588.577 143.763 588.554 143.394 588.507 143.086C588.47 142.778 588.391 142.521 588.269 142.316C588.157 142.111 587.999 141.961 587.793 141.868C587.597 141.765 587.341 141.714 587.023 141.714C586.585 141.714 586.221 141.775 585.931 141.896C585.651 142.008 585.46 142.111 585.357 142.204C585.432 142.447 585.488 142.713 585.525 143.002C585.563 143.291 585.581 143.595 585.581 143.912V148H584.279V144.192C584.279 143.763 584.256 143.394 584.209 143.086C584.163 142.778 584.079 142.521 583.957 142.316C583.845 142.111 583.687 141.961 583.481 141.868C583.285 141.765 583.033 141.714 582.725 141.714C582.595 141.714 582.455 141.719 582.305 141.728C582.156 141.737 582.011 141.751 581.871 141.77C581.741 141.779 581.619 141.793 581.507 141.812C581.395 141.831 581.321 141.845 581.283 141.854V148H579.981V140.93ZM591.634 144.374C591.634 143.73 591.727 143.17 591.914 142.694C592.101 142.209 592.348 141.807 592.656 141.49C592.964 141.173 593.319 140.935 593.72 140.776C594.121 140.617 594.532 140.538 594.952 140.538C595.932 140.538 596.683 140.846 597.206 141.462C597.729 142.069 597.99 142.997 597.99 144.248C597.99 144.304 597.99 144.379 597.99 144.472C597.99 144.556 597.985 144.635 597.976 144.71H592.992C593.048 145.466 593.267 146.04 593.65 146.432C594.033 146.824 594.63 147.02 595.442 147.02C595.899 147.02 596.282 146.983 596.59 146.908C596.907 146.824 597.145 146.745 597.304 146.67L597.486 147.762C597.327 147.846 597.047 147.935 596.646 148.028C596.254 148.121 595.806 148.168 595.302 148.168C594.667 148.168 594.117 148.075 593.65 147.888C593.193 147.692 592.815 147.426 592.516 147.09C592.217 146.754 591.993 146.357 591.844 145.9C591.704 145.433 591.634 144.925 591.634 144.374ZM596.632 143.66C596.641 143.072 596.492 142.591 596.184 142.218C595.885 141.835 595.47 141.644 594.938 141.644C594.639 141.644 594.373 141.705 594.14 141.826C593.916 141.938 593.725 142.087 593.566 142.274C593.407 142.461 593.281 142.675 593.188 142.918C593.104 143.161 593.048 143.408 593.02 143.66H596.632ZM601.904 147.048C602.735 147.048 603.328 146.885 603.682 146.558C604.046 146.231 604.228 145.793 604.228 145.242C604.228 144.887 604.154 144.589 604.004 144.346C603.855 144.103 603.659 143.912 603.416 143.772C603.174 143.623 602.889 143.52 602.562 143.464C602.245 143.399 601.918 143.366 601.582 143.366H601.246V142.302H601.708C601.942 142.302 602.18 142.279 602.422 142.232C602.674 142.185 602.903 142.101 603.108 141.98C603.314 141.859 603.482 141.695 603.612 141.49C603.743 141.275 603.808 141.009 603.808 140.692C603.808 140.431 603.762 140.207 603.668 140.02C603.575 139.833 603.449 139.679 603.29 139.558C603.141 139.437 602.964 139.353 602.758 139.306C602.562 139.25 602.352 139.222 602.128 139.222C601.68 139.222 601.298 139.287 600.98 139.418C600.672 139.549 600.411 139.684 600.196 139.824L599.692 138.83C599.804 138.755 599.944 138.676 600.112 138.592C600.29 138.499 600.486 138.415 600.7 138.34C600.915 138.265 601.144 138.205 601.386 138.158C601.638 138.102 601.9 138.074 602.17 138.074C602.684 138.074 603.127 138.139 603.5 138.27C603.874 138.391 604.182 138.569 604.424 138.802C604.667 139.026 604.849 139.297 604.97 139.614C605.092 139.922 605.152 140.258 605.152 140.622C605.152 141.126 605.008 141.56 604.718 141.924C604.429 142.279 604.079 142.549 603.668 142.736C603.92 142.811 604.163 142.918 604.396 143.058C604.63 143.198 604.83 143.375 604.998 143.59C605.176 143.805 605.316 144.052 605.418 144.332C605.53 144.612 605.586 144.925 605.586 145.27C605.586 145.69 605.512 146.082 605.362 146.446C605.222 146.801 604.998 147.109 604.69 147.37C604.392 147.631 604.014 147.837 603.556 147.986C603.099 148.135 602.558 148.21 601.932 148.21C601.69 148.21 601.438 148.191 601.176 148.154C600.924 148.117 600.686 148.07 600.462 148.014C600.238 147.958 600.042 147.902 599.874 147.846C599.706 147.79 599.585 147.743 599.51 147.706L599.762 146.572C599.921 146.647 600.182 146.745 600.546 146.866C600.92 146.987 601.372 147.048 601.904 147.048Z" fill="black"/>
<circle cx="514" cy="171" r="8" fill="#D0DDE5"/>
<path d="M542.916 175.79C542.617 175.865 542.221 175.944 541.726 176.028C541.241 176.112 540.676 176.154 540.032 176.154C539.472 176.154 539.001 176.075 538.618 175.916C538.235 175.748 537.927 175.515 537.694 175.216C537.461 174.917 537.293 174.567 537.19 174.166C537.087 173.755 537.036 173.303 537.036 172.808V168.72H538.338V172.528C538.338 173.415 538.478 174.049 538.758 174.432C539.038 174.815 539.509 175.006 540.172 175.006C540.312 175.006 540.457 175.001 540.606 174.992C540.755 174.983 540.895 174.973 541.026 174.964C541.157 174.945 541.273 174.931 541.376 174.922C541.488 174.903 541.567 174.885 541.614 174.866V168.72H542.916V175.79ZM546.853 175.062C547.385 175.062 547.777 174.992 548.029 174.852C548.29 174.712 548.421 174.488 548.421 174.18C548.421 173.863 548.295 173.611 548.043 173.424C547.791 173.237 547.376 173.027 546.797 172.794C546.517 172.682 546.246 172.57 545.985 172.458C545.733 172.337 545.514 172.197 545.327 172.038C545.14 171.879 544.991 171.688 544.879 171.464C544.767 171.24 544.711 170.965 544.711 170.638C544.711 169.994 544.949 169.485 545.425 169.112C545.901 168.729 546.55 168.538 547.371 168.538C547.576 168.538 547.782 168.552 547.987 168.58C548.192 168.599 548.384 168.627 548.561 168.664C548.738 168.692 548.892 168.725 549.023 168.762C549.163 168.799 549.27 168.832 549.345 168.86L549.107 169.98C548.967 169.905 548.748 169.831 548.449 169.756C548.15 169.672 547.791 169.63 547.371 169.63C547.007 169.63 546.69 169.705 546.419 169.854C546.148 169.994 546.013 170.218 546.013 170.526C546.013 170.685 546.041 170.825 546.097 170.946C546.162 171.067 546.256 171.179 546.377 171.282C546.508 171.375 546.666 171.464 546.853 171.548C547.04 171.632 547.264 171.721 547.525 171.814C547.87 171.945 548.178 172.075 548.449 172.206C548.72 172.327 548.948 172.472 549.135 172.64C549.331 172.808 549.48 173.013 549.583 173.256C549.686 173.489 549.737 173.779 549.737 174.124C549.737 174.796 549.485 175.305 548.981 175.65C548.486 175.995 547.777 176.168 546.853 176.168C546.209 176.168 545.705 176.112 545.341 176C544.977 175.897 544.73 175.818 544.599 175.762L544.837 174.642C544.986 174.698 545.224 174.782 545.551 174.894C545.878 175.006 546.312 175.062 546.853 175.062ZM551.001 172.374C551.001 171.73 551.094 171.17 551.281 170.694C551.468 170.209 551.715 169.807 552.023 169.49C552.331 169.173 552.686 168.935 553.087 168.776C553.488 168.617 553.899 168.538 554.319 168.538C555.299 168.538 556.05 168.846 556.573 169.462C557.096 170.069 557.357 170.997 557.357 172.248C557.357 172.304 557.357 172.379 557.357 172.472C557.357 172.556 557.352 172.635 557.343 172.71H552.359C552.415 173.466 552.634 174.04 553.017 174.432C553.4 174.824 553.997 175.02 554.809 175.02C555.266 175.02 555.649 174.983 555.957 174.908C556.274 174.824 556.512 174.745 556.671 174.67L556.853 175.762C556.694 175.846 556.414 175.935 556.013 176.028C555.621 176.121 555.173 176.168 554.669 176.168C554.034 176.168 553.484 176.075 553.017 175.888C552.56 175.692 552.182 175.426 551.883 175.09C551.584 174.754 551.36 174.357 551.211 173.9C551.071 173.433 551.001 172.925 551.001 172.374ZM555.999 171.66C556.008 171.072 555.859 170.591 555.551 170.218C555.252 169.835 554.837 169.644 554.305 169.644C554.006 169.644 553.74 169.705 553.507 169.826C553.283 169.938 553.092 170.087 552.933 170.274C552.774 170.461 552.648 170.675 552.555 170.918C552.471 171.161 552.415 171.408 552.387 171.66H555.999ZM561.915 168.566C562.027 168.566 562.153 168.575 562.293 168.594C562.443 168.603 562.587 168.622 562.727 168.65C562.867 168.669 562.993 168.692 563.105 168.72C563.227 168.739 563.315 168.757 563.371 168.776L563.147 169.91C563.045 169.873 562.872 169.831 562.629 169.784C562.396 169.728 562.093 169.7 561.719 169.7C561.477 169.7 561.234 169.728 560.991 169.784C560.758 169.831 560.604 169.863 560.529 169.882V176H559.227V169.028C559.535 168.916 559.918 168.813 560.375 168.72C560.833 168.617 561.346 168.566 561.915 168.566ZM564.628 168.93C564.926 168.855 565.323 168.776 565.818 168.692C566.312 168.608 566.882 168.566 567.526 168.566C568.104 168.566 568.585 168.65 568.968 168.818C569.35 168.977 569.654 169.205 569.878 169.504C570.111 169.793 570.274 170.143 570.368 170.554C570.461 170.965 570.508 171.417 570.508 171.912V176H569.206V172.192C569.206 171.744 569.173 171.361 569.108 171.044C569.052 170.727 568.954 170.47 568.814 170.274C568.674 170.078 568.487 169.938 568.254 169.854C568.02 169.761 567.731 169.714 567.386 169.714C567.246 169.714 567.101 169.719 566.952 169.728C566.802 169.737 566.658 169.751 566.518 169.77C566.387 169.779 566.266 169.793 566.154 169.812C566.051 169.831 565.976 169.845 565.93 169.854V176H564.628V168.93ZM575.131 175.062C575.439 175.062 575.71 175.057 575.943 175.048C576.186 175.029 576.386 175.001 576.545 174.964V172.794C576.452 172.747 576.298 172.71 576.083 172.682C575.878 172.645 575.626 172.626 575.327 172.626C575.131 172.626 574.921 172.64 574.697 172.668C574.482 172.696 574.282 172.757 574.095 172.85C573.918 172.934 573.768 173.055 573.647 173.214C573.526 173.363 573.465 173.564 573.465 173.816C573.465 174.283 573.614 174.609 573.913 174.796C574.212 174.973 574.618 175.062 575.131 175.062ZM575.019 168.538C575.542 168.538 575.98 168.608 576.335 168.748C576.699 168.879 576.988 169.07 577.203 169.322C577.427 169.565 577.586 169.859 577.679 170.204C577.772 170.54 577.819 170.913 577.819 171.324V175.874C577.707 175.893 577.548 175.921 577.343 175.958C577.147 175.986 576.923 176.014 576.671 176.042C576.419 176.07 576.144 176.093 575.845 176.112C575.556 176.14 575.266 176.154 574.977 176.154C574.566 176.154 574.188 176.112 573.843 176.028C573.498 175.944 573.199 175.813 572.947 175.636C572.695 175.449 572.499 175.207 572.359 174.908C572.219 174.609 572.149 174.25 572.149 173.83C572.149 173.429 572.228 173.083 572.387 172.794C572.555 172.505 572.779 172.271 573.059 172.094C573.339 171.917 573.666 171.786 574.039 171.702C574.412 171.618 574.804 171.576 575.215 171.576C575.346 171.576 575.481 171.585 575.621 171.604C575.761 171.613 575.892 171.632 576.013 171.66C576.144 171.679 576.256 171.697 576.349 171.716C576.442 171.735 576.508 171.749 576.545 171.758V171.394C576.545 171.179 576.522 170.969 576.475 170.764C576.428 170.549 576.344 170.363 576.223 170.204C576.102 170.036 575.934 169.905 575.719 169.812C575.514 169.709 575.243 169.658 574.907 169.658C574.478 169.658 574.1 169.691 573.773 169.756C573.456 169.812 573.218 169.873 573.059 169.938L572.905 168.86C573.073 168.785 573.353 168.715 573.745 168.65C574.137 168.575 574.562 168.538 575.019 168.538ZM579.981 168.93C580.28 168.855 580.672 168.776 581.157 168.692C581.652 168.608 582.221 168.566 582.865 168.566C583.332 168.566 583.724 168.631 584.041 168.762C584.359 168.883 584.625 169.065 584.839 169.308C584.905 169.261 585.007 169.196 585.147 169.112C585.287 169.028 585.46 168.949 585.665 168.874C585.871 168.79 586.099 168.72 586.351 168.664C586.603 168.599 586.874 168.566 587.163 168.566C587.723 168.566 588.181 168.65 588.535 168.818C588.89 168.977 589.165 169.205 589.361 169.504C589.567 169.803 589.702 170.157 589.767 170.568C589.842 170.979 589.879 171.427 589.879 171.912V176H588.577V172.192C588.577 171.763 588.554 171.394 588.507 171.086C588.47 170.778 588.391 170.521 588.269 170.316C588.157 170.111 587.999 169.961 587.793 169.868C587.597 169.765 587.341 169.714 587.023 169.714C586.585 169.714 586.221 169.775 585.931 169.896C585.651 170.008 585.46 170.111 585.357 170.204C585.432 170.447 585.488 170.713 585.525 171.002C585.563 171.291 585.581 171.595 585.581 171.912V176H584.279V172.192C584.279 171.763 584.256 171.394 584.209 171.086C584.163 170.778 584.079 170.521 583.957 170.316C583.845 170.111 583.687 169.961 583.481 169.868C583.285 169.765 583.033 169.714 582.725 169.714C582.595 169.714 582.455 169.719 582.305 169.728C582.156 169.737 582.011 169.751 581.871 169.77C581.741 169.779 581.619 169.793 581.507 169.812C581.395 169.831 581.321 169.845 581.283 169.854V176H579.981V168.93ZM591.634 172.374C591.634 171.73 591.727 171.17 591.914 170.694C592.101 170.209 592.348 169.807 592.656 169.49C592.964 169.173 593.319 168.935 593.72 168.776C594.121 168.617 594.532 168.538 594.952 168.538C595.932 168.538 596.683 168.846 597.206 169.462C597.729 170.069 597.99 170.997 597.99 172.248C597.99 172.304 597.99 172.379 597.99 172.472C597.99 172.556 597.985 172.635 597.976 172.71H592.992C593.048 173.466 593.267 174.04 593.65 174.432C594.033 174.824 594.63 175.02 595.442 175.02C595.899 175.02 596.282 174.983 596.59 174.908C596.907 174.824 597.145 174.745 597.304 174.67L597.486 175.762C597.327 175.846 597.047 175.935 596.646 176.028C596.254 176.121 595.806 176.168 595.302 176.168C594.667 176.168 594.117 176.075 593.65 175.888C593.193 175.692 592.815 175.426 592.516 175.09C592.217 174.754 591.993 174.357 591.844 173.9C591.704 173.433 591.634 172.925 591.634 172.374ZM596.632 171.66C596.641 171.072 596.492 170.591 596.184 170.218C595.885 169.835 595.47 169.644 594.938 169.644C594.639 169.644 594.373 169.705 594.14 169.826C593.916 169.938 593.725 170.087 593.566 170.274C593.407 170.461 593.281 170.675 593.188 170.918C593.104 171.161 593.048 171.408 593.02 171.66H596.632ZM599.3 172.64C599.478 172.229 599.72 171.753 600.028 171.212C600.336 170.661 600.682 170.097 601.064 169.518C601.456 168.939 601.872 168.37 602.31 167.81C602.758 167.25 603.206 166.746 603.654 166.298H604.9V172.458H606.048V173.522H604.9V176H603.64V173.522H599.3V172.64ZM603.64 167.838C603.36 168.137 603.076 168.473 602.786 168.846C602.506 169.21 602.231 169.593 601.96 169.994C601.69 170.395 601.433 170.806 601.19 171.226C600.957 171.646 600.747 172.057 600.56 172.458H603.64V167.838Z" fill="black"/>
<path d="M84.6428 137.198C83.8068 137.198 82.9708 137.169 82.1348 137.11C81.3134 137.066 80.4554 136.949 79.5608 136.758V121.974C80.2648 121.842 81.0348 121.747 81.8708 121.688C82.7068 121.615 83.4841 121.578 84.2028 121.578C85.1708 121.578 86.0581 121.651 86.8648 121.798C87.6861 121.93 88.3901 122.165 88.9768 122.502C89.5634 122.839 90.0181 123.287 90.3408 123.844C90.6781 124.387 90.8468 125.061 90.8468 125.868C90.8468 127.085 90.2601 128.046 89.0868 128.75C90.0548 129.117 90.7148 129.615 91.0668 130.246C91.4188 130.877 91.5948 131.588 91.5948 132.38C91.5948 133.979 91.0081 135.181 89.8348 135.988C88.6761 136.795 86.9454 137.198 84.6428 137.198ZM82.9048 130.356V134.294C83.1541 134.323 83.4254 134.345 83.7188 134.36C84.0121 134.375 84.3348 134.382 84.6868 134.382C85.7134 134.382 86.5421 134.235 87.1728 133.942C87.8034 133.649 88.1188 133.106 88.1188 132.314C88.1188 131.61 87.8548 131.111 87.3268 130.818C86.7988 130.51 86.0434 130.356 85.0608 130.356H82.9048ZM82.9048 127.738H84.5768C85.6328 127.738 86.3881 127.606 86.8428 127.342C87.2974 127.063 87.5248 126.623 87.5248 126.022C87.5248 125.406 87.2901 124.973 86.8208 124.724C86.3514 124.475 85.6621 124.35 84.7528 124.35C84.4594 124.35 84.1441 124.357 83.8068 124.372C83.4694 124.372 83.1688 124.387 82.9048 124.416V127.738ZM104.946 131.192C104.946 132.101 104.814 132.937 104.55 133.7C104.286 134.448 103.905 135.093 103.406 135.636C102.907 136.164 102.306 136.575 101.602 136.868C100.913 137.161 100.135 137.308 99.27 137.308C98.4194 137.308 97.642 137.161 96.938 136.868C96.2487 136.575 95.6547 136.164 95.156 135.636C94.6574 135.093 94.2687 134.448 93.99 133.7C93.7114 132.937 93.572 132.101 93.572 131.192C93.572 130.283 93.7114 129.454 93.99 128.706C94.2834 127.958 94.6794 127.32 95.178 126.792C95.6914 126.264 96.2927 125.853 96.982 125.56C97.686 125.267 98.4487 125.12 99.27 125.12C100.106 125.12 100.869 125.267 101.558 125.56C102.262 125.853 102.863 126.264 103.362 126.792C103.861 127.32 104.249 127.958 104.528 128.706C104.807 129.454 104.946 130.283 104.946 131.192ZM101.602 131.192C101.602 130.18 101.397 129.388 100.986 128.816C100.59 128.229 100.018 127.936 99.27 127.936C98.522 127.936 97.9427 128.229 97.532 128.816C97.1214 129.388 96.916 130.18 96.916 131.192C96.916 132.204 97.1214 133.011 97.532 133.612C97.9427 134.199 98.522 134.492 99.27 134.492C100.018 134.492 100.59 134.199 100.986 133.612C101.397 133.011 101.602 132.204 101.602 131.192ZM114.459 128.332C114.166 128.259 113.821 128.185 113.425 128.112C113.029 128.024 112.604 127.98 112.149 127.98C111.944 127.98 111.695 128.002 111.401 128.046C111.123 128.075 110.91 128.112 110.763 128.156V137H107.485V126.044C108.072 125.839 108.761 125.648 109.553 125.472C110.36 125.281 111.255 125.186 112.237 125.186C112.413 125.186 112.626 125.201 112.875 125.23C113.125 125.245 113.374 125.274 113.623 125.318C113.873 125.347 114.122 125.391 114.371 125.45C114.621 125.494 114.833 125.553 115.009 125.626L114.459 128.332ZM123.741 128.332C123.447 128.259 123.103 128.185 122.707 128.112C122.311 128.024 121.885 127.98 121.431 127.98C121.225 127.98 120.976 128.002 120.683 128.046C120.404 128.075 120.191 128.112 120.045 128.156V137H116.767V126.044C117.353 125.839 118.043 125.648 118.835 125.472C119.641 125.281 120.536 125.186 121.519 125.186C121.695 125.186 121.907 125.201 122.157 125.23C122.406 125.245 122.655 125.274 122.905 125.318C123.154 125.347 123.403 125.391 123.653 125.45C123.902 125.494 124.115 125.553 124.291 125.626L123.741 128.332ZM136.657 131.192C136.657 132.101 136.525 132.937 136.261 133.7C135.997 134.448 135.616 135.093 135.117 135.636C134.618 136.164 134.017 136.575 133.313 136.868C132.624 137.161 131.846 137.308 130.981 137.308C130.13 137.308 129.353 137.161 128.649 136.868C127.96 136.575 127.366 136.164 126.867 135.636C126.368 135.093 125.98 134.448 125.701 133.7C125.422 132.937 125.283 132.101 125.283 131.192C125.283 130.283 125.422 129.454 125.701 128.706C125.994 127.958 126.39 127.32 126.889 126.792C127.402 126.264 128.004 125.853 128.693 125.56C129.397 125.267 130.16 125.12 130.981 125.12C131.817 125.12 132.58 125.267 133.269 125.56C133.973 125.853 134.574 126.264 135.073 126.792C135.572 127.32 135.96 127.958 136.239 128.706C136.518 129.454 136.657 130.283 136.657 131.192ZM133.313 131.192C133.313 130.18 133.108 129.388 132.697 128.816C132.301 128.229 131.729 127.936 130.981 127.936C130.233 127.936 129.654 128.229 129.243 128.816C128.832 129.388 128.627 130.18 128.627 131.192C128.627 132.204 128.832 133.011 129.243 133.612C129.654 134.199 130.233 134.492 130.981 134.492C131.729 134.492 132.301 134.199 132.697 133.612C133.108 133.011 133.313 132.204 133.313 131.192ZM145.978 130.356C145.685 131.471 145.37 132.578 145.032 133.678C144.71 134.778 144.365 135.885 143.998 137H141.446C141.182 136.384 140.896 135.651 140.588 134.8C140.28 133.949 139.958 133.025 139.62 132.028C139.298 131.016 138.96 129.953 138.608 128.838C138.271 127.709 137.941 126.572 137.618 125.428H141.072C141.19 125.956 141.314 126.535 141.446 127.166C141.593 127.782 141.74 128.42 141.886 129.08C142.048 129.74 142.209 130.407 142.37 131.082C142.546 131.742 142.722 132.38 142.898 132.996C143.089 132.351 143.272 131.691 143.448 131.016C143.639 130.341 143.815 129.681 143.976 129.036C144.152 128.376 144.314 127.745 144.46 127.144C144.622 126.528 144.761 125.956 144.878 125.428H147.254C147.372 125.956 147.504 126.528 147.65 127.144C147.797 127.745 147.951 128.376 148.112 129.036C148.274 129.681 148.442 130.341 148.618 131.016C148.794 131.691 148.978 132.351 149.168 132.996C149.344 132.38 149.52 131.742 149.696 131.082C149.872 130.407 150.034 129.74 150.18 129.08C150.342 128.42 150.488 127.782 150.62 127.166C150.767 126.535 150.899 125.956 151.016 125.428H154.426C154.104 126.572 153.766 127.709 153.414 128.838C153.077 129.953 152.74 131.016 152.402 132.028C152.08 133.025 151.757 133.949 151.434 134.8C151.126 135.651 150.84 136.384 150.576 137H148.024C147.658 135.885 147.298 134.778 146.946 133.678C146.594 132.578 146.272 131.471 145.978 130.356ZM155.383 131.302C155.383 130.275 155.537 129.381 155.845 128.618C156.167 127.841 156.585 127.195 157.099 126.682C157.612 126.169 158.199 125.78 158.859 125.516C159.533 125.252 160.223 125.12 160.927 125.12C162.569 125.12 163.867 125.626 164.821 126.638C165.774 127.635 166.251 129.109 166.251 131.06C166.251 131.251 166.243 131.463 166.229 131.698C166.214 131.918 166.199 132.116 166.185 132.292H158.749C158.822 132.967 159.137 133.502 159.695 133.898C160.252 134.294 161 134.492 161.939 134.492C162.54 134.492 163.127 134.441 163.699 134.338C164.285 134.221 164.762 134.081 165.129 133.92L165.569 136.582C165.393 136.67 165.158 136.758 164.865 136.846C164.571 136.934 164.241 137.007 163.875 137.066C163.523 137.139 163.141 137.198 162.731 137.242C162.32 137.286 161.909 137.308 161.499 137.308C160.457 137.308 159.548 137.154 158.771 136.846C158.008 136.538 157.37 136.12 156.857 135.592C156.358 135.049 155.984 134.411 155.735 133.678C155.5 132.945 155.383 132.153 155.383 131.302ZM163.083 130.048C163.068 129.769 163.017 129.498 162.929 129.234C162.855 128.97 162.731 128.735 162.555 128.53C162.393 128.325 162.181 128.156 161.917 128.024C161.667 127.892 161.352 127.826 160.971 127.826C160.604 127.826 160.289 127.892 160.025 128.024C159.761 128.141 159.541 128.303 159.365 128.508C159.189 128.713 159.049 128.955 158.947 129.234C158.859 129.498 158.793 129.769 158.749 130.048H163.083ZM175.754 128.332C175.461 128.259 175.116 128.185 174.72 128.112C174.324 128.024 173.899 127.98 173.444 127.98C173.239 127.98 172.99 128.002 172.696 128.046C172.418 128.075 172.205 128.112 172.058 128.156V137H168.78V126.044C169.367 125.839 170.056 125.648 170.848 125.472C171.655 125.281 172.55 125.186 173.532 125.186C173.708 125.186 173.921 125.201 174.17 125.23C174.42 125.245 174.669 125.274 174.918 125.318C175.168 125.347 175.417 125.391 175.666 125.45C175.916 125.494 176.128 125.553 176.304 125.626L175.754 128.332ZM181.383 134.646C181.985 134.646 182.41 134.587 182.659 134.47C182.909 134.353 183.033 134.125 183.033 133.788C183.033 133.524 182.872 133.297 182.549 133.106C182.227 132.901 181.735 132.673 181.075 132.424C180.562 132.233 180.093 132.035 179.667 131.83C179.257 131.625 178.905 131.383 178.611 131.104C178.318 130.811 178.091 130.466 177.929 130.07C177.768 129.674 177.687 129.197 177.687 128.64C177.687 127.555 178.091 126.697 178.897 126.066C179.704 125.435 180.811 125.12 182.219 125.12C182.923 125.12 183.598 125.186 184.243 125.318C184.889 125.435 185.402 125.567 185.783 125.714L185.211 128.266C184.83 128.134 184.412 128.017 183.957 127.914C183.517 127.811 183.019 127.76 182.461 127.76C181.435 127.76 180.921 128.046 180.921 128.618C180.921 128.75 180.943 128.867 180.987 128.97C181.031 129.073 181.119 129.175 181.251 129.278C181.383 129.366 181.559 129.469 181.779 129.586C182.014 129.689 182.307 129.806 182.659 129.938C183.378 130.202 183.972 130.466 184.441 130.73C184.911 130.979 185.277 131.258 185.541 131.566C185.82 131.859 186.011 132.189 186.113 132.556C186.231 132.923 186.289 133.348 186.289 133.832C186.289 134.976 185.857 135.841 184.991 136.428C184.141 137.015 182.931 137.308 181.361 137.308C180.335 137.308 179.477 137.22 178.787 137.044C178.113 136.868 177.643 136.721 177.379 136.604L177.929 133.942C178.487 134.162 179.059 134.338 179.645 134.47C180.232 134.587 180.811 134.646 181.383 134.646Z" fill="black"/>
</svg>
