<svg width="70" height="70" viewBox="0 0 70 70" fill="none" xmlns="http://www.w3.org/2000/svg">
<path d="M35.1421 34.8298L42.2132 30.4703L49.2843 26.1108L49.2843 43.5487L35.1421 52.2677L35.1421 34.8298Z" fill="#4277A9"/>
<path d="M35.2843 34.8298L28.2132 30.4703L21.1421 26.1108V43.5487L35.2843 52.2677L35.2843 34.8298Z" fill="#53ADDF"/>
<path d="M35.1421 18.1108L49.5 26.1108L35.1421 35.2524L21 26.1108L35.1421 18.1108Z" fill="#5397D9"/>
<path d="M35.5 6.44411L56.1427 17.9155L52.7823 23.9778L32.0874 12.5064L35.5 6.44411Z" fill="#5397D9"/>
<path d="M35.5 6.44411L11 19.4441L12 21.4441L13.3604 26.4432L38.5031 12.5064L35.5 6.44411Z" fill="#5397D9"/>
<path d="M52.4223 47.4204L35 57L35 65L55.7827 53.4827L52.4223 47.4204Z" fill="#4277A9"/>
<path d="M13.9419 43.5515L35 57L35 65L22.6245 57.2086L16.4367 53.3129L13.3428 51.3651L11.7959 50.3911L11.249 50.0515L13.9419 43.5515Z" fill="#53ADDF"/>
<path d="M18 23.9441L18 51.4441L11 49.9441L11 19.4441L18 23.9441Z" fill="#53ADDF"/>
</svg>
