<svg width="90" height="18" viewBox="0 0 90 18" fill="none" xmlns="http://www.w3.org/2000/svg">
<path d="M9 1.61804L10.5451 6.37336L10.6574 6.71885H11.0206H16.0207L11.9755 9.6578L11.6817 9.87132L11.7939 10.2168L13.339 14.9721L9.29389 12.0332L9 11.8197L8.70611 12.0332L4.66099 14.9721L6.20609 10.2168L6.31834 9.87132L6.02445 9.6578L1.97933 6.71885H6.97937H7.34265L7.4549 6.37336L9 1.61804Z" fill="#4277A9" stroke="#4277A9"/>
<path d="M27 1.61804L28.5451 6.37336L28.6574 6.71885H29.0206H34.0207L29.9755 9.6578L29.6817 9.87132L29.7939 10.2168L31.339 14.9721L27.2939 12.0332L27 11.8197L26.7061 12.0332L22.661 14.9721L24.2061 10.2168L24.3183 9.87132L24.0245 9.6578L19.9793 6.71885H24.9794H25.3426L25.4549 6.37336L27 1.61804Z" fill="#4277A9" stroke="#4277A9"/>
<path d="M45 1.61804L46.5451 6.37336L46.6574 6.71885H47.0206H52.0207L47.9755 9.6578L47.6817 9.87132L47.7939 10.2168L49.339 14.9721L45.2939 12.0332L45 11.8197L44.7061 12.0332L40.661 14.9721L42.2061 10.2168L42.3183 9.87132L42.0245 9.6578L37.9793 6.71885H42.9794H43.3426L43.4549 6.37336L45 1.61804Z" fill="#4277A9" stroke="#4277A9"/>
<path d="M63 1.61804L64.5451 6.37336L64.6574 6.71885H65.0206H70.0207L65.9755 9.6578L65.6817 9.87132L65.7939 10.2168L67.339 14.9721L63.2939 12.0332L63 11.8197L62.7061 12.0332L58.661 14.9721L60.2061 10.2168L60.3183 9.87132L60.0245 9.6578L55.9793 6.71885H60.9794H61.3426L61.4549 6.37336L63 1.61804Z" fill="#4277A9" stroke="#4277A9"/>
<path d="M81 1.61804L82.5451 6.37336L82.6574 6.71885H83.0206H88.0207L83.9755 9.6578L83.6817 9.87132L83.7939 10.2168L85.339 14.9721L81.2939 12.0332L81 11.8197L80.7061 12.0332L76.661 14.9721L78.2061 10.2168L78.3183 9.87132L78.0245 9.6578L73.9793 6.71885H78.9794H79.3426L79.4549 6.37336L81 1.61804Z" stroke="#4277A9"/>
</svg>
