<svg width="56" height="56" viewBox="0 0 56 56" fill="none" xmlns="http://www.w3.org/2000/svg">
<mask id="mask0" mask-type="alpha" maskUnits="userSpaceOnUse" x="3" y="0" width="50" height="56">
<path d="M28 0L52.2487 14V42L28 56L3.75129 42V14L28 0Z" fill="white"/>
</mask>
<g mask="url(#mask0)">
<rect width="57" height="59" fill="#53ADDF"/>
<path d="M17.7644 37.1007C17.7196 37.0242 17.6747 36.9628 17.6301 36.9136C15.9285 34.2253 15 30.9359 15 27.5399C15 18.9712 20.8319 12 28.0001 12C35.1682 12 41 18.9712 41 27.5399C41 30.9742 40.0503 34.2986 38.3116 37.0029C38.2932 37.0289 38.2746 37.0573 38.2561 37.0882C38.1998 37.1745 38.1427 37.2601 38.0849 37.3451C37.4347 38.1995 36.6012 38.0022 36.3605 37.9213C36.338 37.9127 36.3151 37.9043 36.2924 37.8958L36.2921 37.8957C35.4334 37.5735 34.4799 37.3026 33.4498 37.0894L31.6492 36.7166L33.0072 35.4621C34.112 34.442 34.831 33.0584 35.0314 31.5665L35.133 30.8125L35.8817 30.7508C37.1148 30.6492 38.0807 29.5874 38.0807 28.3334C38.0807 27.0837 37.1563 26.0457 35.9305 25.9191L35.1052 25.8337L35.094 25.1687C34.2621 24.9204 30.5946 23.7195 28.0179 21.1638C27.4107 21.8816 25.1344 24.2546 20.9052 25.1819L20.8944 25.8338L20.0687 25.9191C18.8433 26.046 17.9191 27.0839 17.9191 28.3334C17.9191 29.5873 18.885 30.6491 20.118 30.7508L20.8668 30.8125L20.9683 31.5667C21.1688 33.0582 21.8875 34.4417 22.9923 35.462L24.3503 36.7163L22.5496 37.0889C21.4737 37.3117 20.4811 37.5978 19.592 37.9396C19.2665 38.0328 18.3863 38.1613 17.7644 37.1007Z" fill="#694B4B"/>
<path d="M24.4903 40.4865V37.0061L25.6628 37.3192C26.1877 37.4595 26.7302 37.5307 27.2751 37.5307H28.7111C29.2593 37.5307 29.8053 37.4585 30.334 37.3162L31.5081 37V40.4841L35 41.3391L34.2407 44.1128L33.9258 44.3087C33.4546 44.6023 32.1692 45.328 30.4164 45.7212C29.5919 45.9061 28.7608 45.9999 27.9462 46H27.9459C25.9265 46 23.9501 45.4296 22.0721 44.3047L21.7454 44.1094L21 41.3866L24.4903 40.4865Z" fill="#FBCB99"/>
<path d="M28.9963 45.7212C30.8404 45.3279 32.1925 44.6023 32.6883 44.3087L33.4742 41.5L30.4636 40.7943V37.4422L31.3265 37V40.4841L35 41.3391L34.2012 44.1128L33.8699 44.3087C33.3742 44.6023 32.022 45.328 30.178 45.7212C29.3106 45.9061 28.4363 45.9999 27.5794 46H27.579C27.3855 46 27.1926 45.9936 27 45.9842C27.6623 45.9507 28.3312 45.863 28.9963 45.7212Z" fill="#EDBA89"/>
<path d="M23.3733 44.6103C24.8572 45.2699 26.4098 45.6043 27.9882 45.6043C28.8052 45.6043 29.6267 45.5146 30.4297 45.3376C31.1846 45.1712 31.9268 44.9304 32.6357 44.6216L34 44.0274L30.5478 56H25.46L22 44L23.3733 44.6103Z" fill="#F5F5F7"/>
<path d="M34 44L30.2251 56H29L32.5988 44.5594L34 44Z" fill="#D2D2D7"/>
<path d="M15.8902 42.8553C16.3114 42.6146 16.7878 42.3872 17.2856 42.1759L17.5109 42.0822C19.043 41.4549 20.7264 40.9835 21.6113 40.7542L25.8816 55.9993H13.8291C12.4859 55.9993 12.2473 54.9427 12.2103 54.4333V49.8894C12.2103 46.1745 14.2019 43.9311 15.8902 42.8553Z" fill="#324A5E"/>
<path d="M34.3887 40.755C35.2736 40.9843 36.9571 41.4556 38.4891 42.083L38.7144 42.1767C39.2122 42.388 39.6886 42.6153 40.1098 42.8561C41.7981 43.9319 43.7898 46.1753 43.7898 49.8902V54.4341C43.7526 54.9434 43.5141 56 42.1709 56H30.1184L34.3887 40.755Z" fill="#324A5E"/>
<path d="M42.2283 54.4333V52.0306V49.8893C42.2283 46.1744 40.2366 43.931 38.5484 42.8552C38.1272 42.6145 37.6508 42.3871 37.153 42.1759L36.9277 42.0821C36.0315 41.7152 35.0846 41.4022 34.275 41.1592L34.3884 40.7542C35.2734 40.9834 36.9568 41.4547 38.4889 42.0821L38.7141 42.1759C39.2119 42.3871 39.6884 42.6144 40.1095 42.8552C41.7979 43.931 43.7896 46.1744 43.7896 49.8893V54.4332C43.7531 54.9351 43.5201 55.9676 42.2283 55.9978C42.2283 55.9978 42.2283 54.4333 42.2283 54.4333Z" fill="#283D4C"/>
<path d="M17.3071 55.9993V49.7573C17.3071 49.3653 17.6247 49.0476 18.0168 49.0476C18.4088 49.0476 18.7264 49.3653 18.7264 49.7573V55.9993H17.3071Z" fill="#283D4C"/>
<path d="M37.3564 55.9993V49.7573C37.3564 49.3653 37.674 49.0476 38.066 49.0476C38.458 49.0476 38.7757 49.3653 38.7757 49.7573V55.9993H37.3564Z" fill="#283D4C"/>
<path d="M19.2973 25.0562C19.6962 24.939 20.1293 25.0074 20.4656 25.2404C20.8014 25.4736 21 25.8439 21 26.2374V29.7629C21 30.1562 20.8016 30.5261 20.4656 30.7591C20.2373 30.9176 19.9644 31 19.6878 31C19.5575 31 19.4254 30.9818 19.2977 30.9439C19.0462 30.8701 18.7991 30.7634 18.5634 30.6271C18.4247 30.547 18.303 30.4427 18.2044 30.3209C18.0598 30.2505 17.9303 30.1554 17.8221 30.0404C17.292 29.4751 17 28.7506 17 27.9998C17 26.643 17.9232 25.46 19.2973 25.0562Z" fill="#FBCB99"/>
<path d="M35.5346 25.2405C35.8708 25.0074 36.3043 24.9391 36.7026 25.056C38.0765 25.4601 39 26.6432 39 27.9997C39 29.3569 38.0765 30.5399 36.7026 30.9439C36.5748 30.9817 36.4431 31 36.3121 31C36.0359 31 35.7631 30.9176 35.5346 30.7593C35.1983 30.5262 35 30.1562 35 29.7629V26.237C34.9999 25.8439 35.1982 25.4737 35.5346 25.2405Z" fill="#EDBA89"/>
<path d="M20.0075 25.5111C20.0075 25.5111 20.002 25.4846 20 25.4424V25.3784C20.0081 25.225 20.0772 24.9739 20.403 24.8183L20.758 24.735C24.1922 23.9283 26.248 22.302 27.2216 21.3297C27.2216 21.3297 27.2217 21.3296 27.2218 21.3295C28.0499 20.5881 28.9085 21.3295 28.9085 21.3295L28.9086 21.3295C31.2476 23.3192 34.1483 24.3553 35.3089 24.7139L35.4644 24.7619C35.4646 24.762 35.4647 24.7621 35.4647 24.7621C35.8604 24.8892 35.9727 25.1363 36 25.312V30.9185C36 34.8232 32.7515 38 28.7585 38H27.2411C23.2483 38 20 34.8232 20 30.9185V25.5051L20.0075 25.5111Z" fill="#FBCB99"/>
<path d="M27.4488 21.1111C28.1494 20.729 28.7985 21.3012 28.7985 21.3012L28.7986 21.3011C31.0363 23.2476 33.8113 24.2613 34.9217 24.6121L35.0704 24.659C35.0707 24.6591 35.0708 24.6592 35.0708 24.6592C35.4493 24.7836 35.5567 25.0253 35.5828 25.1972V30.6819C35.5828 34.5019 32.475 37.6097 28.655 37.6097H27.5195C31.3396 37.6097 34.4474 34.5019 34.4474 30.6819V25.5972C34.4474 24.9722 33.9889 24.6988 33.7262 24.5929C33.6697 24.5749 33.6103 24.5556 33.5465 24.5343L33.546 24.5343H33.5462C32.2768 24.112 29.6015 23.0606 27.4793 21.1386L27.4488 21.1111Z" fill="#EDBA89"/>
<path d="M27.321 30.5424C27.0601 30.5424 26.8479 30.7546 26.8479 31.0155C26.8479 31.2763 27.0602 31.4885 27.321 31.4885H28.5298C28.7907 31.4885 29.0029 31.2763 29.0029 31.0155V28.7094C29.0029 28.4485 28.7906 28.2363 28.5298 28.2363C28.269 28.2363 28.0568 28.4486 28.0568 28.7094V30.5424H27.321Z" fill="#EDBA89"/>
<path d="M38.1963 37.0882C38.1388 37.1746 38.0804 37.2602 38.0213 37.3452C37.3306 38.2337 36.4371 37.9849 36.2329 37.9124C36.2182 37.9069 36.204 37.9013 36.1894 37.8958L36.3043 37.7416C38.4087 34.9169 39.5676 31.2939 39.5676 27.5399C39.5676 19.2523 33.993 12.4596 27 12.0227C27.2371 12.008 27.4758 12 27.7161 12C35.0408 12 41 18.9712 41 27.5399C41 30.9742 40.0296 34.2986 38.2529 37.0029C38.2342 37.0289 38.2152 37.0574 38.1963 37.0882Z" fill="#563B3B"/>
</g>
</svg>
